<svg width="49" height="48" viewBox="0 0 49 48" fill="none" xmlns="http://www.w3.org/2000/svg">
<path d="M16.6667 4V10" stroke="url(#paint0_linear_4292_4081)" stroke-width="1.5" stroke-miterlimit="10" stroke-linecap="round" stroke-linejoin="round"/>
<path d="M32.6667 4V10" stroke="url(#paint1_linear_4292_4081)" stroke-width="1.5" stroke-miterlimit="10" stroke-linecap="round" stroke-linejoin="round"/>
<path d="M7.66669 18.1797H41.6667" stroke="url(#paint2_linear_4292_4081)" stroke-width="1.5" stroke-miterlimit="10" stroke-linecap="round" stroke-linejoin="round"/>
<path d="M42.6667 17V34C42.6667 40 39.6667 44 32.6667 44H16.6667C9.66669 44 6.66669 40 6.66669 34V17C6.66669 11 9.66669 7 16.6667 7H32.6667C39.6667 7 42.6667 11 42.6667 17Z" stroke="url(#paint3_linear_4292_4081)" stroke-width="1.5" stroke-miterlimit="10" stroke-linecap="round" stroke-linejoin="round"/>
<path d="M32.0561 27.4004H32.0741" stroke="url(#paint4_linear_4292_4081)" stroke-width="2" stroke-linecap="round" stroke-linejoin="round"/>
<path d="M32.0561 33.4004H32.0741" stroke="url(#paint5_linear_4292_4081)" stroke-width="2" stroke-linecap="round" stroke-linejoin="round"/>
<path d="M24.6577 27.4004H24.6756" stroke="url(#paint6_linear_4292_4081)" stroke-width="2" stroke-linecap="round" stroke-linejoin="round"/>
<path d="M24.6577 33.4004H24.6756" stroke="url(#paint7_linear_4292_4081)" stroke-width="2" stroke-linecap="round" stroke-linejoin="round"/>
<path d="M17.2553 27.4004H17.2733" stroke="url(#paint8_linear_4292_4081)" stroke-width="2" stroke-linecap="round" stroke-linejoin="round"/>
<path d="M17.2553 33.4004H17.2733" stroke="url(#paint9_linear_4292_4081)" stroke-width="2" stroke-linecap="round" stroke-linejoin="round"/>
<defs>
<linearGradient id="paint0_linear_4292_4081" x1="16.8338" y1="4" x2="19.2288" y2="5.59192" gradientUnits="userSpaceOnUse">
<stop stop-color="#1DA1F2"/>
<stop offset="1" stop-color="#003CC5"/>
</linearGradient>
<linearGradient id="paint1_linear_4292_4081" x1="32.8338" y1="4" x2="35.2288" y2="5.59192" gradientUnits="userSpaceOnUse">
<stop stop-color="#1DA1F2"/>
<stop offset="1" stop-color="#003CC5"/>
</linearGradient>
<linearGradient id="paint2_linear_4292_4081" x1="13.3496" y1="18.1797" x2="13.356" y2="19.0455" gradientUnits="userSpaceOnUse">
<stop stop-color="#1DA1F2"/>
<stop offset="1" stop-color="#003CC5"/>
</linearGradient>
<linearGradient id="paint3_linear_4292_4081" x1="12.6839" y1="7" x2="20.4259" y2="37.0413" gradientUnits="userSpaceOnUse">
<stop stop-color="#1DA1F2"/>
<stop offset="1" stop-color="#003CC5"/>
</linearGradient>
<linearGradient id="paint4_linear_4292_4081" x1="31.4007" y1="26.4004" x2="31.81" y2="28.0293" gradientUnits="userSpaceOnUse">
<stop stop-color="#1DA1F2"/>
<stop offset="1" stop-color="#003CC5"/>
</linearGradient>
<linearGradient id="paint5_linear_4292_4081" x1="31.4007" y1="32.4004" x2="31.81" y2="34.0293" gradientUnits="userSpaceOnUse">
<stop stop-color="#1DA1F2"/>
<stop offset="1" stop-color="#003CC5"/>
</linearGradient>
<linearGradient id="paint6_linear_4292_4081" x1="24.0023" y1="26.4004" x2="24.4115" y2="28.0293" gradientUnits="userSpaceOnUse">
<stop stop-color="#1DA1F2"/>
<stop offset="1" stop-color="#003CC5"/>
</linearGradient>
<linearGradient id="paint7_linear_4292_4081" x1="24.0023" y1="32.4004" x2="24.4115" y2="34.0293" gradientUnits="userSpaceOnUse">
<stop stop-color="#1DA1F2"/>
<stop offset="1" stop-color="#003CC5"/>
</linearGradient>
<linearGradient id="paint8_linear_4292_4081" x1="16.5999" y1="26.4004" x2="17.0092" y2="28.0293" gradientUnits="userSpaceOnUse">
<stop stop-color="#1DA1F2"/>
<stop offset="1" stop-color="#003CC5"/>
</linearGradient>
<linearGradient id="paint9_linear_4292_4081" x1="16.5999" y1="32.4004" x2="17.0092" y2="34.0293" gradientUnits="userSpaceOnUse">
<stop stop-color="#1DA1F2"/>
<stop offset="1" stop-color="#003CC5"/>
</linearGradient>
</defs>
</svg>
