<svg width="49" height="48" viewBox="0 0 49 48" fill="none" xmlns="http://www.w3.org/2000/svg">
<path d="M24.6334 33V37.2" stroke="url(#paint0_linear_4292_1383)" stroke-width="1.5" stroke-linecap="round" stroke-linejoin="round"/>
<path d="M14.6334 44H34.6334V42C34.6334 39.8 32.8334 38 30.6334 38H18.6334C16.4334 38 14.6334 39.8 14.6334 42V44V44Z" stroke="url(#paint1_linear_4292_1383)" stroke-width="1.5" stroke-miterlimit="10"/>
<path d="M12.6334 44H36.6334" stroke="url(#paint2_linear_4292_1383)" stroke-width="1.5" stroke-linecap="round" stroke-linejoin="round"/>
<path d="M24.3334 32C16.5934 32 10.3334 25.74 10.3334 18V12C10.3334 7.58 13.9134 4 18.3334 4H30.3334C34.7534 4 38.3334 7.58 38.3334 12V18C38.3334 25.74 32.0734 32 24.3334 32Z" stroke="url(#paint3_linear_4292_1383)" stroke-width="1.5" stroke-linecap="round" stroke-linejoin="round"/>
<path d="M11.2734 23.3002C9.77339 22.8202 8.45339 21.9402 7.41339 20.9002C5.61339 18.9002 4.41339 16.5002 4.41339 13.7002C4.41339 10.9002 6.61339 8.7002 9.41339 8.7002H10.7134C10.3134 9.6202 10.1134 10.6402 10.1134 11.7002V17.7002C10.1134 19.7002 10.5334 21.5802 11.2734 23.3002Z" stroke="url(#paint4_linear_4292_1383)" stroke-width="1.5" stroke-linecap="round" stroke-linejoin="round"/>
<path d="M37.3934 23.3002C38.8934 22.8202 40.2134 21.9402 41.2534 20.9002C43.0534 18.9002 44.2534 16.5002 44.2534 13.7002C44.2534 10.9002 42.0534 8.7002 39.2534 8.7002H37.9534C38.3534 9.6202 38.5534 10.6402 38.5534 11.7002V17.7002C38.5534 19.7002 38.1334 21.5802 37.3934 23.3002Z" stroke="url(#paint5_linear_4292_1383)" stroke-width="1.5" stroke-linecap="round" stroke-linejoin="round"/>
<defs>
<linearGradient id="paint0_linear_4292_1383" x1="24.8005" y1="33" x2="26.6164" y2="34.7242" gradientUnits="userSpaceOnUse">
<stop stop-color="#1DA1F2"/>
<stop offset="1" stop-color="#003CC5"/>
</linearGradient>
<linearGradient id="paint1_linear_4292_1383" x1="17.9763" y1="38" x2="18.3649" y2="43.1659" gradientUnits="userSpaceOnUse">
<stop stop-color="#1DA1F2"/>
<stop offset="1" stop-color="#003CC5"/>
</linearGradient>
<linearGradient id="paint2_linear_4292_1383" x1="16.6449" y1="44" x2="16.6539" y2="44.8658" gradientUnits="userSpaceOnUse">
<stop stop-color="#1DA1F2"/>
<stop offset="1" stop-color="#003CC5"/>
</linearGradient>
<linearGradient id="paint3_linear_4292_1383" x1="15.0135" y1="4" x2="20.7329" y2="26.8097" gradientUnits="userSpaceOnUse">
<stop stop-color="#1DA1F2"/>
<stop offset="1" stop-color="#003CC5"/>
</linearGradient>
<linearGradient id="paint4_linear_4292_1383" x1="5.56001" y1="8.7002" x2="10.8108" y2="18.5395" gradientUnits="userSpaceOnUse">
<stop stop-color="#1DA1F2"/>
<stop offset="1" stop-color="#003CC5"/>
</linearGradient>
<linearGradient id="paint5_linear_4292_1383" x1="38.54" y1="8.7002" x2="43.7908" y2="18.5395" gradientUnits="userSpaceOnUse">
<stop stop-color="#1DA1F2"/>
<stop offset="1" stop-color="#003CC5"/>
</linearGradient>
</defs>
</svg>
