<svg width="718" height="609" viewBox="0 0 718 609" fill="none" xmlns="http://www.w3.org/2000/svg">
<g style="mix-blend-mode:luminosity" opacity="0.2">
<path fill-rule="evenodd" clip-rule="evenodd" d="M718 267.749C718 213.036 701.248 162.517 673.579 119.624C626.899 48.5157 546.527 2 455.238 2C434.721 2 415.71 4.28766 396.888 8.67233C352.278 18.2042 312.751 39.7463 280 69.2952V386.517C331.762 386.517 376.183 352.202 391.241 304.352C390.112 302.064 388.606 299.967 386.535 298.251L328.75 247.351C315.763 235.913 322.727 214.561 340.044 213.036L416.651 205.792C423.992 205.029 430.204 200.645 433.027 193.972L463.708 123.436C470.484 107.423 493.071 107.423 500.035 123.436L530.528 193.972C533.539 200.645 539.751 205.029 546.903 205.792L623.699 213.036C641.016 214.561 647.98 235.913 634.993 247.351L577.019 298.251C571.561 303.017 569.302 310.262 570.808 317.315L587.748 392.427C591.513 409.203 573.255 422.547 558.197 413.778L491.942 374.507C485.73 370.884 470.672 369.55 463.143 371.647L449.403 375.841L433.968 380.988L417.781 387.661C369.407 407.296 300.517 461.056 284.517 507H572.69C613.535 486.22 648.357 454.765 673.579 416.066C702.001 373.935 718 323.606 718 268.512C718 268.512 718 268.512 718 267.749Z" fill="url(#paint0_linear_3362_20489)"/>
</g>
<path d="M204.762 258.892L199.331 278.363L196.568 288.28L148.883 459.307C148.883 459.307 137.415 455.391 122.461 448.902C119.536 447.633 116.473 446.266 113.341 444.811C89.9906 433.981 62.5654 418.256 55.8876 401.852C45.9097 377.326 75.5954 285.696 103.314 255.084C116.014 241.049 153.143 246.27 178.78 252.021C181.647 252.658 184.371 253.307 186.897 253.94C197.554 256.589 204.762 258.892 204.762 258.892Z" fill="white"/>
<path d="M90.965 429.139C102.071 404.209 111.408 381.981 119.074 362.968C118.664 361.862 118.2 360.47 117.788 358.89C117.159 356.466 116.652 353.597 116.652 350.637C116.652 349.07 116.794 347.477 117.133 345.912C117.189 345.658 117.249 345.403 117.316 345.15C117.34 345.055 117.366 344.958 117.392 344.861C120.288 334.238 127.766 331.395 131.729 330.638C139.174 310.992 143.74 297.686 145.656 291.953C143.84 291.176 141.325 290.081 138.24 288.689C122.933 304.803 113.175 325.977 106.857 345.25C108.583 346.735 109.497 349.023 109.169 351.374C108.708 354.674 107.955 359.22 106.792 364.125C106.057 367.233 105.155 370.488 104.062 373.657C100.975 382.605 96.3465 390.885 89.5134 393.392C87.0589 394.294 84.4598 394.713 81.837 394.713C78.8906 394.713 75.9163 394.184 73.0864 393.206C73.0734 393.202 73.0605 393.197 73.0475 393.193C73.0454 393.193 73.0411 393.191 73.0389 393.191C67.267 391.188 62.1077 387.33 59.0427 382.333C58.648 381.685 58.3007 380.988 57.9988 380.245C57.164 389.193 57.5523 396.213 59.2843 400.47C63.3824 410.538 76.201 420.5 90.965 429.139ZM72.2991 330.562C73.8025 322.927 75.8429 314.741 78.3061 306.366C75.1764 313.947 72.2042 321.973 69.4822 330.251C69.7065 330.23 69.9351 330.217 70.1616 330.217C70.8712 330.217 71.5916 330.329 72.2991 330.562Z" fill="#B9AFBE"/>
<path d="M200.267 261.346L146.411 454.525C130.683 448.77 69.2411 424.934 59.2848 400.47C55.0487 390.059 58.8427 363.135 68.9521 331.88C79.3139 299.841 93.5194 271.358 106.027 257.545C120.496 241.566 176.019 254.045 200.267 261.346ZM151.376 464.038L209.242 256.474L205.875 255.399C205.036 255.129 185.02 248.765 162.168 245.035C130.536 239.87 109.821 242.421 100.592 252.614C71.672 284.553 42.0015 377.461 52.4906 403.24C65.1214 434.277 144.336 461.633 147.703 462.782L151.376 464.038Z" fill="#371A45"/>
<path d="M72.7847 330.744L105.011 344.113C107.888 345.307 109.601 348.288 109.17 351.375C107.589 362.679 102.585 388.596 89.5137 393.393C78.6644 397.375 64.9551 391.97 59.0473 382.338C52.4407 371.562 59.5693 346.874 63.6912 334.846C64.9724 331.107 69.1352 329.231 72.7847 330.744Z" fill="white"/>
<path d="M73.0864 393.206C73.0734 393.202 73.0605 393.197 73.0476 393.193C73.0605 393.197 73.0734 393.202 73.0864 393.206ZM73.0389 393.191C67.2692 391.188 62.1098 387.33 59.047 382.337C58.6502 381.688 58.3007 380.988 57.9988 380.243C57.9988 380.246 57.9988 380.246 57.9988 380.246C58.3007 380.988 58.648 381.685 59.0427 382.333C62.1077 387.33 67.267 391.188 73.0389 393.191ZM104.062 373.657C105.155 370.489 106.057 367.233 106.792 364.125C106.057 367.235 105.155 370.489 104.062 373.657Z" fill="#8C7B94"/>
<path d="M57.998 380.247C57.998 380.247 57.998 380.247 57.998 380.245C57.3031 378.531 56.8521 376.58 56.6017 374.464C56.8521 376.582 57.3031 378.533 57.998 380.247ZM56.5996 374.447C56.5996 374.44 56.5974 374.432 56.5974 374.425C56.5974 374.432 56.5996 374.44 56.5996 374.447ZM56.5931 374.391C56.5931 374.386 56.5931 374.382 56.5909 374.378C56.5931 374.382 56.5931 374.386 56.5931 374.391Z" fill="#371A45"/>
<path d="M81.8302 394.714C84.453 394.712 87.0564 394.293 89.5109 393.391C96.344 390.884 100.975 382.606 104.061 373.658C105.155 370.49 106.057 367.237 106.792 364.126C107.953 359.224 108.705 354.678 109.165 351.379C109.292 350.503 109.24 349.644 109.037 348.832C106.441 359.99 101.126 380.717 94.8924 380.715C94.433 380.715 93.9671 380.603 93.4969 380.365C91.8641 379.536 91.2321 374.187 91.2321 374.187C91.2321 374.187 84.9275 379.241 77.4214 379.241C71.9968 379.241 65.9423 376.601 61.1906 367.504C59.2128 363.72 58.2939 358.641 58.5506 352.847C56.9113 360.234 55.863 368.042 56.5921 374.377C56.5942 374.382 56.5943 374.386 56.5943 374.39C56.5964 374.401 56.5964 374.412 56.5986 374.425C56.5986 374.431 56.6007 374.44 56.6007 374.446C56.6007 374.453 56.6029 374.459 56.6029 374.464C56.8531 376.579 57.3039 378.531 57.9984 380.244C58.3004 380.989 58.6498 381.689 59.0467 382.338C62.1095 387.331 67.2688 391.189 73.0386 393.192C73.0429 393.192 73.045 393.194 73.0472 393.194C73.0601 393.198 73.0731 393.203 73.086 393.207C75.9137 394.183 78.886 394.714 81.8302 394.714Z" fill="#B9AFBE"/>
<path d="M72.785 330.742H72.7742H72.785ZM70.1579 333.887C70.5699 333.887 70.984 333.97 71.3787 334.134L103.605 347.504C104.942 348.057 105.736 349.441 105.538 350.863C102.516 372.471 96.0538 387.081 88.2501 389.945C79.2989 393.231 67.3561 388.866 62.1752 380.415C58.0705 373.721 59.9341 357.13 67.1598 336.035C67.4488 335.196 68.0506 334.533 68.8573 334.17C69.2736 333.98 69.7157 333.887 70.1579 333.887ZM81.8333 398.377C84.8983 398.379 87.9287 397.883 90.7759 396.838C105.212 391.541 110.773 366.399 112.802 351.882C113.464 347.144 110.837 342.554 106.413 340.72L74.1892 327.351C71.5189 326.242 68.4755 326.289 65.8398 327.476C63.2062 328.666 61.1593 330.917 60.221 333.654C54.4448 350.516 49.0093 372.981 55.9223 384.257C61.293 393.015 71.7432 398.377 81.8333 398.377Z" fill="#371A45"/>
<path d="M72.0581 395.85C72.9037 395.68 73.3653 395.515 73.9606 395.317C74.5149 395.12 75.0584 394.911 75.5739 394.671C76.6222 394.212 77.6165 393.687 78.5634 393.102C80.4507 391.928 82.2237 390.609 83.7616 389.078C86.9042 386.08 89.3696 382.544 91.2418 378.81C92.139 376.923 93.0018 375.034 93.6596 373.079C94.4103 371.14 94.9301 369.219 95.4995 367.263C96.0452 365.312 96.5219 363.334 96.8994 361.331C97.0805 360.325 97.2488 359.319 97.3674 358.296C97.4817 357.251 97.5788 356.289 97.5378 355.112C97.5205 354.577 97.0719 354.16 96.5391 354.178C96.0387 354.195 95.6419 354.59 95.6074 355.078L95.6009 355.183C95.5491 355.999 95.3723 357.014 95.1738 357.936C94.9754 358.879 94.723 359.818 94.4599 360.755C93.9207 362.626 93.2822 364.476 92.5812 366.305C91.8608 368.114 91.1533 369.99 90.2927 371.695C89.5098 373.456 88.5478 375.11 87.5793 376.737C85.5691 379.952 83.0994 382.816 80.2415 385.057C78.8395 386.216 77.2865 387.136 75.7185 387.919C74.9312 388.308 74.1223 388.638 73.3178 388.901C72.9145 389.044 72.5154 389.152 72.1186 389.251C71.7627 389.34 71.2623 389.432 71.1264 389.437C69.3275 389.484 67.9083 390.982 67.9557 392.783C68.0032 394.583 69.5001 396.003 71.2989 395.956C71.4844 395.949 71.6677 395.93 71.8425 395.895L72.0581 395.85Z" fill="#371A45"/>
<path d="M154.885 267.268C150.99 265.364 147.093 263.586 143.143 261.848C139.198 260.117 135.219 258.45 131.183 256.894C127.145 255.335 123.073 253.839 118.887 252.555C114.696 251.27 110.447 250.094 105.904 249.397C103.9 249.09 102.026 250.467 101.72 252.473C101.413 254.478 102.787 256.354 104.791 256.661C104.875 256.674 104.957 256.682 105.039 256.691L105.076 256.693C109.029 257.017 113.123 257.831 117.183 258.778C121.253 259.724 125.31 260.9 129.352 262.146C133.396 263.391 137.417 264.758 141.416 266.191C145.41 267.626 149.411 269.127 153.326 270.716L153.345 270.722C154.314 271.115 155.416 270.649 155.809 269.679C156.184 268.753 155.768 267.702 154.885 267.268Z" fill="#371A45"/>
<path d="M339.636 278.745C335.578 287.884 329.763 296.942 327.915 301.762L337.442 318.567L348.242 337.602C353.679 338.23 358.901 338.701 363.931 339.001C453.87 344.564 480.309 301.087 483.265 280.292C489.117 239.125 465.671 213.008 454.836 202.381C453.189 200.768 451.334 199.145 449.282 197.528C413.512 169.323 319.891 142.927 292.822 180.514C277.57 201.673 288.096 237.914 335.481 252.221C347.09 255.721 344.732 267.289 339.636 278.745Z" fill="white"/>
<path d="M379.017 335.803C442.024 335.803 469.306 309.228 477.293 288.548C464.896 307.285 430.038 326.423 412.153 326.423C409.515 326.423 407.251 326.009 405.478 325.115C401.621 323.168 398.688 320.841 396.904 320.232C396.557 320.116 396.227 320.062 395.91 320.062C394.635 320.062 393.556 320.915 392.277 321.767C391 322.62 389.521 323.473 387.446 323.473C387.286 323.473 387.122 323.468 386.956 323.457C382.614 323.185 381.939 316.282 378.917 316.282C378.723 316.282 378.523 316.31 378.309 316.371C376.271 316.938 373.9 320.64 371.189 322.637C371.454 323.354 371.498 324.161 371.265 324.949C371.239 325.038 370.167 328.681 368.517 335.567C372.125 335.727 375.619 335.803 379.017 335.803Z" fill="#B9AFBE"/>
<path d="M379.52 343.183C410.422 343.183 435.735 337.011 455.029 324.737C475.803 311.52 485.114 293.378 486.901 280.806C491.213 250.471 481.289 223.203 457.404 199.756C434.916 177.68 375.031 154.902 331.524 158.619C312.11 160.277 298.088 166.921 289.844 178.362C282.409 188.682 280.634 201.949 284.969 214.765C291.209 233.198 309.234 248.129 334.427 255.732C361.462 263.891 392.975 277.463 396.743 285.16C396.917 285.519 396.965 285.767 396.935 285.847C396.208 287.74 397.15 289.864 399.042 290.592C400.934 291.319 403.054 290.374 403.783 288.48C404.335 287.043 404.704 284.737 403.33 281.929C395.908 266.769 338.965 249.433 336.545 248.703C313.652 241.793 297.387 228.565 291.919 212.41C288.351 201.871 289.764 191.026 295.795 182.657C302.731 173.03 314.961 167.402 332.15 165.934C373.07 162.435 431.329 184.445 452.266 204.997C474.395 226.72 483.604 251.876 479.638 279.773C476.283 303.375 444.592 345.074 348.661 333.952C346.659 333.713 344.828 335.161 344.595 337.175C344.362 339.191 345.805 341.013 347.817 341.246C358.958 342.537 369.531 343.183 379.52 343.183Z" fill="#371A45"/>
<path d="M4.52411 169.721C5.77728 176.357 8.44324 183.554 12.619 191.085C43.1351 246.163 150.204 289.88 150.204 289.88C150.204 289.88 144.126 308.966 130.967 342.915C130.663 343.71 130.348 344.504 130.033 345.316C125.969 355.74 121.261 367.505 115.883 380.489C109.587 395.69 102.366 412.577 94.1698 430.947C74.4923 475.108 57.5562 533.346 57.5562 533.346C57.5562 533.346 10.5441 549.333 11.2105 578.404C11.2451 579.954 11.4133 581.545 11.739 583.166C17.265 611.112 124.986 605.262 134.017 592.027C144.836 576.183 149.195 562.467 159.865 538.37C167.768 520.528 176.13 502.098 194.531 487.16C215.339 471.853 249.55 471.683 271.662 473.723C303.453 476.665 308.703 496.328 312.7 510.575C319.369 534.288 315.37 583.136 337.99 597.07C350.355 604.692 452.257 616.482 458.186 581.478C459.387 574.363 458.123 568.405 455.479 563.466C446.789 547.205 423.155 541.856 423.155 541.856C423.155 541.856 425.519 503.531 423.188 482.452C417.437 430.353 352.698 406.472 352.698 406.472C352.698 406.472 352.924 401.425 355.368 385.104C358.39 364.936 361.565 349.378 363.931 339.002C366.202 329.104 367.742 323.902 367.742 323.902L373.725 306.365L377.103 296.455L339.635 278.745L197.872 211.741C193.265 208.877 188.149 205.49 182.636 201.749C140.679 173.263 75.5341 124.374 32.5424 130.46C10.6347 133.562 0.583435 148.92 4.52411 169.721Z" fill="white"/>
<path d="M144.553 335.321C155.411 326.048 172.431 332.901 173.822 325.02C174.702 320.032 159.134 315.155 164.045 305.744C168.95 296.332 192.84 302.208 192.434 294.611C192.115 288.787 179.18 289.685 170.27 287.328C161.362 284.971 175.063 272.252 176.012 268.097C176.588 265.597 174.81 264.887 171.426 264.887C169.217 264.887 166.323 265.189 162.949 265.491C159.574 265.791 155.722 266.094 151.595 266.094C149.753 266.094 147.855 266.033 145.923 265.886C81.9119 261.032 33.0664 207.717 10.6496 178.11C11.9804 181.732 13.7103 185.473 15.8305 189.3C45.363 242.612 150.528 286.046 151.587 286.478L154.723 287.76L153.696 290.991C153.606 291.272 148.822 306.208 138.779 332.733C140.63 333.635 142.558 334.497 144.553 335.321Z" fill="#B9AFBE"/>
<path d="M397.323 601.609C413.739 601.609 430.222 599.792 441.645 594.611C449.264 591.155 453.612 586.529 454.572 580.861C455.353 576.254 454.949 572.196 453.741 568.627C451.09 573.692 445.385 578.663 434.256 582.201C419.91 586.756 401.365 589.728 384.241 589.728C361.328 589.728 340.963 584.407 336.61 570.452C329.007 546.074 333.981 523.678 333.7 502.862C333.476 486.321 335.484 464.834 324.792 458.297C323.761 457.667 322.685 457.414 321.566 457.414C319.279 457.414 316.801 458.468 314.1 459.521C311.398 460.575 308.473 461.628 305.292 461.628C304.724 461.628 304.151 461.593 303.57 461.522C294.846 460.423 294.725 440.523 288.567 440.242C288.468 440.238 288.369 440.236 288.271 440.236C280.994 440.236 281.926 453.347 266.239 458.623C261.125 460.341 253.159 461.349 244.436 461.349C228.676 461.349 210.437 458.062 202.036 449.745C199.383 447.118 197.478 446.045 196.096 446.045C190.988 446.045 192.979 460.698 190.389 465.697C188.836 468.697 186.148 469.74 182.926 469.74C179.265 469.74 174.913 468.397 170.739 467.053C166.568 465.708 162.575 464.363 159.637 464.363C157.549 464.363 155.992 465.043 155.283 466.884C153.635 471.165 159.801 486.94 156.823 505.41C153.1 528.516 138.743 568.019 110.192 582.736C100.434 587.768 82.1114 590.907 63.3398 590.907C45.2626 590.907 26.7714 587.999 15.1025 581.07C15.1672 581.53 15.2449 581.989 15.3354 582.456C16.5175 588.424 25.1818 593.35 39.7345 596.334C50.6571 598.57 62.8415 599.479 74.6722 599.479C102.235 599.479 127.86 594.542 130.991 589.957C138.806 578.503 143.193 568.116 149.265 553.737C151.366 548.766 153.745 543.127 156.512 536.88C164.16 519.618 172.827 500.052 192.22 484.313L192.356 484.205C208.793 472.11 232.865 469.151 252.482 469.151C259.82 469.151 266.538 469.565 271.998 470.07C306.027 473.22 312.11 494.882 316.134 509.213L316.236 509.578C318.356 517.122 319.415 526.901 320.539 537.254C322.976 559.734 325.737 585.212 339.914 593.948C344.735 596.919 370.946 601.609 397.323 601.609Z" fill="#B9AFBE"/>
<path d="M396.675 608.999C414.361 608.999 432.193 606.957 444.672 601.297C454.648 596.772 460.412 590.307 461.804 582.085C466.06 556.948 442.397 543.469 426.99 539.053C427.497 529.503 428.817 499.968 426.837 482.045C421.503 433.771 369.152 409.277 356.582 404.064C356.873 401.13 357.533 395.429 359 385.646C364.793 346.983 371.199 325.166 371.264 324.948C371.84 323.005 370.733 320.961 368.79 320.384C366.849 319.804 364.806 320.915 364.23 322.858C363.963 323.756 357.624 345.325 351.744 384.556C349.298 400.88 349.044 406.093 349.035 406.307L348.914 408.988L351.429 409.918C352.055 410.149 414.109 433.655 419.544 482.852C421.811 503.37 419.519 541.25 419.495 541.63L419.305 544.747L422.348 545.436C423.847 545.779 459.091 554.154 454.571 580.859C453.611 586.528 449.262 591.154 441.644 594.61C411.866 608.114 347.734 598.765 339.913 593.947C325.736 585.211 322.975 559.732 320.538 537.252C319.414 526.899 318.355 517.121 316.235 509.576L316.133 509.211C312.109 494.88 306.026 473.218 271.996 470.069C251.948 468.215 214.942 467.582 192.354 484.204L192.219 484.312C172.826 500.05 164.159 519.616 156.511 536.879C153.744 543.126 151.364 548.764 149.264 553.736C143.192 568.114 138.805 578.502 130.99 589.955C126.515 596.509 76.0989 603.777 39.7333 596.332C25.1806 593.349 16.5163 588.423 15.3343 582.454C9.68753 553.904 58.2461 536.985 58.7379 536.818L60.5432 536.203L61.0781 534.368C61.2464 533.79 78.1717 475.863 97.5236 432.444C136.111 345.871 153.524 291.532 153.696 290.992L154.723 287.761L151.587 286.478C150.528 286.047 45.3629 242.613 15.8304 189.301C6.98706 173.34 4.9574 158.84 10.1146 148.477C14.0143 140.638 21.9453 135.665 33.0534 134.093C70.3227 128.824 126.362 167.453 167.282 195.662C177.8 202.913 187.734 209.76 195.933 214.859C197.654 215.93 199.914 215.399 200.984 213.678C202.054 211.956 201.526 209.693 199.804 208.623C191.753 203.615 181.887 196.815 171.443 189.616C129.528 160.722 72.1194 121.146 32.0267 126.823C18.4209 128.749 8.57239 135.104 3.54678 145.202C-2.71906 157.795 -0.635468 174.721 9.41357 192.863C37.598 243.735 127.291 284.102 145.655 291.953C141.384 304.73 123.954 355.121 90.8242 429.452C73.1957 469.002 57.5969 520.339 54.5643 530.522C44.9293 534.146 1.87949 552.235 8.13885 583.881C9.98087 593.198 20.1162 599.808 38.2623 603.525C70.2515 610.081 128.812 606.163 137.047 594.096C145.278 582.038 149.783 571.365 156.021 556.594C158.109 551.648 160.477 546.044 163.219 539.856C170.522 523.37 178.798 504.687 196.77 490.069C217.411 474.937 252.327 475.623 271.321 477.38C300.33 480.066 305.176 497.328 309.069 511.197L309.173 511.564C311.127 518.52 312.156 528.002 313.243 538.044C315.864 562.2 318.832 589.578 336.068 600.198C342.463 604.14 369.396 608.999 396.675 608.999Z" fill="#371A45"/>
<path d="M375.063 302.441C382.8 298.424 390.094 293.679 396.871 288.307C396.712 287.823 396.654 287.303 396.71 286.783L395.525 287.098C395.937 286.944 396.339 286.791 396.727 286.636C396.766 286.372 396.835 286.109 396.934 285.85C396.964 285.77 396.917 285.522 396.742 285.164C396.298 284.259 395.472 283.273 394.315 282.226C386.615 286.575 378.533 290.247 370.175 293.179L377.103 296.455L375.063 302.441Z" fill="#B9AFBE"/>
<path d="M396.872 288.304C397.838 287.537 398.792 286.76 399.736 285.97L396.71 286.78C396.654 287.3 396.712 287.82 396.872 288.304ZM396.727 286.633C398.134 286.072 399.395 285.497 400.517 284.91C400.213 283.458 399.184 281.916 397.582 280.323C397.297 280.492 397.014 280.66 396.73 280.828L396.199 281.182L396.029 281.238C395.461 281.571 394.89 281.899 394.316 282.223C395.472 283.27 396.298 284.256 396.742 285.161C396.917 285.519 396.965 285.767 396.934 285.847C396.835 286.106 396.766 286.37 396.727 286.633Z" fill="#371A45"/>
<path d="M313.706 317.503C319.256 317.503 324.866 317.147 330.53 316.415C332.856 316.1 335.161 315.746 337.441 315.329C337.506 315.321 337.562 315.303 337.627 315.295C342.426 314.41 347.13 313.274 351.735 311.899C359.388 309.613 366.732 306.66 373.725 303.126C374.171 302.9 374.618 302.671 375.062 302.44L377.103 296.454L370.175 293.177C367.342 294.17 364.48 295.079 361.59 295.899C356.377 297.376 351.062 298.585 345.801 299.485C343.386 299.906 340.789 300.286 337.836 300.648C331.954 301.341 326.022 301.689 320.128 301.689C319.934 301.689 319.742 301.687 319.55 301.687C317.852 301.68 316.157 301.646 314.47 301.581C314.457 301.581 314.444 301.579 314.431 301.579C314.425 301.579 314.418 301.579 314.412 301.579C314.224 301.57 314.039 301.564 313.851 301.555C307.186 301.289 300.426 300.553 293.759 299.37C285.949 297.989 278.148 295.947 270.555 293.296C267.846 292.34 265.128 291.297 262.473 290.198C229.96 276.657 203.753 252.405 187.559 222.346C199.33 261.598 227.637 292.385 263.45 307.433C265.81 308.422 268.209 309.348 270.637 310.207C277.3 312.542 284.189 314.358 291.251 315.577C297.096 316.598 303.077 317.224 309.136 317.421C310.654 317.475 312.179 317.503 313.706 317.503Z" fill="#B9AFBE"/>
<path d="M424.242 254.618C406.924 272.031 385.187 285.188 360.539 292.184C355.514 293.609 350.383 294.783 345.141 295.681C342.592 296.126 340.001 296.493 337.387 296.815C329.504 297.743 321.696 298.023 314.006 297.698C307.378 297.432 300.838 296.705 294.432 295.569C286.695 294.201 279.146 292.206 271.841 289.654C269.179 288.715 266.552 287.707 263.955 286.634C216.499 266.87 180.81 222.73 174.391 168.004C164.918 87.3854 222.547 14.3564 303.088 4.87347C318.6 3.05804 333.85 3.70999 348.4 6.57019C350.104 6.88751 351.806 7.25665 353.497 7.66031C358.027 8.70941 362.481 9.97 366.848 11.4335C376.947 14.8226 386.595 19.2975 395.624 24.72C404.655 30.1274 413.091 36.504 420.752 43.7009C423.189 45.9869 425.551 48.355 427.835 50.8159C431.254 54.5028 434.494 58.356 437.535 62.4056C452.724 82.522 462.934 106.828 466.084 133.684C471.535 180.058 454.779 223.913 424.242 254.618Z" fill="white"/>
<path d="M423.965 254.347C406.35 272.06 384.381 285.017 360.433 291.814C355.367 293.252 350.199 294.424 345.076 295.302C342.729 295.71 340.199 296.08 337.339 296.431C329.587 297.345 321.742 297.64 314.023 297.312C307.548 297.053 300.98 296.341 294.498 295.19C286.913 293.848 279.333 291.864 271.967 289.291C269.329 288.36 266.683 287.346 264.103 286.277C215.174 265.902 180.945 220.566 174.777 167.96C165.345 87.6929 222.926 14.707 303.133 5.26294C318.347 3.48209 333.554 4.0498 348.326 6.95319C349.955 7.25757 351.616 7.61163 353.406 8.0412C357.907 9.0838 362.385 10.3509 366.725 11.8058C376.698 15.1517 386.355 19.6093 395.423 25.0556C404.413 30.4392 412.844 36.8094 420.486 43.9869C422.941 46.2923 425.318 48.6776 427.55 51.0823C431.023 54.8276 434.277 58.7174 437.224 62.6418C452.82 83.2936 462.665 107.876 465.698 133.732C470.953 178.434 455.741 222.396 423.965 254.347ZM320.129 298.219C325.888 298.219 331.686 297.88 337.432 297.204C340.307 296.85 342.85 296.479 345.208 296.067C350.358 295.186 355.552 294.005 360.647 292.563C384.72 285.727 406.805 272.701 424.515 254.895C456.459 222.774 471.751 178.58 466.468 133.642C463.42 107.65 453.521 82.9353 437.843 62.1734C434.883 58.2296 431.609 54.3203 428.117 50.5535C425.874 48.1358 423.484 45.7375 421.017 43.4213C413.336 36.205 404.859 29.8002 395.822 24.3885C386.707 18.9142 376.998 14.4329 366.971 11.0676C362.609 9.6062 358.106 8.33261 353.583 7.28568C351.782 6.85394 350.108 6.49554 348.471 6.19116C333.625 3.27267 318.341 2.70071 303.042 4.49023C222.41 13.9861 164.523 87.3583 174.005 168.05C180.208 220.933 214.617 266.51 263.806 286.996C266.398 288.069 269.058 289.088 271.711 290.025C279.115 292.611 286.736 294.605 294.365 295.954C300.879 297.111 307.483 297.828 313.991 298.089C316.029 298.176 318.078 298.219 320.129 298.219Z" fill="#371A45"/>
<path d="M320.127 293.969C325.722 293.969 331.349 293.641 336.916 292.987C339.718 292.641 342.192 292.279 344.489 291.879C348.618 291.171 352.774 290.269 356.881 289.187C353.117 289.464 349.362 289.6 345.624 289.6C310.222 289.6 276.279 277.302 250.644 253.997C226.629 232.167 213.06 203.597 211.186 172.407C211.071 172.126 210.957 171.85 210.845 171.569C208.537 173.355 206.123 174.917 203.621 176.232C205.343 196.534 211.846 215.752 223.005 233.11C242.771 263.856 276.096 285.984 314.474 293.856C316.352 293.932 318.238 293.969 320.127 293.969ZM263.357 282.187C244.335 270.768 228.199 255.452 216.52 237.285C205.103 219.528 198.274 199.962 196.154 179.319C192.712 180.362 189.278 180.884 185.9 180.884C184.021 180.884 182.158 180.722 180.322 180.398C189.834 225.486 220.695 263.629 263.357 282.187ZM207.21 70.9486C208.798 66.055 210.64 61.2628 212.717 56.5937C208.942 60.9109 205.422 65.457 202.187 70.1931C203.882 70.3118 205.558 70.5622 207.21 70.9486Z" fill="#B9AFBE"/>
<path d="M422.123 252.511C404.82 269.907 383.243 282.633 359.724 289.309C354.748 290.721 349.67 291.874 344.636 292.735C342.326 293.139 339.839 293.501 337.022 293.849C329.421 294.743 321.712 295.034 314.133 294.712C307.77 294.458 301.319 293.756 294.954 292.627C287.501 291.308 280.058 289.359 272.826 286.833C270.237 285.92 267.634 284.923 265.098 283.872C217.041 263.859 183.419 219.326 177.359 167.657C168.095 88.8146 224.653 17.1239 303.437 7.8461C318.384 6.09543 333.319 6.65448 347.824 9.50607C349.435 9.80612 351.053 10.1536 352.802 10.5724C357.239 11.5999 361.639 12.8433 365.899 14.2724C375.693 17.56 385.177 21.9377 394.085 27.2868C402.918 32.5754 411.2 38.8333 418.707 45.8835C421.118 48.1479 423.452 50.4922 425.643 52.8537C429.055 56.5321 432.252 60.3507 435.144 64.2039C450.467 84.493 460.136 108.64 463.115 134.036C468.277 177.945 453.336 221.126 422.123 252.511ZM320.129 300.821C325.987 300.821 331.889 300.476 337.736 299.787C340.669 299.427 343.253 299.049 345.654 298.63C350.887 297.734 356.171 296.534 361.354 295.066C385.857 288.109 408.336 274.853 426.359 256.731C458.866 224.045 474.427 179.07 469.051 133.339C465.949 106.887 455.874 81.7342 439.918 60.6033C436.907 56.5925 433.576 52.6141 430.024 48.7825C427.74 46.3217 425.307 43.8781 422.794 41.5209C414.979 34.1793 406.354 27.6624 397.157 22.1535C387.882 16.5864 378.003 12.0252 367.797 8.59943C363.358 7.10995 358.772 5.81482 354.172 4.74844C352.345 4.31241 350.63 3.94327 348.948 3.63025C333.86 0.666443 318.304 0.0835571 302.74 1.90546C220.682 11.5675 161.773 86.2371 171.423 168.354C177.734 222.171 212.751 268.552 262.807 289.398C265.447 290.49 268.15 291.526 270.846 292.478C278.391 295.112 286.147 297.143 293.912 298.516C300.54 299.692 307.261 300.424 313.887 300.69C315.96 300.776 318.041 300.821 320.129 300.821Z" fill="#371A45"/>
<path d="M421.508 251.897C404.309 269.19 382.863 281.838 359.489 288.475C354.541 289.876 349.493 291.023 344.489 291.88C342.192 292.279 339.718 292.642 336.916 292.987C329.365 293.874 321.704 294.163 314.17 293.844C307.843 293.591 301.431 292.894 295.105 291.772C287.698 290.461 280.3 288.523 273.111 286.012C270.54 285.106 267.953 284.115 265.43 283.07C217.663 263.178 184.244 218.913 178.219 167.555C169.011 89.1874 225.229 17.9285 303.538 8.70679C318.395 6.96692 333.239 7.52383 347.658 10.356C349.26 10.656 350.865 10.9992 352.602 11.4137C357.017 12.4391 361.389 13.6738 365.623 15.0942C375.359 18.3602 384.785 22.7143 393.639 28.0288C402.42 33.2873 410.653 39.5063 418.111 46.5154C420.512 48.7669 422.831 51.0961 425.009 53.4425C428.4 57.0992 431.577 60.8963 434.452 64.7236C449.682 84.8939 459.293 108.892 462.254 134.137C467.385 177.78 452.534 220.703 421.508 251.897ZM320.129 301.688C326.022 301.688 331.956 301.341 337.837 300.648C340.79 300.285 343.387 299.905 345.803 299.485C351.064 298.584 356.378 297.376 361.592 295.899C386.236 288.901 408.845 275.569 426.974 257.341C459.669 224.467 475.319 179.233 469.912 133.237C466.792 106.631 456.66 81.3343 440.61 60.0803C437.584 56.048 434.232 52.0458 430.66 48.1927C428.361 45.7145 425.915 43.258 423.387 40.8878C415.527 33.5031 406.852 26.9495 397.603 21.4104C388.275 15.8087 378.338 11.2216 368.073 7.7764C363.606 6.27829 358.995 4.97662 354.366 3.90161C352.53 3.46341 350.803 3.09433 349.107 2.77701C333.94 -0.204071 318.294 -0.79126 302.641 1.04141C220.104 10.7618 160.856 85.8631 170.562 168.455C176.91 222.583 212.13 269.231 262.475 290.198C265.13 291.297 267.848 292.339 270.557 293.296C278.149 295.946 285.951 297.989 293.761 299.37C300.428 300.553 307.188 301.289 313.853 301.555C315.936 301.643 318.031 301.688 320.129 301.688Z" fill="#371A45"/>
<path d="M394.493 277.688C294.971 311.052 194.831 236.786 218.249 135.423C234.182 66.4607 313.951 28.8291 379.153 48.3864C426.607 62.6183 466.714 97.2904 464.776 177.039C464.776 177.039 458.471 212.21 442.562 232.171C426.652 252.132 407.814 268.857 407.814 268.857L394.493 277.688Z" fill="#371A45"/>
<path d="M218.254 135.423C194.834 236.784 294.976 311.048 394.494 277.691L397.192 275.897C301.613 265.328 227.156 184.224 248.928 81.2975C234.161 95.8424 223.174 114.143 218.254 135.423Z" fill="#220F2D"/>
<path d="M421.509 251.897C404.31 269.19 382.864 281.838 359.489 288.475C354.541 289.876 349.494 291.023 344.49 291.88C342.193 292.279 339.719 292.642 336.917 292.987C329.469 293.863 321.913 294.155 314.474 293.857C276.096 285.984 242.772 263.856 223.006 233.111C204.129 203.749 198.577 169.066 206.948 132.811C214.611 99.6417 236.407 71.1563 268.321 52.6049C303.263 32.2899 346.112 26.7574 382.941 37.8053C403.531 43.9812 420.942 53.1468 434.701 65.0538C449.784 85.1465 459.309 109.028 462.254 134.137C467.385 177.78 452.534 220.703 421.509 251.897ZM320.13 301.688C326.024 301.688 331.956 301.341 337.838 300.648C340.791 300.285 343.388 299.905 345.803 299.485C351.064 298.584 356.379 297.376 361.592 295.899C386.237 288.901 408.846 275.569 426.975 257.341C459.669 224.467 475.32 179.233 469.912 133.235C466.793 106.631 456.66 81.3343 440.611 60.0803L440.369 59.7608L440.067 59.4975C425.428 46.7356 406.954 36.9505 385.154 30.4119C346.323 18.7639 301.201 24.5663 264.447 45.9304C230.672 65.5654 207.582 95.8037 199.435 131.074C190.583 169.405 196.491 206.132 216.52 237.285C237.457 269.853 272.71 293.25 313.24 301.481L313.844 301.555C315.93 301.643 318.029 301.688 320.13 301.688Z" fill="#371A45"/>
<path d="M392.788 274.189C343.751 290.452 291.314 280.546 255.826 248.287C224.473 219.785 212.147 178.965 222.006 136.293C228.798 106.896 248.117 81.6509 276.408 65.2064C307.396 47.1947 345.392 42.2881 378.046 52.0819C434.548 69.0294 462.433 110.937 460.928 176.636C460.295 179.947 453.922 211.726 439.546 229.764C424.898 248.143 407.488 263.963 405.449 265.796L392.788 274.189ZM345.623 289.602C362.235 289.602 379.165 286.895 395.717 281.347L396.198 281.185L410.371 271.743C411.15 271.052 429.641 254.567 445.574 234.576C461.905 214.088 468.306 179.196 468.571 177.721L468.63 177.132C470.326 107.345 440.594 62.7866 380.259 44.6907C345.601 34.2946 305.332 39.4689 272.534 58.5319C242.382 76.06 221.769 103.058 214.493 134.553C203.987 180.029 217.164 223.564 250.643 253.999C276.278 277.304 310.221 289.602 345.623 289.602Z" fill="#371A45"/>
<path d="M156.898 154.863C160.497 164.137 166.699 171.375 175.044 174.852C194.544 182.973 218.355 167.463 228.229 140.214C229.042 137.969 229.741 135.712 230.313 133.462C236.742 108.366 228.69 83.5998 210.799 76.1482C191.298 68.0252 167.479 83.5264 157.605 110.784C151.954 126.38 152.092 142.447 156.898 154.863Z" fill="white"/>
<path d="M185.898 173.153C189.746 173.153 193.723 172.277 197.696 170.531C209.206 165.464 219.265 153.639 224.608 138.898C224.867 138.181 225.113 137.464 225.346 136.748C223.678 137.516 221.819 138.039 219.843 138.039C216.845 138.039 213.58 136.834 210.325 133.454C208.636 139.809 205.869 145.704 202.327 150.719C202.047 151.17 201.758 151.614 201.46 152.055C196.333 159.655 189.705 164.273 182.915 165.734C181.502 166.166 180.063 166.487 178.608 166.686C177.423 166.848 176.252 166.928 175.096 166.928C172.838 166.928 170.642 166.619 168.533 166.01C170.871 168.255 173.543 170.049 176.522 171.29C179.509 172.534 182.658 173.153 185.898 173.153Z" fill="#B9AFBE"/>
<path d="M199.944 77.8463C203.184 77.8463 206.333 78.468 209.32 79.7114C226.916 87.0421 233.775 113.593 224.608 138.897C219.266 153.638 209.206 165.463 197.697 170.53C190.378 173.748 183.058 174.009 176.522 171.29C158.926 163.957 152.067 137.408 161.234 112.104C166.574 97.3626 176.636 85.5376 188.146 80.4712C192.119 78.7249 196.094 77.8463 199.944 77.8463ZM185.9 180.885C190.799 180.885 195.818 179.786 200.8 177.593C214.402 171.607 225.721 158.463 231.858 141.526C242.407 112.406 233.626 81.4793 212.284 72.5879C203.755 69.0348 194.336 69.3175 185.042 73.4082C171.44 79.3919 160.121 92.538 153.984 109.473C143.435 138.595 152.216 169.522 173.558 178.413C177.514 180.062 181.662 180.885 185.9 180.885Z" fill="#371A45"/>
<path d="M147.984 129.775C147.259 152.342 160.947 168.687 178.554 166.284C196.163 163.88 211.024 143.636 211.746 121.069C212.471 98.5007 198.783 82.1555 181.176 84.5602C163.567 86.9649 148.706 107.209 147.984 129.775Z" fill="white"/>
<path d="M184.624 84.7288C190.437 84.7288 195.814 86.8335 200.337 90.9155C207.731 97.5879 211.743 108.573 211.344 121.059C210.626 143.401 195.892 163.511 178.499 165.885C171.387 166.852 164.783 164.797 159.39 159.934C151.997 153.261 147.985 142.274 148.384 129.79C149.102 107.446 163.836 87.3386 181.229 84.9619C182.375 84.8065 183.509 84.7288 184.624 84.7288ZM175.095 166.928C176.251 166.928 177.422 166.848 178.606 166.686C196.373 164.26 211.42 143.802 212.149 121.085C212.556 108.362 208.449 97.1475 200.877 90.3154C195.303 85.2879 188.47 83.1573 181.121 84.1632C163.355 86.5896 148.308 107.045 147.579 129.765C147.172 142.485 151.278 153.702 158.851 160.532C163.525 164.75 169.086 166.928 175.095 166.928Z" fill="#371A45"/>
<path d="M182.915 165.73C189.705 164.269 196.333 159.652 201.46 152.051C201.758 151.611 202.047 151.166 202.327 150.715C197.176 158.011 190.391 163.444 182.915 165.73Z" fill="#8C7B94"/>
<path d="M175.821 166.106C176.705 166.081 177.598 166.007 178.5 165.884C190.602 164.233 201.417 153.992 207.12 140.391C208.243 136.96 209.007 133.407 209.408 129.83C203.367 137.336 195.716 141.2 188.245 141.2C181.698 141.2 175.288 138.234 170.215 132.16C163.19 123.754 160.347 111.318 161.725 99.1087C161.005 99.9916 160.31 100.946 159.64 101.937C148.389 118.619 148.633 143.361 160.183 157.202C164.637 162.536 170.12 165.47 175.821 166.106Z" fill="#B9AFBE"/>
<path d="M178.207 166.24C179.773 166.24 181.348 166.07 182.914 165.733C190.39 163.447 197.175 158.014 202.326 150.717C204.332 147.499 205.928 144.015 207.119 140.39C201.416 153.992 190.601 164.233 178.499 165.884C177.597 166.007 176.704 166.08 175.82 166.106C176.611 166.197 177.409 166.24 178.207 166.24Z" fill="#371A45"/>
<path d="M186.758 86.3468C188.928 86.3468 191.024 86.7656 192.993 87.6031C205.805 93.0602 210.307 114.038 203.032 134.368C198.586 146.793 190.513 156.583 181.439 160.554C176.428 162.745 171.495 162.931 167.171 161.09C154.361 155.631 149.857 134.653 157.133 114.325C161.58 101.9 169.651 92.1103 178.725 88.1384C181.454 86.9447 184.161 86.3468 186.758 86.3468ZM173.409 170.076C177.049 170.076 180.796 169.258 184.528 167.624C195.511 162.819 205.143 151.359 210.292 136.969C219.066 112.453 212.794 87.6506 196.013 80.5033C189.685 77.8072 182.64 78.0036 175.637 81.0689C164.654 85.874 155.023 97.3343 149.872 111.724C141.1 136.239 147.37 161.042 164.151 168.19C167.106 169.448 170.219 170.076 173.409 170.076Z" fill="#371A45"/>
<path d="M440.425 191.308C440.585 190.85 440.74 190.39 440.893 189.924C441.57 187.843 442.194 185.671 442.761 183.422C442.895 182.904 443.013 182.388 443.128 181.868L443.13 181.836C443.96 177.199 444.823 171.066 445.218 164.068C446.423 142.961 443.438 113.979 422.73 94.3803C396.499 69.5559 365.297 63.9521 348.288 63.9521C340.189 63.9521 335.31 65.2213 335.711 66.292C335.711 66.292 395.535 88.4786 418.558 133.678C418.584 133.726 418.608 133.773 418.632 133.821C423.469 143.338 425.644 153.996 425.012 164.655C424.621 171.23 423.838 176.823 422.846 181.771C429.263 184.786 435.19 187.998 440.425 191.308Z" fill="#9B8DA2"/>
<path d="M267.38 135.492C274.592 135.492 282.12 131.369 286.781 124.079C293.59 113.429 291.707 100.056 282.575 94.2082C279.696 92.3625 276.436 91.4861 273.113 91.4861C265.9 91.4861 258.372 95.6113 253.711 102.901C246.902 113.552 248.785 126.925 257.917 132.772C260.797 134.618 264.056 135.492 267.38 135.492Z" fill="#9B8DA2"/>
<path d="M250.245 156.69C251.751 156.013 253.159 154.922 254.281 153.457C257.454 149.312 257.143 143.743 253.591 141.019C252.286 140.019 250.728 139.54 249.119 139.54C248.345 139.54 247.56 139.652 246.786 139.868C247.631 145.604 248.789 151.212 250.245 156.69Z" fill="#9B8DA2"/>
<path d="M246.572 157.506C247.799 157.506 249.052 157.227 250.245 156.692C248.789 151.213 247.631 145.605 246.785 139.87C244.784 140.431 242.86 141.698 241.41 143.591C238.24 147.736 238.548 153.303 242.101 156.027C243.406 157.029 244.965 157.506 246.572 157.506Z" fill="#918796"/>
<path d="M371.953 382.208C369.775 392.729 359.487 399.49 348.974 397.31C338.461 395.13 331.705 384.833 333.884 374.312C336.062 363.791 346.351 357.03 356.864 359.21C367.377 361.39 374.132 371.687 371.953 382.208Z" fill="white"/>
<path d="M356.192 393.698C362.122 392.429 367.054 387.775 368.361 381.463C368.67 379.967 368.763 378.46 368.644 376.98C365.443 379.615 361.418 381.215 357.148 381.4L356.192 393.698Z" fill="#B9AFBE"/>
<path d="M368.362 381.464C366.598 389.985 358.231 395.483 349.718 393.715C341.202 391.951 335.711 383.58 337.475 375.058C339.241 366.535 347.599 361.044 356.119 362.805C360.245 363.662 363.789 366.073 366.102 369.596C368.414 373.121 369.216 377.335 368.362 381.464ZM352.923 401.389C363.645 401.389 373.286 393.864 375.544 382.954C376.798 376.905 375.622 370.729 372.234 365.566C368.845 360.403 363.651 356.869 357.608 355.615C345.134 353.033 332.879 361.08 330.292 373.566C327.706 386.054 335.752 398.317 348.229 400.905C349.802 401.231 351.374 401.389 352.923 401.389Z" fill="#371A45"/>
<path d="M328.664 426.887L230.468 419.239C218.845 418.338 210.066 408.076 210.97 396.43L215.038 344.135C215.831 333.938 223.793 325.944 233.57 324.72C234.957 324.539 236.38 324.511 237.83 324.621L336.01 332.267C347.647 333.169 356.426 343.431 355.507 355.075L352.295 396.495L351.454 407.373C350.55 419.018 340.285 427.787 328.664 426.887Z" fill="white"/>
<path d="M134.281 330.364C134.281 330.364 121.249 330.101 117.317 345.151C114.81 354.746 120.207 365.677 120.207 365.677C120.207 365.677 156.113 385.901 217.671 386.208C217.671 386.208 237.192 369.019 219.209 351.519C219.209 351.519 163.099 346.796 134.281 330.364Z" fill="white"/>
<path d="M328.664 426.887L230.468 419.239C218.845 418.338 210.066 408.076 210.97 396.43L215.038 344.135C215.831 333.938 223.793 325.944 233.57 324.72C234.957 324.539 236.38 324.511 237.83 324.621L336.01 332.267C347.647 333.169 356.426 343.431 355.507 355.075L352.295 396.495L351.454 407.373C350.55 419.018 340.285 427.787 328.664 426.887Z" fill="white"/>
<path d="M134.281 330.364C134.281 330.364 121.249 330.101 117.317 345.151C114.81 354.746 120.207 365.677 120.207 365.677C120.207 365.677 156.113 385.901 217.671 386.208C217.671 386.208 237.192 369.019 219.209 351.519C219.209 351.519 163.099 346.796 134.281 330.364Z" fill="white"/>
<path d="M322.696 440.1C331.11 440.1 338.586 435.079 341.981 427.707C338.482 429.574 334.505 430.625 330.323 430.625C330.319 430.625 330.312 430.625 330.306 430.625C330.297 430.625 330.29 430.625 330.282 430.625C330.021 430.625 329.76 430.621 329.499 430.612C329.126 430.602 328.75 430.58 328.377 430.552L236.661 423.409L230.184 422.906C226.002 422.582 222.05 421.229 218.614 418.99C213.619 415.746 209.889 410.77 208.216 404.987C208.213 404.978 208.211 404.972 208.209 404.966C208.065 404.469 207.937 403.97 207.827 403.465H207.825C207.823 403.454 207.821 403.444 207.819 403.435C207.819 403.429 207.817 403.422 207.814 403.416C207.814 403.411 207.814 403.409 207.814 403.407C207.303 401.082 207.122 398.647 207.316 396.154L208.106 386C164.87 384.305 135.793 372.998 124.946 368.025C124.122 370.062 123.278 372.13 122.418 374.239C134.546 384.072 155.114 396.484 204.169 399.254L203.36 409.579C202.461 421.222 211.237 431.482 222.863 432.391L321.055 440.035C321.605 440.078 322.152 440.1 322.696 440.1Z" fill="#B9AFBE"/>
<path d="M122.417 374.239C123.278 372.13 124.121 370.062 124.945 368.025C123.545 367.381 122.447 366.844 121.664 366.447C121.015 368.031 120.29 369.786 119.468 371.772C120.396 372.571 121.375 373.395 122.417 374.239Z" fill="#371A45"/>
<path d="M210.855 350.625L211.146 346.861C210.374 347.973 209.705 349.162 209.153 350.418C209.742 350.491 210.309 350.56 210.855 350.625Z" fill="#B9AFBE"/>
<path d="M328.664 426.887L230.468 419.239C218.845 418.338 210.066 408.076 210.97 396.43L215.038 344.135C215.831 333.938 223.793 325.944 233.57 324.72C234.957 324.539 236.38 324.511 237.83 324.621L336.01 332.267C347.647 333.169 356.426 343.431 355.507 355.075L352.295 396.495L351.454 407.373C350.55 419.018 340.285 427.787 328.664 426.887Z" fill="white"/>
<path d="M332.603 423.127C335.929 422.684 339.067 421.294 341.692 419.047C345.264 415.986 347.432 411.74 347.794 407.09L348.497 398.026C339.227 401.59 325.366 405.594 306.437 405.594C305.924 405.594 305.406 405.592 304.886 405.586C280.742 405.31 266.092 400.917 257.137 393.353C251.585 390.939 247.575 384.923 246.74 377.692C244.547 371.324 243.58 364.041 243.076 356.045L239.791 398.305C239.426 402.954 240.91 407.485 243.967 411.062C247.023 414.637 251.263 416.804 255.907 417.163L332.603 423.127Z" fill="#B9AFBE"/>
<path d="M236.17 328.223C236.626 328.223 237.083 328.24 237.542 328.277L335.731 335.922C345.373 336.674 352.607 345.133 351.857 354.785L347.793 407.089C347.431 411.738 345.263 415.984 341.691 419.045C338.119 422.104 333.594 423.576 328.944 423.229L230.757 415.583C221.113 414.832 213.879 406.37 214.629 396.721L218.695 344.417C219.409 335.227 227.109 328.223 236.17 328.223ZM330.322 430.622C343.173 430.622 354.093 420.69 355.107 407.656L359.173 355.352C360.236 341.667 349.976 329.667 336.301 328.603L238.112 320.957C231.509 320.447 225.088 322.547 220.026 326.88C214.966 331.214 211.894 337.241 211.381 343.847L207.315 396.151C206.252 409.839 216.512 421.839 230.187 422.903L328.376 430.549C329.028 430.598 329.679 430.622 330.322 430.622Z" fill="#371A45"/>
<path d="M332.633 426.809C331.339 426.975 330.021 427.001 328.662 426.889L230.467 419.241C221.949 418.574 214.961 412.899 212.195 405.307C211.186 402.55 210.733 399.541 210.983 396.435L212.78 373.201L213.373 365.534L215.036 344.137C215.94 332.491 226.205 323.721 237.828 324.623L259.046 326.281C249.122 327.365 241.003 335.412 240.197 345.711L237.992 373.959L236.126 398.021C235.225 409.652 244.001 419.927 255.623 420.829L332.633 426.809Z" fill="white"/>
<path d="M238.712 416.2C238.605 416.079 238.499 415.958 238.393 415.833C234.06 410.765 231.959 404.336 232.477 397.731L234.064 377.291C231.963 378.726 229.811 379.603 227.697 379.603C227.257 379.603 226.817 379.566 226.381 379.486C225.402 379.311 224.483 379.024 223.62 378.646C220.983 383.296 217.672 386.208 217.672 386.208C216.928 386.204 216.19 386.197 215.454 386.189L214.635 396.718V396.721C214.27 401.372 215.754 405.903 218.813 409.48C221.869 413.055 226.107 415.222 230.751 415.583L238.712 416.2Z" fill="#B9AFBE"/>
<path d="M244.743 328.836C240.11 332.993 237.054 338.858 236.543 345.429L232.477 397.731C231.959 404.336 234.06 410.765 238.393 415.833C238.499 415.958 238.605 416.079 238.713 416.2L230.751 415.583C226.108 415.222 221.869 413.055 218.813 409.48C215.754 405.903 214.27 401.372 214.635 396.721V396.718L218.701 344.417C219.061 339.765 221.226 335.519 224.798 332.46C228.37 329.401 232.891 327.907 237.55 328.274L244.743 328.836ZM330.282 430.622C331.214 430.622 332.15 430.568 333.078 430.456L332.922 423.151L255.908 417.161C251.264 416.802 247.023 414.635 243.967 411.06C240.911 407.484 239.427 402.953 239.791 398.303L243.857 345.997C244.508 337.602 251.063 330.839 259.441 329.919L259.326 322.61L238.117 320.954C231.513 320.441 225.09 322.547 220.029 326.882C214.967 331.217 211.896 337.244 211.387 343.851L207.321 396.149C206.803 402.754 208.904 409.185 213.237 414.255C217.568 419.322 223.588 422.393 230.184 422.903L328.38 430.544C329.01 430.596 329.646 430.622 330.282 430.622Z" fill="#371A45"/>
<path d="M276.848 375.303C276.686 377.235 272.668 392.613 272.668 392.613C272.668 392.613 267.729 392.201 261.664 391.694C254.086 391.059 248.599 382.692 249.408 373.008C250.217 363.321 257.015 355.983 264.593 356.618C269.707 357.045 275.597 357.538 275.597 357.538C275.597 357.538 277.111 372.154 276.848 375.303Z" fill="#22A7F0"/>
<path d="M265.52 389.253C262.24 386.084 260.221 381.009 260.337 375.362C260.348 374.887 260.372 374.41 260.413 373.929C260.933 367.712 263.92 362.46 267.997 359.667L264.362 359.362C264.138 359.343 263.911 359.334 263.685 359.334C261.116 359.334 258.575 360.554 256.479 362.814C254.028 365.46 252.49 369.162 252.15 373.238C251.468 381.395 255.84 388.443 261.893 388.951L265.52 389.253Z" fill="#2976B4"/>
<path d="M274.107 375.073C273.997 376.141 272.321 382.969 270.589 389.68L261.892 388.953C255.84 388.446 251.468 381.398 252.149 373.24C252.49 369.164 254.028 365.462 256.478 362.816C258.758 360.355 261.566 359.129 264.362 359.364L273.088 360.094C273.632 365.672 274.26 373.225 274.107 375.073ZM274.743 395.552L275.33 393.313C276.285 389.652 279.421 377.549 279.589 375.535C279.866 372.223 278.492 358.779 278.334 357.257L278.099 354.987L264.821 353.877C260.3 353.497 255.9 355.341 252.445 359.073C249.16 362.617 247.108 367.485 246.666 372.78C245.732 383.964 252.356 393.68 261.433 394.44L274.743 395.552Z" fill="#371A45"/>
<path d="M287.853 376.224C287.044 385.909 280.245 393.249 272.668 392.614C265.091 391.979 259.603 383.615 260.412 373.929C261.221 364.243 268.02 356.904 275.597 357.538C283.174 358.173 288.661 366.538 287.853 376.224Z" fill="#22A7F0"/>
<path d="M275.546 392.479C280.847 391.517 285.377 386.725 287.141 380.264C285.375 386.72 280.843 391.51 275.548 392.475C275.548 392.477 275.546 392.477 275.546 392.479Z" fill="#B9AFBE"/>
<path d="M265.526 389.257C262.243 386.088 260.222 381.013 260.336 375.364C260.22 381.011 262.239 386.086 265.519 389.255L265.526 389.257Z" fill="#2E568D"/>
<path d="M273.58 392.656C274.245 392.656 274.9 392.596 275.545 392.479C275.545 392.477 275.547 392.477 275.547 392.475C274.9 392.594 274.245 392.654 273.58 392.654C273.278 392.654 272.974 392.641 272.668 392.615C269.954 392.389 267.511 391.171 265.526 389.257L265.52 389.255C267.504 391.171 269.95 392.391 272.664 392.62C272.97 392.645 273.276 392.656 273.58 392.656Z" fill="#371A45"/>
<path d="M273.581 392.652C274.246 392.652 274.901 392.592 275.548 392.473C280.844 391.508 285.375 386.718 287.142 380.262C287.493 378.975 287.735 377.62 287.851 376.219C287.966 374.913 287.955 373.622 287.838 372.372C285.466 378.518 280.481 382.72 274.959 382.72C274.653 382.72 274.345 382.707 274.034 382.679C267.49 382.133 262.497 375.819 261.796 367.854C261.071 369.721 260.601 371.767 260.413 373.93C260.372 374.412 260.349 374.889 260.338 375.362C260.223 381.011 262.244 386.086 265.527 389.255C267.512 391.169 269.955 392.387 272.669 392.613C272.975 392.639 273.279 392.652 273.581 392.652Z" fill="#2976B4"/>
<path d="M260.413 373.932C260.354 374.593 260.331 375.244 260.344 375.89C262.481 368.427 268.335 363.266 274.735 363.806C281.794 364.404 287.051 371.709 287.055 380.544C287.456 379.167 287.721 377.725 287.851 376.22C288.664 366.541 283.175 358.17 275.6 357.535C268.022 356.911 261.226 364.242 260.413 373.932Z" fill="white"/>
<path d="M285.111 375.997C284.43 384.154 278.94 390.36 272.897 389.872C270.093 389.637 267.535 387.964 265.695 385.158C263.717 382.14 262.813 378.235 263.154 374.16C263.835 366.002 269.333 359.779 275.368 360.284C278.17 360.519 280.728 362.192 282.57 365.001C284.548 368.016 285.45 371.923 285.111 375.997ZM273.567 395.407C282.182 395.407 289.699 387.174 290.594 376.456C291.036 371.161 289.82 366.019 287.169 361.979C284.38 357.726 280.353 355.174 275.826 354.797C266.739 354.035 258.605 362.518 257.671 373.7C257.229 378.997 258.445 384.137 261.094 388.178C263.883 392.433 267.912 394.982 272.439 395.36C272.817 395.392 273.194 395.407 273.567 395.407Z" fill="#371A45"/>
<path d="M298.169 426.885C299.565 426.885 300.76 425.829 300.904 424.411L304.135 392.58C304.321 390.762 305.397 389.169 307.013 388.321L316.775 383.187C320.109 381.435 322.284 378.145 322.588 374.389L326.069 331.533C326.192 330.018 325.064 328.688 323.55 328.565C322.036 328.459 320.709 329.571 320.586 331.086L317.105 373.942C316.952 375.807 315.873 377.441 314.217 378.313L304.454 383.444C301.2 385.156 299.034 388.362 298.661 392.025L295.43 423.854C295.277 425.365 296.377 426.716 297.889 426.872C297.984 426.88 298.077 426.885 298.169 426.885Z" fill="#371A45"/>
<path d="M134.281 330.364C134.281 330.364 121.249 330.101 117.317 345.151C114.81 354.746 120.207 365.677 120.207 365.677C120.207 365.677 156.113 385.901 217.671 386.208C217.671 386.208 237.192 369.019 219.209 351.519C219.209 351.519 163.099 346.796 134.281 330.364Z" fill="white"/>
<path d="M119.074 362.967V362.965C118.664 361.859 118.2 360.469 117.788 358.889C118.2 360.469 118.664 361.862 119.074 362.967Z" fill="#8C7B94"/>
<path d="M121.665 366.445V366.443C120.699 365.953 120.207 365.677 120.207 365.677C120.207 365.677 119.704 364.656 119.075 362.966V362.969C119.702 364.661 120.205 365.679 120.205 365.679C120.205 365.679 120.697 365.958 121.665 366.445Z" fill="#371A45"/>
<path d="M208.105 385.996C164.872 384.302 135.795 372.992 124.948 368.017L124.946 368.021C135.793 372.995 164.87 384.302 208.105 385.996Z" fill="#8C7B94"/>
<path d="M124.946 368.021L124.948 368.017C123.546 367.374 122.45 366.839 121.665 366.442V366.444C122.448 366.841 123.546 367.378 124.946 368.021Z" fill="#371A45"/>
<path d="M223.62 378.65C226.158 374.18 228.076 368.105 225.837 361.472C225.837 361.476 225.835 361.481 225.835 361.483C228.067 368.11 226.152 374.182 223.618 378.648L223.62 378.65Z" fill="#B9AFBE"/>
<path d="M217.671 386.208C217.671 386.208 220.982 383.296 223.62 378.646L223.617 378.644C220.98 383.294 217.671 386.206 217.671 386.206C216.927 386.202 216.189 386.195 215.454 386.186V386.189C216.189 386.197 216.927 386.204 217.671 386.208Z" fill="#8C7B94"/>
<path d="M215.455 386.19V386.188C212.961 386.156 210.515 386.091 208.11 385.998C210.515 386.093 212.961 386.158 215.455 386.19Z" fill="#371A45"/>
<path d="M117.133 345.912C117.189 345.657 117.25 345.405 117.317 345.15C117.342 345.053 117.366 344.958 117.392 344.861C117.366 344.958 117.34 345.055 117.317 345.15C117.25 345.403 117.189 345.657 117.133 345.912Z" fill="#8C7B94"/>
<path d="M217.67 386.208C217.67 386.208 220.979 383.296 223.617 378.646C226.151 374.18 228.067 368.108 225.834 361.481C225.811 361.55 225.787 361.617 225.763 361.686C223.274 368.704 216.54 373.319 209.142 373.319C208.913 373.319 208.685 373.314 208.454 373.306C152.65 371.149 120.385 352.978 120.385 352.978C120.385 352.978 118.575 349.308 117.538 344.365C117.488 344.529 117.439 344.695 117.391 344.861C117.365 344.959 117.342 345.053 117.316 345.151C117.249 345.405 117.188 345.658 117.132 345.913C116.151 350.435 116.826 355.182 117.788 358.89C118.2 360.471 118.664 361.861 119.074 362.966C119.703 364.656 120.206 365.677 120.206 365.677C120.206 365.677 120.698 365.953 121.664 366.443C122.449 366.841 123.545 367.376 124.947 368.019C135.794 372.995 164.871 384.304 208.105 385.999H208.109C210.514 386.091 212.96 386.156 215.453 386.189C216.189 386.197 216.926 386.204 217.67 386.208Z" fill="#B9AFBE"/>
<path d="M137.62 332.156H137.609H137.62ZM132.346 334.55C133.563 334.55 134.805 334.845 135.964 335.433C160.477 347.845 199.023 353.067 214.458 354.735C216.662 354.973 218.649 356.134 219.906 357.919C224.587 364.557 224.237 371.741 218.871 379.268C217.402 381.328 215.014 382.513 212.454 382.461C167.049 381.379 136.852 369.507 125.977 364.451C124.012 363.538 122.522 361.865 121.888 359.866C120.734 356.216 119.616 350.86 120.865 346.079C122.299 340.592 125.246 336.894 129.622 335.083C130.483 334.727 131.408 334.55 132.346 334.55ZM212.642 389.807C217.488 389.807 222.029 387.48 224.844 383.531C232.009 373.483 232.384 362.882 225.9 353.686C223.429 350.178 219.546 347.901 215.247 347.435C203.516 346.168 163.369 341.08 139.274 328.881C135.312 326.874 130.772 326.66 126.818 328.298C122.271 330.178 116.316 334.47 113.769 344.223C112.076 350.699 113.447 357.509 114.895 362.085C116.146 366.042 119.06 369.33 122.886 371.111C134.18 376.358 165.496 388.686 212.279 389.802C212.4 389.804 212.521 389.807 212.642 389.807Z" fill="#371A45"/>
<path d="M400.358 287.166C404.525 276.312 356.357 258.519 335.487 252.22C288.093 237.914 277.571 201.677 292.819 180.512C321.447 140.776 424.457 172.557 454.835 202.379C465.668 213.012 489.122 239.13 483.27 280.293L400.358 287.166Z" fill="white"/>
<path d="M343.802 254.873C340.743 253.85 337.926 252.956 335.487 252.22C313.967 245.725 300.049 234.707 292.694 222.634C300.049 234.709 313.963 245.727 335.483 252.222C337.926 252.958 340.741 253.852 343.802 254.873ZM292.689 222.625C292.679 222.606 292.666 222.584 292.653 222.565C292.666 222.584 292.679 222.606 292.689 222.625ZM292.64 222.543C292.631 222.53 292.622 222.513 292.614 222.5C292.622 222.515 292.631 222.528 292.64 222.543Z" fill="#371A45"/>
<path d="M400.52 284.908C439.163 266.301 369.719 245.491 349.649 240.045C310.08 229.302 289.333 210.439 287.01 193.885C285.198 202.958 286.9 213.047 292.613 222.498C292.622 222.511 292.631 222.528 292.639 222.541C292.644 222.547 292.648 222.556 292.652 222.562C292.665 222.582 292.678 222.603 292.689 222.623C292.691 222.625 292.693 222.627 292.693 222.631C300.048 234.705 313.967 245.722 335.486 252.218C337.926 252.954 340.743 253.848 343.801 254.871C365.17 261.996 398.522 275.358 400.52 284.908Z" fill="#B9AFBE"/>
<path d="M399.736 285.97L400.608 285.737C400.61 285.685 400.608 285.633 400.605 285.583C400.601 285.476 400.59 285.368 400.577 285.26C400.299 285.497 400.016 285.734 399.736 285.97Z" fill="#371A45"/>
<path d="M395.526 287.094L396.711 286.779C396.716 286.729 396.722 286.679 396.729 286.632C396.34 286.787 395.939 286.941 395.526 287.094Z" fill="#8C7B94"/>
<path d="M396.71 286.781L399.736 285.972C400.017 285.737 400.299 285.499 400.578 285.262C400.563 285.145 400.543 285.029 400.517 284.912C399.396 285.499 398.134 286.073 396.728 286.634C396.721 286.682 396.715 286.732 396.71 286.781Z" fill="#371A45"/>
<path d="M400.606 285.583C400.599 285.359 400.569 285.134 400.52 284.908C400.52 284.908 400.52 284.91 400.517 284.91C400.543 285.026 400.563 285.143 400.578 285.259C400.591 285.367 400.602 285.475 400.606 285.583Z" fill="#B9AFBE"/>
<path d="M400.358 290.839C401.831 290.839 403.222 289.943 403.783 288.484C404.335 287.046 404.704 284.741 403.33 281.932C395.908 266.772 338.965 249.436 336.545 248.706C313.652 241.797 297.386 228.568 291.919 212.413C288.351 201.875 289.764 191.03 295.795 182.661C302.731 173.033 314.961 167.406 332.149 165.938C373.07 162.438 431.329 184.448 452.266 205C474.395 226.723 483.603 251.88 479.638 279.776C479.353 281.783 480.747 283.642 482.753 283.929C484.757 284.21 486.616 282.817 486.901 280.81C491.213 250.474 481.289 223.206 457.404 199.759C434.916 177.685 375.031 154.905 331.524 158.622C312.11 160.28 298.087 166.924 289.844 178.365C282.409 188.685 280.634 201.952 284.969 214.768C291.209 233.201 309.234 248.132 334.427 255.735C361.462 263.895 392.974 277.466 396.743 285.164C396.917 285.522 396.965 285.77 396.935 285.85C396.208 287.743 397.15 289.867 399.042 290.595C399.475 290.761 399.92 290.839 400.358 290.839Z" fill="#371A45"/>
<path d="M67.511 248.386C68.0847 248.386 68.6649 248.233 69.189 247.913C108.971 223.704 123.757 164.151 124.367 161.628C124.788 159.89 123.722 158.142 121.984 157.721C120.25 157.3 118.5 158.368 118.08 160.104C117.935 160.697 103.294 219.581 65.8286 242.38C64.3015 243.309 63.8162 245.301 64.7436 246.829C65.354 247.831 66.4196 248.386 67.511 248.386Z" fill="#371A45"/>
<path d="M390.052 277.936H390.076C411.006 277.789 429.808 267.073 441.658 248.539C453.027 230.761 455.471 209.513 448.038 193.086C447.303 191.458 445.387 190.735 443.757 191.471C442.128 192.209 441.408 194.128 442.143 195.758C448.683 210.208 446.41 229.096 436.21 245.049C425.559 261.703 408.729 271.328 390.03 271.46C388.242 271.473 386.804 272.934 386.816 274.721C386.829 276.502 388.275 277.936 390.052 277.936Z" fill="#371A45"/>
<path d="M310.927 507.717C312.381 507.717 313.701 506.73 314.066 505.256C320.884 477.731 390.472 465.297 416.709 462.828C418.488 462.662 419.795 461.081 419.629 459.303C419.461 457.522 417.882 456.212 416.105 456.38C412.067 456.76 317.098 466.1 307.785 503.7C307.355 505.435 308.412 507.19 310.146 507.62C310.407 507.684 310.671 507.717 310.927 507.717Z" fill="#371A45"/>
<path d="M167.576 515.489C169.673 515.489 171.616 515.403 173.38 515.228C175.16 515.051 176.456 513.464 176.279 511.684C176.102 509.907 174.524 508.603 172.74 508.785C147.642 511.289 85.279 494.723 80.0744 473.568C79.6452 471.833 77.8895 470.769 76.1575 471.198C74.4233 471.628 73.3621 473.381 73.7892 475.118C77.7298 491.123 102.711 501.525 117.253 506.302C134.53 511.977 154.134 515.489 167.576 515.489Z" fill="#371A45"/>
<path d="M424.081 538.306C423.343 538.105 422.838 537.993 422.245 537.863C421.667 537.725 421.111 537.656 420.541 537.552C419.413 537.375 418.287 537.228 417.17 537.142C414.931 536.911 412.703 536.894 410.484 536.892C406.045 536.965 401.658 537.431 397.335 538.161C393.019 538.925 388.759 539.897 384.637 541.323C383.598 541.63 382.584 542.04 381.572 542.448C380.559 542.843 379.549 543.249 378.553 543.687C376.568 544.587 374.627 545.593 372.736 546.696C374.946 546.644 377.09 546.446 379.219 546.232C381.363 546.096 383.464 545.833 385.569 545.645L391.846 545.077C392.888 545 393.921 544.855 394.96 544.795L398.075 544.6C402.218 544.389 406.345 544.283 410.43 544.415C412.47 544.462 414.504 544.579 416.506 544.741C417.513 544.812 418.501 544.933 419.487 545.032L420.938 545.218C421.393 545.274 421.935 545.362 422.235 545.412L422.521 545.459C424.519 545.788 426.404 544.436 426.732 542.437C427.04 540.572 425.862 538.798 424.081 538.306Z" fill="#371A45"/>
<path d="M108.986 555.657C107.468 550.809 104.358 546.522 100.687 542.902C97.0003 539.239 92.5183 536.428 87.786 534.194C85.3681 533.229 82.9416 532.186 80.4072 531.562C79.1476 531.228 77.8944 530.796 76.6088 530.595L72.7566 529.935C71.4711 529.678 70.1769 529.622 68.8828 529.54C67.5886 529.449 66.2945 529.376 64.9982 529.317C62.4185 529.322 59.8432 529.512 57.2786 529.68C55.2619 529.814 53.7348 531.558 53.8685 533.574C53.9936 535.487 55.566 536.959 57.4446 536.996L57.8329 537.002C60.1882 537.039 62.535 536.953 64.8709 536.944C66.0335 537.022 67.1961 537.084 68.3608 537.127C69.5256 537.171 70.6924 537.205 71.8313 537.399L75.2845 537.814C75.8669 537.861 76.4277 537.995 76.9906 538.12L78.686 538.466C80.9917 538.811 83.1443 539.631 85.3961 540.219C89.766 541.736 93.9289 543.817 97.9106 546.343C101.877 548.903 105.617 551.936 108.986 555.657Z" fill="#371A45"/>
<defs>
<linearGradient id="paint0_linear_3362_20489" x1="353.21" y1="2" x2="469.871" y2="405.529" gradientUnits="userSpaceOnUse">
<stop stop-color="#1DA1F2"/>
<stop offset="1" stop-color="#003CC5"/>
</linearGradient>
</defs>
</svg>
