<svg width="277" height="73" viewBox="0 0 277 73" fill="none" xmlns="http://www.w3.org/2000/svg">
<path fill-rule="evenodd" clip-rule="evenodd" d="M117.423 36.2331C117.423 41.0358 116.827 45.1437 115.637 48.5569C114.446 51.9701 112.737 54.756 110.509 56.9145C108.282 59.0731 105.574 60.6582 102.387 61.67C99.1989 62.6819 95.4032 63.1878 90.9993 63.1878H79.1319C78.287 63.1878 77.5765 62.9247 77.0004 62.3985C76.4243 61.8724 76.1362 61.0157 76.1362 59.8285V14.1755C76.1362 12.9883 76.4243 12.1317 77.0004 11.6055C77.5765 11.0794 78.287 10.8163 79.1319 10.8163H91.8826C96.3121 10.8163 100.069 11.3627 103.155 12.4554C106.24 13.5482 108.839 15.1671 110.951 17.3121C113.063 19.4572 114.67 22.1081 115.771 25.265C116.872 28.4219 117.423 32.0778 117.423 36.2331ZM106.976 36.5957C106.976 34.1134 106.701 31.8065 106.151 29.6749C105.6 27.5434 104.717 25.6951 103.501 24.1302C102.284 22.5653 100.723 21.3443 98.8152 20.4674C96.9077 19.5905 94.4049 19.1521 91.3068 19.1521H86.1988V54.7679H91.4605C94.2257 54.7679 96.5556 54.3902 98.4503 53.6347C100.345 52.8792 101.926 51.7392 103.193 50.2148C104.461 48.6903 105.408 46.7948 106.035 44.5284C106.663 42.2619 106.976 39.6177 106.976 36.5957ZM178.026 60.4739C177.873 61.1215 177.661 61.6409 177.392 62.0321C177.124 62.4234 176.72 62.7202 176.183 62.9225C175.645 63.1249 174.954 63.2598 174.109 63.3272C173.264 63.3947 172.189 63.4284 170.883 63.4284C169.423 63.4284 168.252 63.3947 167.369 63.3272C166.485 63.2598 165.788 63.1249 165.275 62.9225C164.763 62.7202 164.392 62.4234 164.162 62.0321C163.931 61.6409 163.752 61.1215 163.624 60.4739L155.674 27.2864H155.597L148.07 60.4739C147.942 61.0945 147.762 61.6004 147.532 61.9917C147.302 62.3829 146.937 62.6864 146.437 62.9023C145.938 63.1181 145.26 63.2598 144.402 63.3272C143.544 63.3947 142.411 63.4284 141.003 63.4284C139.518 63.4284 138.334 63.3947 137.45 63.3272C136.567 63.2598 135.869 63.1249 135.357 62.9225C134.845 62.7202 134.474 62.4234 134.244 62.0321C134.013 61.6409 133.821 61.1215 133.667 60.4739L122.376 14.7804C122.146 13.8091 122.018 13.0469 121.992 12.4937C121.966 11.9406 122.114 11.5156 122.434 11.2188C122.754 10.922 123.279 10.7399 124.008 10.6725C124.738 10.605 125.756 10.5713 127.062 10.5713C128.265 10.5713 129.219 10.5915 129.923 10.632C130.627 10.6725 131.158 10.7669 131.517 10.9153C131.875 11.0637 132.118 11.2796 132.246 11.5629C132.374 11.8462 132.477 12.2442 132.554 12.7568L141.272 52.8651H141.31L150.374 13.0401C150.476 12.5275 150.611 12.1092 150.777 11.7855C150.944 11.4617 151.225 11.2121 151.622 11.0367C152.019 10.8613 152.563 10.7399 153.254 10.6725C153.946 10.605 154.867 10.5713 156.02 10.5713C157.249 10.5713 158.228 10.5983 158.958 10.6522C159.687 10.7062 160.251 10.8209 160.648 10.9963C161.044 11.1716 161.332 11.4212 161.512 11.745C161.691 12.0688 161.832 12.5005 161.934 13.0401L171.305 52.8651H171.382L180.1 12.8782C180.177 12.4465 180.279 12.0755 180.407 11.7652C180.535 11.4549 180.779 11.2121 181.137 11.0367C181.496 10.8613 182.008 10.7399 182.673 10.6725C183.339 10.605 184.274 10.5713 185.477 10.5713C186.603 10.5713 187.48 10.605 188.108 10.6725C188.735 10.7399 189.189 10.922 189.471 11.2188C189.753 11.5156 189.874 11.9541 189.836 12.5342C189.798 13.1143 189.663 13.9035 189.433 14.9019L178.026 60.4739ZM226.457 59.0191C226.457 59.8016 226.425 60.4559 226.361 60.982C226.297 61.5082 226.201 61.9331 226.073 62.2569C225.945 62.5807 225.785 62.8168 225.593 62.9652C225.401 63.1136 225.19 63.1878 224.959 63.1878H199.996C199.151 63.1878 198.44 62.9247 197.864 62.3985C197.288 61.8724 197 61.0157 197 59.8285V14.1755C197 12.9883 197.288 12.1317 197.864 11.6055C198.44 11.0794 199.151 10.8163 199.996 10.8163H224.806C225.036 10.8163 225.241 10.8837 225.42 11.0187C225.6 11.1536 225.753 11.3897 225.881 11.7269C226.009 12.0642 226.105 12.4959 226.169 13.022C226.233 13.5482 226.265 14.216 226.265 15.0254C226.265 15.7809 226.233 16.4217 226.169 16.9479C226.105 17.474 226.009 17.899 225.881 18.2228C225.753 18.5466 225.6 18.7826 225.42 18.931C225.241 19.0794 225.036 19.1536 224.806 19.1536H207.062V31.943H222.079C222.309 31.943 222.521 32.0172 222.713 32.1656C222.905 32.314 223.065 32.5433 223.193 32.8536C223.321 33.1639 223.417 33.5821 223.481 34.1082C223.545 34.6344 223.577 35.2752 223.577 36.0307C223.577 36.8132 223.545 37.4607 223.481 37.9734C223.417 38.486 223.321 38.8975 223.193 39.2078C223.065 39.5181 222.905 39.7407 222.713 39.8756C222.521 40.0105 222.309 40.0779 222.079 40.0779H207.062V54.8504H224.959C225.19 54.8504 225.401 54.9246 225.593 55.073C225.785 55.2214 225.945 55.4575 226.073 55.7813C226.201 56.1051 226.297 56.53 226.361 57.0562C226.425 57.5823 226.457 58.2366 226.457 59.0191ZM276.653 36.2331C276.653 41.0358 276.058 45.1437 274.867 48.5569C273.677 51.9701 271.968 54.756 269.74 56.9145C267.513 59.0731 264.805 60.6582 261.617 61.67C258.43 62.6819 254.634 63.1878 250.23 63.1878H238.363C237.518 63.1878 236.807 62.9247 236.231 62.3985C235.655 61.8724 235.367 61.0157 235.367 59.8285V14.1755C235.367 12.9883 235.655 12.1317 236.231 11.6055C236.807 11.0794 237.518 10.8163 238.363 10.8163H251.113C255.543 10.8163 259.3 11.3627 262.385 12.4554C265.471 13.5482 268.069 15.1671 270.182 17.3121C272.294 19.4572 273.901 22.1081 275.002 25.265C276.103 28.4219 276.653 32.0778 276.653 36.2331ZM266.207 36.5957C266.207 34.1134 265.931 31.8065 265.381 29.6749C264.83 27.5434 263.947 25.6951 262.731 24.1302C261.515 22.5653 259.953 21.3443 258.045 20.4674C256.138 19.5905 253.635 19.1521 250.537 19.1521H245.429V54.7679H250.691C253.456 54.7679 255.786 54.3902 257.68 53.6347C259.575 52.8792 261.156 51.7392 262.424 50.2148C263.691 48.6903 264.638 46.7948 265.266 44.5284C265.893 42.2619 266.207 39.6177 266.207 36.5957Z" fill="white"/>
<path fill-rule="evenodd" clip-rule="evenodd" d="M63.0142 38.2573C63.0142 30.3808 60.6041 23.1081 56.6234 16.9331C49.9077 6.6964 38.3447 0 25.2111 0C22.2594 0 19.5244 0.329331 16.8164 0.96055C10.3986 2.33276 4.71185 5.43397 0 9.68783V55.3551C7.44689 55.3551 13.8377 50.4151 16.004 43.5266C15.8416 43.1973 15.6249 42.8954 15.3271 42.6484L7.01362 35.3208C5.14512 33.6741 6.14707 30.6004 8.63839 30.3808L19.6598 29.3379C20.7159 29.2282 21.6095 28.5969 22.0157 27.6364L26.4297 17.482C27.4046 15.1767 30.6541 15.1767 31.656 17.482L36.0429 27.6364C36.4762 28.5969 37.3698 29.2282 38.3989 29.3379L49.4473 30.3808C51.9387 30.6004 52.9406 33.6741 51.0721 35.3208L42.7316 42.6484C41.9463 43.3345 41.6213 44.3774 41.838 45.3928L44.2751 56.2059C44.8167 58.621 42.19 60.5421 40.0236 59.2796L30.4916 53.6261C29.598 53.1047 27.4316 52.9126 26.3484 53.2145L24.3716 53.8182L22.1511 54.5592L19.8223 55.5198C12.8628 58.3465 2.95168 66.0858 0.64991 72.6999H42.1088C47.985 69.7085 52.9948 65.1802 56.6234 59.609C60.7125 53.5438 63.0142 46.2985 63.0142 38.3671C63.0142 38.3671 63.0142 38.3671 63.0142 38.2573Z" fill="url(#paint0_linear_3545_2975)"/>
<defs>
<linearGradient id="paint0_linear_3545_2975" x1="10.5326" y1="-1.92062e-07" x2="27.3361" y2="58.0863" gradientUnits="userSpaceOnUse">
<stop stop-color="#1DA1F2"/>
<stop offset="1" stop-color="#003CC5"/>
</linearGradient>
</defs>
</svg>
