<svg width="48" height="48" viewBox="0 0 48 48" fill="none" xmlns="http://www.w3.org/2000/svg">
<path d="M44 12V16.84C44 20 42 22 38.84 22H32V8.02C32 5.8 33.82 4 36.04 4C38.22 4.02 40.22 4.9 41.66 6.34C43.1 7.8 44 9.8 44 12Z" stroke="url(#paint0_linear_4292_4021)" stroke-width="1.5" stroke-miterlimit="10" stroke-linecap="round" stroke-linejoin="round"/>
<path d="M4 14V42C4 43.66 5.87995 44.6 7.19995 43.6L10.62 41.04C11.42 40.44 12.54 40.52 13.26 41.24L16.58 44.58C17.36 45.36 18.64 45.36 19.42 44.58L22.78 41.22C23.48 40.52 24.6 40.44 25.38 41.04L28.8 43.6C30.12 44.58 32 43.64 32 42V8C32 5.8 33.8 4 36 4H14H12C6 4 4 7.58 4 12V14Z" stroke="url(#paint1_linear_4292_4021)" stroke-width="1.5" stroke-miterlimit="10" stroke-linecap="round" stroke-linejoin="round"/>
<defs>
<linearGradient id="paint0_linear_4292_4021" x1="34.0058" y1="4" x2="39.1412" y2="17.6538" gradientUnits="userSpaceOnUse">
<stop stop-color="#1DA1F2"/>
<stop offset="1" stop-color="#003CC5"/>
</linearGradient>
<linearGradient id="paint1_linear_4292_4021" x1="9.34867" y1="4" x2="19.7621" y2="36.2838" gradientUnits="userSpaceOnUse">
<stop stop-color="#1DA1F2"/>
<stop offset="1" stop-color="#003CC5"/>
</linearGradient>
</defs>
</svg>
