<svg width="718" height="614" viewBox="0 0 718 614" fill="none" xmlns="http://www.w3.org/2000/svg">
<g style="mix-blend-mode:luminosity" opacity="0.2">
<path fill-rule="evenodd" clip-rule="evenodd" d="M718 272.749C718 218.036 701.248 167.517 673.579 124.624C626.899 53.5157 546.527 7 455.238 7C434.721 7 415.71 9.28766 396.888 13.6723C352.278 23.2042 312.751 44.7463 280 74.2952V391.517C331.762 391.517 376.183 357.202 391.241 309.352C390.112 307.064 388.606 304.967 386.535 303.251L328.75 252.351C315.763 240.913 322.727 219.561 340.044 218.036L416.651 210.792C423.992 210.029 430.204 205.645 433.027 198.972L463.708 128.436C470.484 112.423 493.071 112.423 500.035 128.436L530.528 198.972C533.539 205.645 539.751 210.029 546.903 210.792L623.699 218.036C641.016 219.561 647.98 240.913 634.993 252.351L577.019 303.251C571.561 308.017 569.302 315.262 570.808 322.315L587.748 397.427C591.513 414.203 573.255 427.547 558.197 418.778L491.942 379.507C485.73 375.884 470.672 374.55 463.143 376.647L449.403 380.841L433.968 385.988L417.781 392.661C369.407 412.296 300.517 466.056 284.517 512H572.69C613.535 491.22 648.357 459.765 673.579 421.066C702.001 378.935 718 328.606 718 273.512C718 273.512 718 273.512 718 272.749Z" fill="url(#paint0_linear_3901_22431)"/>
</g>
<path d="M158.981 457.336L106.38 332.125C98.6602 313.752 107.289 292.595 125.652 284.871L194.964 255.717C213.326 247.994 234.47 256.628 242.19 275.002L294.791 400.213C302.511 418.586 293.882 439.742 275.519 447.465L206.207 476.619C187.843 484.342 166.699 475.71 158.981 457.336Z" fill="white"/>
<path d="M407.362 269.609C405.611 269.39 403.791 269.112 401.9 268.763L390.208 256.976L384.269 250.981C380.985 242.709 380.298 228.68 383.302 216.654C386.994 201.83 396.288 190.032 413.223 195.766C413.223 195.766 432.157 183.738 443.033 201.211C444.258 203.183 445.48 205.702 446.584 208.619C455.022 230.841 457.093 275.793 407.362 269.609Z" fill="white"/>
<path d="M403.839 265.067C422.302 268.241 435.057 264.859 441.77 255.007C452.082 239.869 445.878 213.311 439.66 203.319C437.159 199.302 434.111 196.931 430.341 196.07C423.057 194.41 415.431 199.079 415.357 199.127C414.34 199.771 413.088 199.924 411.949 199.537C404.646 197.066 398.893 198.18 394.366 202.951C384.408 213.444 383.518 237.174 387.692 248.778L403.839 265.067ZM416.046 274.154C411.626 274.154 406.693 273.703 401.177 272.682C400.379 272.535 399.646 272.147 399.075 271.57L381.445 253.785C381.067 253.405 380.77 252.95 380.571 252.45C375.263 239.071 375.749 211.001 388.594 197.467C393.05 192.771 400.806 188.053 412.776 191.454C416.12 189.73 423.938 186.438 432.109 188.304C437.974 189.642 442.787 193.277 446.416 199.109C453.362 210.27 461.351 240.406 448.347 259.492C443.488 266.624 434.083 274.154 416.046 274.154Z" fill="#371A45"/>
<path d="M413.388 191.64C423.834 195.631 433.983 204.626 433.832 216.663C433.751 218.987 433.066 221.488 431.708 223.448C430.871 224.766 429.611 225.917 428.355 226.823C423.663 230.211 417.299 227.592 413.433 224.61C411.257 223.001 409.362 221.269 407.54 219.245C406.839 218.467 406.902 217.268 407.679 216.566C408.448 215.87 409.628 215.931 410.329 216.67C411.976 218.265 413.912 219.81 415.863 221.042C418.984 222.906 423.019 224.95 425.817 222.104C426.153 221.867 426.456 221.386 426.73 221.089C426.903 220.82 427.064 220.504 427.242 220.238C428.66 217.166 427.793 213.771 426.268 210.744C423.201 204.885 417.09 201.206 410.941 199.218C405.739 197.565 408.18 189.935 413.388 191.64Z" fill="#371A45"/>
<path d="M422.03 225.442C422.618 233.566 424.246 244.837 431.064 249.931C432.888 251.139 435.079 251.546 437.211 251.407C444.545 250.801 446.423 241.798 447.092 235.604C447.204 234.431 447.28 233.037 447.261 231.917C447.291 226.658 454.939 226.459 455.226 231.728C454.632 244.393 448.109 261.133 432.448 256.597C423.036 253.614 420.136 242.687 419.11 233.978C418.796 231.125 418.652 228.334 418.72 225.42C418.741 224.505 419.5 223.781 420.414 223.803C421.312 223.823 422.021 224.56 422.03 225.442Z" fill="#371A45"/>
<path d="M162.293 455.942C169.232 472.459 188.307 480.245 204.814 473.305L274.128 444.151C290.633 437.208 298.418 418.122 291.479 401.605L238.878 276.394C235.516 268.393 229.241 262.181 221.211 258.902C213.179 255.622 204.352 255.668 196.357 259.032L127.045 288.186C110.538 295.128 102.753 314.214 109.692 330.731L162.293 455.942ZM192.283 483.033C176.787 483.033 162.04 473.894 155.669 458.728L103.066 333.517C94.593 313.347 104.1 290.037 124.26 281.557L193.572 252.403C203.339 248.295 214.118 248.239 223.926 252.243C233.735 256.249 241.396 263.837 245.501 273.607L298.102 398.818C306.578 418.991 297.071 442.301 276.912 450.779L207.599 479.933C202.596 482.038 197.398 483.033 192.283 483.033Z" fill="#371A45"/>
<path d="M459.203 417.216C456.356 418.421 453.321 419.388 450.078 420.094L444.755 406.246L432.734 374.993C432.734 374.993 440.057 360.847 450.596 348.431C458.854 338.705 469.073 330.033 479.301 330.033C483.758 330.033 487.341 332.92 489.847 337.659C499.669 356.157 493.231 402.92 459.203 417.216Z" fill="white"/>
<path d="M198.76 603.038C197.476 599.962 197.157 596.874 197.565 593.837C198.74 585.026 206.003 576.654 213.415 570.223C213.436 570.191 213.465 570.173 213.486 570.152C221.954 562.825 230.59 558.026 230.59 558.026L286.689 564.318C288.579 566.618 289.882 568.858 290.678 571.038C301.991 602.36 206.243 620.929 198.76 603.038Z" fill="white"/>
<path d="M231.436 562.125C220.287 568.602 196.171 586.526 202.429 601.5C203.281 603.539 208.405 605.722 217.929 606.006C242.887 606.752 279.404 595.326 286.447 580.94C288.465 576.819 287.853 572.603 284.573 568.09L231.436 562.125ZM220.044 614C219.244 614 218.461 613.989 217.693 613.967C205.142 613.593 197.535 610.434 195.086 604.573C184.553 579.371 226.859 555.542 228.664 554.541C229.388 554.14 230.211 553.975 231.037 554.066L287.128 560.361C288.156 560.476 289.098 560.989 289.755 561.785C297.497 571.181 296.117 579.292 293.596 584.443C284.527 602.969 244.958 614 220.044 614Z" fill="#371A45"/>
<path d="M437.096 375.259L452.521 415.366C481.939 406.798 492.064 373.617 489.726 351.906C488.556 341.038 484.465 334.014 479.303 334.014C462.909 334.014 444.064 362.421 437.096 375.259ZM450.074 424.076C448.458 424.076 446.962 423.087 446.361 421.524L429.016 376.424C428.606 375.361 428.672 374.174 429.196 373.163C430.192 371.239 453.881 326.049 479.303 326.049C488.954 326.049 495.981 335.631 497.641 351.054C500.38 376.508 487.698 415.963 450.924 423.985C450.64 424.046 450.354 424.076 450.074 424.076Z" fill="#371A45"/>
<path d="M459.203 417.216C458.854 421.937 458.266 426.725 457.392 431.544C457.392 431.544 453.919 432.151 448.078 433.196C420.496 438.114 340.169 452.73 323.931 458.983C323.931 458.983 313.235 470.381 305.951 502.6C302.199 519.236 299.344 541.419 299.344 570.441C299.344 570.441 296.071 570.708 290.678 571.037C273.853 572.082 236.372 573.784 213.486 570.151C212.839 570.042 212.193 569.942 211.566 569.823C211.516 569.823 211.495 569.813 211.495 569.813L211.406 560.524L210.85 504.303L210.56 475.052L192.023 474.374L195.456 443.7L186.203 416.549C186.203 416.549 143.745 427.062 119.489 411.232C111.32 405.906 103.418 391.749 101.837 373.869C99.7663 350.71 108.293 321.29 140.562 296.659C147.399 291.433 155.299 286.435 164.392 281.746C183.786 271.749 245.465 260.697 305.702 242.289C332.121 234.215 358.259 224.727 380.438 213.298C380.438 213.298 381.532 214.453 383.302 216.653C386.317 220.427 391.302 227.266 396.089 236.574C400.676 245.495 405.073 256.686 407.362 269.608C408.028 273.383 408.526 277.305 408.785 281.367C408.785 281.367 368.985 302.902 341.702 309.253C341.702 309.253 356.507 341.301 354.637 363.544C354.637 363.544 372.905 371.836 449.022 343.861C449.022 343.861 449.649 345.484 450.596 348.43C451.629 351.646 453.043 356.435 454.446 362.419C455.342 366.193 456.227 370.453 457.002 375.072C459.043 387.169 460.377 401.805 459.203 417.216Z" fill="white"/>
<path d="M416.258 266.222C414.366 266.222 412.386 266.125 410.325 265.934C408.137 255.241 404.61 245.806 400.807 237.898C401.284 237.953 401.735 237.981 402.165 237.981C410.972 237.979 410.258 226.77 409.341 221.126C410.618 222.378 411.961 223.523 413.433 224.611C414.906 225.745 416.741 226.829 418.707 227.548C418.733 229.709 418.872 231.827 419.11 233.979C420.136 242.687 423.036 253.614 432.448 256.598C434.24 257.116 435.912 257.357 437.47 257.357C438.411 257.357 439.309 257.27 440.168 257.101C434.969 263.172 426.965 266.222 416.258 266.222ZM436.418 251.433C434.543 251.433 432.663 250.989 431.064 249.931C425.034 245.426 423.065 236.091 422.283 228.376C422.602 228.404 422.921 228.419 423.24 228.419C425.028 228.419 426.785 227.956 428.355 226.824C428.971 226.378 429.589 225.877 430.155 225.324C430.75 231.587 431.91 237.192 435.576 239.912C436.589 240.664 437.6 241.015 438.582 241.015C442.328 241.015 445.645 235.887 447.009 228.198C447.142 229.655 447.23 231.123 447.263 232.594C447.248 233.566 447.183 234.658 447.092 235.605C446.422 241.798 444.545 250.802 437.211 251.407C436.947 251.426 436.682 251.433 436.418 251.433ZM422.444 223.514C420.255 223.514 417.869 222.24 415.863 221.043C414.529 220.2 413.202 219.212 411.97 218.162C413.184 218.232 414.397 218.286 415.587 218.286C420.485 218.284 424.954 217.374 427.225 212.963C428.077 215.371 428.322 217.898 427.242 220.239C427.064 220.504 426.902 220.82 426.73 221.089C426.455 221.386 426.153 221.867 425.817 222.105C424.819 223.122 423.661 223.514 422.444 223.514Z" fill="#D7D1DA"/>
<path d="M415.967 270.188C414.403 270.188 412.774 270.127 411.08 270.003C410.852 268.627 410.599 267.27 410.325 265.933C412.386 266.125 414.366 266.221 416.258 266.221C426.965 266.221 434.969 263.171 440.168 257.1C442.823 256.582 445.088 255.305 446.994 253.514C442.25 263.19 432.795 270.19 415.967 270.188ZM447.263 232.593C447.229 231.123 447.142 229.654 447.009 228.197C447.986 222.676 447.957 215.831 446.352 208.619C448.413 214.049 450.096 220.838 450.734 227.906C448.934 228.123 447.276 229.474 447.261 231.917C447.265 232.135 447.265 232.359 447.263 232.593Z" fill="#371A45"/>
<path d="M423.24 228.418C422.921 228.418 422.602 228.403 422.283 228.375C422.181 227.365 422.099 226.383 422.03 225.442C422.021 224.56 421.312 223.823 420.414 223.803C420.401 223.803 420.388 223.803 420.374 223.803C419.477 223.803 418.741 224.518 418.72 225.42C418.704 226.135 418.698 226.844 418.707 227.547C416.741 226.829 414.906 225.745 413.433 224.61C411.961 223.522 410.618 222.377 409.342 221.126C409.032 219.227 408.7 217.959 408.7 217.959C409.778 218.02 410.874 218.098 411.971 218.161C413.203 219.212 414.529 220.199 415.863 221.042C417.869 222.24 420.255 223.513 422.444 223.513C423.661 223.513 424.819 223.121 425.817 222.104C426.153 221.866 426.455 221.386 426.73 221.089C426.902 220.819 427.064 220.504 427.242 220.238C428.322 217.897 428.077 215.371 427.225 212.963C427.832 211.782 428.283 210.351 428.541 208.619C429.543 213.661 429.626 219.752 430.155 225.323C429.589 225.876 428.971 226.378 428.355 226.823C426.786 227.956 425.029 228.418 423.24 228.418Z" fill="#371A45"/>
<path d="M437.47 257.356C435.912 257.356 434.24 257.115 432.448 256.597C423.036 253.614 420.136 242.687 419.11 233.978C418.872 231.826 418.733 229.708 418.707 227.547C418.698 226.844 418.704 226.134 418.72 225.42C418.741 224.517 419.477 223.803 420.373 223.803C420.388 223.803 420.401 223.803 420.414 223.803C421.312 223.823 422.021 224.56 422.03 225.442C422.099 226.383 422.181 227.365 422.283 228.375C423.066 236.091 425.034 245.425 431.064 249.931C432.663 250.989 434.543 251.432 436.418 251.432C436.682 251.432 436.947 251.425 437.211 251.406C444.545 250.801 446.423 241.797 447.092 235.604C447.183 234.657 447.248 233.566 447.263 232.593C447.265 232.359 447.265 232.135 447.261 231.917C447.276 229.474 448.935 228.123 450.734 227.906C451.528 236.701 450.71 245.93 446.994 253.514C445.089 255.305 442.823 256.582 440.168 257.1C439.309 257.269 438.411 257.356 437.47 257.356Z" fill="#371A45"/>
<path d="M208.979 471.397L196.025 470.922L198.784 446.265C205.786 445.691 212.487 444.969 218.886 444.119L217.857 450.438C216.719 457.415 222.157 463.528 228.922 463.528C229.547 463.528 230.184 463.476 230.827 463.366C242.846 461.341 259.609 457.597 272.538 451.143C270.684 454.136 268.767 456.941 266.814 459.431C236.1 469.316 210.6 471.06 210.307 471.078C209.836 471.108 209.389 471.219 208.979 471.397ZM315.678 422.637C315.878 420.95 316.051 419.248 316.19 417.534C317.147 418.347 318.151 419.183 319.203 420.031C318.016 420.87 316.841 421.737 315.678 422.637ZM190.301 416.936C190.307 416.541 190.251 416.138 190.127 415.739L188.271 409.434C189.082 409.462 189.897 409.477 190.715 409.477C200.287 409.477 210.265 407.513 217.69 402.305L218.66 405.112C219.682 408.072 221.599 410.559 224.148 412.28C208.343 415.113 196.066 416.42 190.301 416.936ZM138.088 414.701C132.088 413.461 126.344 411.417 121.449 408.222C114.564 403.728 107.705 391.77 105.707 376.373C110.911 383 117.236 385.12 123.202 385.12C126.783 385.12 130.234 384.357 133.236 383.344L133.247 383.416L134.175 388.946C128.303 393.99 122.518 396.977 122.518 396.977C122.518 396.977 125.056 401.433 136.327 402.591L138.355 414.64C138.264 414.658 138.175 414.679 138.088 414.701ZM350.149 406.453C344.935 404.726 339.05 402.599 332.782 400.026C348.046 386.741 354.867 374.258 357.598 367.914C358.31 368.013 359.115 368.102 360.025 368.173C355.998 378.363 349.501 392.533 342.213 399.506C342.902 399.047 352.423 392.524 368.208 374.562C363.876 386.121 357.852 396.755 350.149 406.453ZM340.94 368.618C341.055 366.788 340.818 364.903 340.183 363.064L335.224 348.715L343.371 345.897C344.117 345.639 344.827 345.325 345.501 344.963C345.503 344.961 345.505 344.961 345.506 344.959C345.51 344.957 345.514 344.956 345.516 344.954C346.85 344.237 348.035 343.327 349.048 342.273C350.447 348.55 351.354 355.001 351.189 360.838C347.898 363.557 344.471 366.151 340.94 368.618ZM154.241 349.155C158.664 343.912 159.948 337.067 160.148 331.645C160.23 329.495 161.996 328.071 163.846 328.071C164.694 328.071 165.558 328.37 166.287 329.036C167.94 330.544 169.874 332.274 172.05 334.166C167.946 337.977 164.488 342.861 161.877 346.949L154.241 349.155ZM333.447 318.779C331.575 298.568 324.354 281.927 324.806 281.927C324.816 281.927 324.827 281.932 324.842 281.945C324.135 281.06 323.081 279.755 322.712 279.296C323.337 279.901 326.215 282.235 333.656 282.233C336.751 282.233 340.638 281.83 345.479 280.731C363.717 276.578 371.129 248.962 371.129 248.962C371.387 255.76 370.572 262.113 369.418 267.498C368.533 271.614 371.836 274.683 375.314 274.683C376.841 274.683 378.402 274.091 379.656 272.735C384.263 267.758 387.586 262.202 389.974 256.976C392.543 251.345 394.027 246.091 394.861 242.325C399.581 252.413 403.761 264.97 405.022 279.292C396.575 283.722 363.899 300.395 340.887 305.753L336.588 306.753L338.441 310.763C338.484 310.856 339.764 313.656 341.501 318.098C340.571 317.909 339.619 317.812 338.656 317.812C337.092 317.812 335.501 318.068 333.94 318.609L333.447 318.779Z" fill="#D7D1DA"/>
<path d="M220.288 606.039C219.492 606.039 218.705 606.028 217.929 606.006C208.406 605.722 203.281 603.538 202.43 601.5C201.608 599.534 201.309 597.516 201.437 595.481C205.153 596.742 209.209 597.291 213.46 597.291C235.381 597.291 262.441 582.661 274.404 575.478C279.304 575.285 283.759 575.057 287.522 574.839C287.787 576.909 287.429 578.937 286.447 580.94C279.623 594.878 245.127 606.041 220.288 606.039Z" fill="#D7D1DA"/>
<path d="M220.139 610.021C209.163 610.021 200.771 607.848 198.76 603.037C197.476 599.961 197.157 596.874 197.565 593.837C198.806 594.483 200.101 595.029 201.437 595.482C201.309 597.516 201.608 599.534 202.43 601.5C203.281 603.539 208.406 605.722 217.929 606.006C218.705 606.028 219.492 606.039 220.288 606.039C245.127 606.041 279.623 594.878 286.447 580.94C287.429 578.937 287.787 576.91 287.522 574.84C288.959 574.756 290.299 574.674 291.52 574.596C293.845 595.586 248.416 610.021 220.139 610.021Z" fill="#371A45"/>
<path d="M250.657 568.76C238.03 568.76 225.144 568.26 215.059 566.755L214.992 560.072C229.425 558.167 266.381 552.315 276.309 541.429C284.219 532.756 287.66 513.032 289.117 499.853C289.323 497.986 287.837 496.746 286.31 496.746C285.475 496.746 284.627 497.117 284.039 497.96C271.656 515.726 250.16 529.826 249.405 529.95C250.032 529.483 266.122 517.215 270.868 489.101C271.61 484.699 273.192 479.688 275.48 474.366L290.959 484.231C291.603 484.643 292.345 484.855 293.096 484.855C293.425 484.855 293.757 484.814 294.08 484.731C295.145 484.46 296.05 483.76 296.581 482.796C297.078 481.896 304.36 468.529 310.001 449.554C319.587 444.217 328.32 438.287 336.139 431.807C342.805 435.713 350.241 439.223 358.191 441.607C358.568 441.722 358.954 441.776 359.332 441.776C360.739 441.776 362.076 441.028 362.796 439.754L374.823 418.475C375.452 417.365 375.509 416.021 374.979 414.861C374.45 413.7 373.396 412.863 372.145 412.611C372.03 412.588 366.661 411.484 358.158 408.965C358.542 408.458 358.922 407.951 359.297 407.439C360.128 407.45 360.952 407.455 361.767 407.455C396.341 407.455 415.705 397.306 416.306 396.987C411.701 408.107 398.439 416.686 386.905 422.32C384.511 423.488 385.45 426.967 387.899 426.967C388.048 426.967 388.202 426.954 388.361 426.928C402.133 424.611 419.657 421.182 430.904 417.207C436.624 415.186 441.172 411.105 444.754 406.247C449.771 399.448 452.903 391.126 454.742 384.79C456.317 397.874 456.76 413.041 454.276 428.441C437.044 431.474 341.013 448.552 322.639 455.629L321.873 455.922L321.311 456.524C320.281 457.621 296.39 484.064 295.764 567.098C288.419 567.611 269.83 568.76 250.657 568.76Z" fill="#D7D1DA"/>
<path d="M312.851 438.738C314.029 433.603 315.014 428.201 315.679 422.637C316.842 421.737 318.016 420.87 319.204 420.031C322.167 422.426 325.49 424.926 329.124 427.382C324.096 431.396 318.668 435.183 312.851 438.738Z" fill="#B7ACBC"/>
<path d="M463.167 410.775C463.569 398.708 462.584 387.321 461.067 377.428C464.141 378.931 466.894 379.609 469.358 379.609C481.782 379.609 486.865 362.383 488.923 346.881C489.264 348.443 489.535 350.123 489.726 351.907C491.756 370.756 484.394 398.25 463.167 410.775Z" fill="#D7D1DA"/>
<path d="M462.942 415.461C463.043 413.89 463.117 412.325 463.167 410.775C484.394 398.25 491.756 370.755 489.726 351.907C489.535 350.123 489.264 348.443 488.923 346.881C489.348 343.677 489.643 340.549 489.847 337.66C499.298 355.458 493.695 399.427 462.942 415.461Z" fill="#371A45"/>
<path d="M457.389 431.545H457.399H457.389ZM215.059 566.755C240.46 570.548 283.58 567.949 295.765 567.099C296.39 484.065 320.281 457.621 321.311 456.524L321.873 455.923L322.639 455.629C341.013 448.552 437.044 431.475 454.276 428.441C459.972 393.141 450.283 359.06 446.823 348.491C374.329 374.702 355.13 367.716 353.152 366.82L350.844 365.771L351.056 363.242C352.828 342.194 338.584 311.076 338.441 310.764L336.588 306.754L340.887 305.753C363.898 300.396 396.575 283.723 405.022 279.293C402.23 247.574 385.113 224.505 379.559 217.777C357.778 228.717 330.278 238.958 295.62 249.038C289.113 250.938 282.102 252.898 274.191 255.031C258.036 259.377 242.119 263.322 228.076 266.805C219.51 268.928 211.417 270.935 204.014 272.844C190.696 276.291 175.97 280.327 167.755 284.107C167.159 284.387 166.575 284.669 166.02 284.952C115.291 311.096 106.15 345.5 105.219 363.681C104.126 385.015 112.766 402.553 121.449 408.223C144.099 423.004 184.93 413.163 185.342 413.061L188.538 412.272L199.116 443.302L196.025 470.923L214.12 471.586L215.059 566.755ZM250.897 575.975C236.618 575.975 221.898 575.342 210.858 573.353L207.931 572.824L207.001 478.52L188.021 477.827L191.796 444.101L183.837 420.754C173.191 422.917 139.095 428.323 117.523 414.247C106.901 407.311 96.7971 387.588 98.042 363.311C99.0532 343.59 108.803 306.351 162.747 278.551C163.384 278.227 164.033 277.912 164.725 277.587C171.788 274.336 182.642 270.95 202.216 265.88C209.656 263.962 217.764 261.952 226.349 259.824C240.358 256.351 256.238 252.413 272.322 248.088C280.183 245.97 287.148 244.02 293.612 242.134C329.176 231.79 357.037 221.312 378.791 210.103L381.192 208.866L383.048 210.829C384.133 211.978 409.661 239.431 412.369 281.135L412.52 283.435L410.494 284.53C408.933 285.375 373.726 304.337 346.685 311.701C350.406 320.612 358.77 342.732 358.381 360.719C365.314 361.679 388.999 362.093 447.784 340.488L451.107 339.266L452.376 342.573C453.065 344.364 469.141 386.964 460.926 432.188L460.477 434.657L458.007 435.088C456.888 435.282 347.453 454.43 326.074 462.023C322.725 466.295 302.937 494.751 302.937 570.44V573.756L299.635 574.025C298.128 574.146 275.148 575.975 250.897 575.975Z" fill="#371A45"/>
<path d="M210.556 479.035C208.474 479.035 206.723 477.414 206.589 475.306C206.448 473.111 208.112 471.219 210.307 471.078C210.647 471.056 244.824 468.719 281.742 454.086C330.706 434.677 361.047 403.995 371.923 362.895C372.485 360.769 374.669 359.499 376.789 360.064C378.914 360.626 380.181 362.808 379.617 364.933C373.24 389.036 360.316 410.056 341.206 427.411C326.022 441.197 306.934 452.69 284.471 461.571C246.409 476.618 212.248 478.935 210.812 479.026C210.727 479.031 210.641 479.035 210.556 479.035Z" fill="#371A45"/>
<path d="M355.351 362.544C355.351 362.544 336.653 431.951 195.476 442.529L186.949 421.2C186.949 421.2 293.928 414.751 355.351 362.544Z" fill="#6E6E89"/>
<path d="M198.084 438.33L192.65 424.735C194.401 424.572 196.539 424.358 199.023 424.078C200.76 426.844 203.814 428.563 207.114 428.563C207.404 428.563 207.693 428.55 207.986 428.522C243.273 425.29 270.558 418.301 291.607 409.744C291.699 409.874 291.792 410.002 291.887 410.129C291.095 412.223 290.102 414.781 288.939 417.647C266.953 427.215 237.481 435.111 198.084 438.33ZM324.534 396.467C324.131 396.285 323.725 396.099 323.32 395.914C323.146 395.078 322.914 394.265 322.626 393.478C330.617 388.105 336.992 382.647 342.065 377.481C342.549 377.158 343.035 376.833 343.516 376.506C339.404 382.319 333.339 389.297 324.534 396.467Z" fill="#635D7B"/>
<path d="M192.65 424.735L198.084 438.33C291.7 430.682 329.289 396.616 343.516 376.506C313.183 397.093 276.356 408.866 249.032 415.325C223.408 421.383 202.225 423.846 192.65 424.735ZM195.474 446.512C193.858 446.512 192.388 445.53 191.782 444.009L183.255 422.68C182.78 421.492 182.904 420.148 183.588 419.068C184.273 417.987 185.435 417.302 186.709 417.226C187.767 417.161 293.097 410.233 352.774 359.51C354.102 358.382 356.008 358.246 357.481 359.18C358.954 360.114 359.646 361.898 359.193 363.582C358.989 364.339 353.928 382.367 330.909 401.626C310.093 419.038 269.755 440.957 195.774 446.501C195.674 446.508 195.574 446.512 195.474 446.512Z" fill="#371A45"/>
<path d="M318.6 272.409C329.3 282.139 338.295 293.796 344.848 306.719C345.297 307.615 345.703 308.462 346.152 309.498C348.095 314.393 341.082 317.449 338.833 312.669C335.324 302.148 329.942 292.21 323.439 283.216C321.281 280.182 318.892 277.325 316.443 274.502C315.237 273.085 317.203 271.151 318.6 272.409Z" fill="#371A45"/>
<path d="M319.514 458.133C324.762 452.04 330.251 446.302 336.6 441.345C338.138 440.177 340.069 442.234 338.817 443.693C333.904 449.443 329.765 456.024 326.091 462.62C323.07 467.608 315.974 462.783 319.514 458.133Z" fill="#371A45"/>
<path d="M292.29 310.917C292.18 311.624 292.08 312.32 291.971 312.998C291.564 315.595 291.145 318.016 290.737 320.266C288.627 331.644 286.638 338.335 286.638 338.335C247.444 302.015 192.262 286.465 166.252 280.84C171.178 278.579 178.173 276.249 186.739 273.791C191.706 272.367 197.198 270.893 203.118 269.36C246.181 283.059 273.554 300.632 273.554 300.632C273.614 299.706 273.673 298.779 273.732 297.875C274.946 277.554 274.27 262.103 273.256 251.558C278.31 250.196 283.414 248.79 288.529 247.327C290.559 246.759 292.588 246.182 294.618 245.586C296.737 271.183 294.787 294.211 292.29 310.917Z" fill="#6E6E89"/>
<path d="M288.616 308.336L285.781 306.344C286.991 298.781 287.694 288.795 288.087 278.707C289.254 277.459 290.371 276.186 291.436 274.888C291.108 287.484 289.965 298.861 288.616 308.336Z" fill="#C5C5D0"/>
<path d="M279.876 313.36C273.443 309.458 265.681 305.053 256.73 300.517C258.335 299.795 259.914 299.043 261.46 298.262C267.812 301.7 271.31 303.924 271.406 303.985C272.059 304.403 272.805 304.615 273.555 304.615C274.167 304.615 274.781 304.473 275.347 304.188C276.601 303.554 277.432 302.303 277.525 300.898C277.533 300.785 277.54 300.67 277.547 300.556L285.782 306.343C285.648 307.171 285.511 307.969 285.364 308.736L288.114 310.511L279.876 313.36Z" fill="#C5C5D0"/>
<path d="M288.113 310.511L285.364 308.736C285.51 307.969 285.648 307.171 285.781 306.343L288.616 308.335C288.514 309.05 288.41 309.75 288.306 310.442L288.113 310.511Z" fill="#E8E8EC"/>
<path d="M179.947 279.999C208.727 287.432 251.092 302.414 284.406 331.012C287.386 318.316 293.331 287.417 291.006 250.774C286.774 251.985 282.31 253.227 277.514 254.532C278.633 268.336 278.638 284.282 277.525 300.899C277.432 302.304 276.601 303.555 275.347 304.188C274.091 304.821 272.592 304.745 271.406 303.986C271.139 303.813 244.383 286.818 203.003 273.505C195.194 275.536 186.986 277.756 179.947 279.999ZM286.638 342.318C285.648 342.318 284.679 341.949 283.933 341.258C246.099 306.197 193.437 290.794 165.412 284.733C163.738 284.371 162.484 282.978 162.297 281.274C162.111 279.57 163.035 277.938 164.59 277.223C171.65 273.976 182.524 270.581 202.12 265.505C202.847 265.318 203.61 265.338 204.322 265.567C236.451 275.786 259.736 288.002 269.963 293.852C270.901 274.955 270.15 260.801 269.295 251.944C269.107 250.008 270.345 248.22 272.221 247.715C280.082 245.597 287.043 243.649 293.503 241.763C294.652 241.429 295.887 241.627 296.872 242.305C297.858 242.983 298.485 244.067 298.585 245.257C302.865 297.011 290.961 337.764 290.451 339.474C290.06 340.792 289.015 341.815 287.689 342.177C287.342 342.274 286.989 342.318 286.638 342.318Z" fill="#371A45"/>
<path d="M291.887 317.519C290.944 317.519 289.996 317.184 289.237 316.507C282.042 310.076 271.038 303.744 270.929 303.68C269.021 302.587 268.361 300.155 269.452 298.247C270.545 296.336 272.977 295.675 274.882 296.769C275.363 297.044 286.712 303.571 294.54 310.566C296.178 312.033 296.321 314.548 294.857 316.189C294.07 317.069 292.981 317.519 291.887 317.519Z" fill="#371A45"/>
<path d="M222.528 403.774L205.416 354.259C203.576 348.931 206.398 343.118 211.723 341.277L306.227 308.577C311.55 306.735 317.359 309.561 319.201 314.887L336.313 364.403C338.153 369.731 335.33 375.543 330.007 377.385L235.503 410.085C230.178 411.926 224.37 409.101 222.528 403.774Z" fill="white"/>
<path d="M232.164 406.551C231.251 406.551 230.344 406.345 229.499 405.934C228.034 405.22 226.932 403.976 226.397 402.433L224.162 395.962C226.256 393.045 227.819 389.573 228.676 385.474C229.041 384.078 229.357 382.662 229.622 381.23L235.822 399.173C236.526 401.208 237.661 403.014 239.138 404.492L234.166 406.213C233.511 406.439 232.835 406.551 232.164 406.551ZM249.027 401.032C248.068 401.032 247.112 400.814 246.225 400.382C244.682 399.632 243.524 398.325 242.964 396.702L239.67 387.177C240.932 387.721 242.303 388.012 243.706 388.012C244.81 388.012 245.934 387.83 247.038 387.448L283.084 374.974L288.247 387.5L249.142 401.03C249.105 401.032 249.066 401.032 249.027 401.032ZM295.4 385.025L290.236 372.5L330.022 358.73L332.445 365.742C333.545 368.926 331.852 372.412 328.67 373.513L304.29 381.947C301.452 382.226 298.812 383.174 296.529 384.633L295.4 385.025Z" fill="#D7D1DA"/>
<path d="M331.352 350.055L321.922 322.767L333.941 318.608C341.471 316.003 349.687 319.999 352.29 327.534C354.895 335.069 350.9 343.29 343.371 345.896L331.352 350.055Z" fill="white"/>
<path d="M345.5 344.963C345.502 344.961 345.504 344.961 345.506 344.959C345.504 344.961 345.502 344.961 345.5 344.963ZM345.515 344.954C346.847 344.235 348.033 343.325 349.048 342.269C349.048 342.271 349.048 342.271 349.048 342.273C348.035 343.327 346.849 344.237 345.515 344.954Z" fill="#B7ACBC"/>
<path d="M349.048 342.273C349.048 342.272 349.048 342.272 349.048 342.27C350.957 340.283 352.26 337.786 352.804 335.093C352.262 337.788 350.959 340.287 349.048 342.273Z" fill="#371A45"/>
<path d="M335.222 348.715L330.63 335.424L338.985 332.532C344.02 330.789 347.483 326.538 348.438 321.649C350.13 323.203 351.483 325.193 352.288 327.534C352.826 329.096 353.084 330.69 353.084 332.263C353.084 333.221 352.989 334.168 352.804 335.092C352.26 337.786 350.958 340.283 349.048 342.269C348.034 343.326 346.848 344.235 345.516 344.954C345.514 344.956 345.51 344.957 345.507 344.959C345.505 344.961 345.503 344.961 345.501 344.963C344.829 345.323 344.119 345.635 343.373 345.893L335.222 348.715Z" fill="#D7D1DA"/>
<path d="M226.397 402.433C226.931 403.976 228.033 405.22 229.499 405.935C230.966 406.647 232.623 406.746 234.165 406.213L328.669 373.513C331.851 372.412 333.545 368.926 332.445 365.742L315.331 316.226C314.798 314.684 313.696 313.44 312.231 312.727C310.763 312.012 309.106 311.914 307.564 312.449L213.06 345.146C209.879 346.247 208.185 349.734 209.285 352.918L226.397 402.433ZM232.157 414.749C230.022 414.749 227.898 414.263 225.92 413.301C222.486 411.63 219.907 408.723 218.66 405.112L201.546 355.597C198.973 348.143 202.936 339.982 210.385 337.403L304.889 304.705C308.498 303.456 312.373 303.688 315.81 305.359C319.244 307.03 321.823 309.939 323.069 313.549L340.183 363.063C342.758 370.517 338.794 378.678 331.344 381.257L236.84 413.954C235.31 414.484 233.731 414.749 232.157 414.749Z" fill="#371A45"/>
<path d="M309.563 311.793C308.856 311.793 308.146 311.912 307.457 312.15L229.822 339.013C228.201 339.573 226.894 340.732 226.145 342.276C225.394 343.821 225.29 345.564 225.85 347.187L242.964 396.702C243.524 398.325 244.682 399.632 246.225 400.382C247.767 401.134 249.511 401.236 251.133 400.675L328.768 373.812C330.389 373.251 331.696 372.091 332.447 370.548C333.197 369.004 333.301 367.261 332.74 365.638L315.628 316.122C315.066 314.5 313.908 313.193 312.365 312.443C311.476 312.01 310.522 311.793 309.563 311.793ZM249.021 408.597C246.932 408.597 244.856 408.121 242.923 407.182C239.565 405.548 237.043 402.704 235.822 399.173L218.711 349.658C217.49 346.127 217.716 342.33 219.349 338.97C220.981 335.61 223.824 333.087 227.353 331.867L304.988 305.004C308.519 303.781 312.311 304.009 315.669 305.643C319.027 307.276 321.549 310.121 322.77 313.652L339.88 363.167C341.102 366.698 340.874 370.493 339.241 373.853C337.609 377.213 334.768 379.736 331.237 380.958L253.602 407.821C252.105 408.339 250.559 408.597 249.021 408.597Z" fill="#371A45"/>
<path d="M293.168 393.3C291.681 393.302 290.273 392.42 289.672 390.961L279.514 366.312L257.315 357.416C256.311 357.015 255.53 356.202 255.165 355.185L245.832 329.185C245.129 327.221 246.148 325.054 248.112 324.349C250.079 323.645 252.24 324.664 252.946 326.63L261.701 351.03L283.804 359.887C284.75 360.266 285.501 361.012 285.891 361.955L296.657 388.078C297.453 390.008 296.535 392.217 294.605 393.014C294.134 393.209 293.646 393.3 293.168 393.3Z" fill="#371A45"/>
<path d="M327.107 325.29L333.871 344.866L342.038 342.041C347.432 340.173 350.302 334.264 348.437 328.867C346.571 323.472 340.671 320.599 335.272 322.464L327.107 325.29ZM331.352 354.134C329.661 354.134 328.082 353.076 327.498 351.388L318.069 324.1C317.333 321.972 318.461 319.648 320.589 318.913L332.608 314.753C337.279 313.138 342.3 313.438 346.745 315.599C351.191 317.762 354.527 321.527 356.143 326.201C357.759 330.874 357.458 335.898 355.297 340.346C353.135 344.794 349.374 348.136 344.703 349.751L332.684 353.909C332.242 354.061 331.793 354.134 331.352 354.134Z" fill="#371A45"/>
<path d="M290.134 345.575C290.134 339.252 295.256 334.126 301.576 334.126C307.895 334.126 313.019 339.252 313.019 345.575C313.019 351.898 307.895 357.023 301.576 357.023C295.256 357.023 290.134 351.898 290.134 345.575Z" fill="#55B6FF"/>
<path d="M301.575 338.105C297.46 338.105 294.113 341.456 294.113 345.574C294.113 349.692 297.46 353.041 301.575 353.041C305.691 353.041 309.038 349.692 309.038 345.574C309.038 341.456 305.691 338.105 301.575 338.105ZM301.575 361.005C293.071 361.005 286.154 354.082 286.154 345.574C286.154 337.064 293.071 330.141 301.575 330.141C310.078 330.141 316.997 337.064 316.997 345.574C316.997 354.082 310.078 361.005 301.575 361.005Z" fill="#371A45"/>
<path d="M226.629 371.978C226.531 376.686 225.764 381.834 224.043 387.329C216.948 409.95 182.83 405.03 182.83 405.03L186.312 416.869C186.312 416.869 184.312 417.207 180.989 417.636C180.96 417.636 180.919 417.645 180.889 417.645C172.033 418.8 153.955 420.593 139.149 418.551L136.463 402.582L134.203 389.121L133.247 383.416L129.158 359.085L137.309 357.063H137.327L164.432 350.352C164.432 350.352 169.098 342.208 175.238 336.692C178.371 333.885 181.883 331.765 185.347 331.765C195.606 331.765 194.422 343.383 194.422 343.383C194.422 343.383 209.814 338.515 216.27 343.483C220.679 346.879 226.928 357.303 226.629 371.978Z" fill="white"/>
<path d="M128.539 356.57L163.48 346.488L160.985 348.37C166.49 339.504 176.575 325.304 188.787 328.194C194.526 329.373 197.871 334.762 198.318 340.087C198.45 341.308 198.483 342.556 198.381 343.785L193.223 339.586C200.187 337.651 207.573 336.212 214.734 338.277C217.495 339.188 219.82 341.006 221.668 343.241C231.03 355.029 232.377 371.357 228.675 385.475C224.534 405.306 203.873 410.434 186.264 409.338C184.884 409.248 183.687 409.166 182.26 408.973L186.646 403.906L190.127 415.74C190.834 418.008 189.314 420.435 186.969 420.793C174.956 422.642 163 423.626 150.851 423.418C146.791 423.308 142.71 423.028 138.608 422.501C136.428 422.22 134.888 420.225 135.168 418.043C135.45 415.836 137.492 414.29 139.691 414.609C147.227 415.584 154.953 415.643 162.584 415.288C170.25 414.9 178.099 414.126 185.648 412.938L182.49 417.99L179.01 406.156C178.388 404.046 179.594 401.833 181.704 401.211C182.846 400.858 183.817 401.198 185.012 401.263C186.732 401.413 188.468 401.491 190.201 401.495C203.2 401.552 218.189 397.968 220.97 383.472C223.952 372.272 223.154 359.262 216.523 349.583C215.979 348.849 215.243 347.967 214.603 347.31C214.36 347.104 213.918 346.674 213.667 346.549C212.666 345.844 210.788 345.365 208.743 345.276C204.632 345.081 199.825 345.953 195.622 347.178C193.479 347.804 191.238 346.571 190.613 344.429C190.283 343.272 190.604 342.225 190.405 340.956C190.214 338.863 189.286 336.578 187.351 336.03C187.153 336.006 186.748 335.887 186.555 335.837C184.761 335.611 183.449 335.906 181.572 336.944C178.952 338.446 176.394 340.92 174.104 343.607C171.85 346.267 169.649 349.369 167.889 352.334C167.343 353.284 166.425 354.027 165.391 354.22L129.782 361.596C126.579 362.194 125.368 357.584 128.539 356.57Z" fill="#371A45"/>
<path d="M183.241 410.522C181.543 410.522 179.959 409.453 179.382 407.756L160.307 351.695C159.582 349.564 160.721 347.245 162.853 346.519C164.986 345.791 167.302 346.935 168.027 349.066L187.1 405.128C187.826 407.259 186.687 409.578 184.555 410.303C184.121 410.452 183.677 410.522 183.241 410.522Z" fill="#371A45"/>
<path d="M134.203 389.12L134.175 388.946L133.248 383.415C139.07 381.484 143.259 378.598 143.517 378.418C141.12 382.58 137.635 386.194 134.203 389.12Z" fill="#D3CCE4"/>
<path d="M136.466 402.606C136.42 402.601 136.373 402.597 136.327 402.592L136.325 402.58C136.372 402.584 136.418 402.59 136.464 402.593L136.466 402.606Z" fill="#D7D1DA"/>
<path d="M138.356 414.64L136.328 402.591C136.374 402.597 136.42 402.6 136.467 402.606L138.487 414.617C138.443 414.623 138.398 414.632 138.356 414.64Z" fill="#B7ACBC"/>
<path d="M154.482 415.486C149.524 415.486 144.567 415.239 139.691 414.608C139.496 414.58 139.303 414.567 139.112 414.567C138.901 414.567 138.691 414.584 138.487 414.617L136.466 402.606L136.465 402.593C137.099 402.656 137.806 402.693 138.559 402.693C141.858 402.693 146.09 401.982 149.48 399.536C162.196 390.359 165.039 376.25 165.195 366.056L179.382 407.756C179.462 407.99 179.561 408.211 179.676 408.419L181.195 413.585C175.041 414.413 168.753 414.976 162.584 415.288C159.892 415.414 157.187 415.486 154.482 415.486Z" fill="#D7D1DA"/>
<path d="M154.271 419.478C149.126 419.478 143.892 419.221 139.012 418.549L138.355 414.64C138.398 414.632 138.443 414.623 138.487 414.617C138.691 414.584 138.901 414.567 139.112 414.567C139.304 414.567 139.497 414.58 139.691 414.608C144.567 415.239 149.525 415.486 154.482 415.486C157.187 415.486 159.892 415.414 162.584 415.287C168.753 414.976 175.041 414.413 181.195 413.585L179.676 408.419C180.398 409.726 181.778 410.522 183.242 410.522C183.583 410.522 183.928 410.479 184.27 410.388L186.175 416.865L186.066 416.548C186.066 416.548 184.125 417.025 180.852 417.632C180.823 417.632 180.782 417.643 180.752 417.643C174.815 418.417 164.733 419.478 154.271 419.478Z" fill="#371A45"/>
<path d="M190.5 401.496C190.401 401.496 190.301 401.496 190.201 401.494C188.735 401.491 187.268 401.435 185.807 401.325L168.692 351.021C170.13 348.734 171.79 346.415 173.505 344.324C171.128 366.218 188.59 382.196 205.721 382.198C211.563 382.198 217.363 380.342 222.33 376.226C222.055 378.689 221.597 381.12 220.97 383.472C218.209 397.856 203.428 401.496 190.5 401.496Z" fill="#D7D1DA"/>
<path d="M190.392 405.479C189.217 405.479 188.141 405.45 187.186 405.405C187.16 405.312 187.132 405.22 187.1 405.127L185.807 401.325C187.267 401.434 188.735 401.49 190.201 401.494C190.301 401.496 190.401 401.496 190.499 401.496C203.428 401.496 218.209 397.855 220.97 383.471C221.597 381.119 222.055 378.689 222.33 376.225C223.797 375.009 225.193 373.595 226.493 371.974C226.393 376.684 225.627 381.83 223.905 387.327C218.961 403.09 200.891 405.479 190.392 405.479ZM137.192 357.061L160.211 351.362C160.237 351.473 160.27 351.584 160.307 351.694L161.038 353.84L137.192 357.061ZM168.692 351.02L168.028 349.065C167.725 348.18 167.15 347.465 166.428 346.984C168.369 344.112 171.478 339.944 175.1 336.69C174.295 339.302 173.774 341.849 173.505 344.324C171.79 346.414 170.13 348.733 168.692 351.02Z" fill="#371A45"/>
<path d="M183.242 410.522C181.778 410.522 180.397 409.726 179.676 408.419C179.561 408.211 179.462 407.99 179.382 407.756L165.195 366.056C165.306 358.736 164.031 353.436 164.031 353.436L161.039 353.841L160.308 351.695C160.271 351.585 160.237 351.474 160.211 351.363L164.295 350.351C164.295 350.351 165.08 348.981 166.428 346.985C167.15 347.466 167.725 348.181 168.028 349.066L168.692 351.021L185.808 401.326L187.101 405.128C187.132 405.22 187.16 405.313 187.186 405.406C184.423 405.278 182.692 405.029 182.692 405.029L184.269 410.389C183.928 410.48 183.583 410.522 183.242 410.522Z" fill="#371A45"/>
<path d="M312.617 407.621C312.617 445.483 293.095 480.877 293.095 480.877L267.644 464.648C268.022 464.221 268.41 463.771 268.779 463.315C277.416 452.941 285.305 436.552 290.678 423.889C295.095 413.454 297.802 405.529 297.802 405.529L312.617 407.621Z" fill="#6E6E89"/>
<path d="M291.534 475.154L273.647 463.754L288.369 465.085C293.169 460.683 296.75 452.201 299.191 444.476C301.293 437.823 299.117 430.714 294.015 426.235C295.731 422.21 297.206 418.527 298.382 415.473C300.696 416.587 303.29 417.21 306.028 417.21C306.774 417.21 307.511 417.164 308.232 417.073C306.071 442.841 295.846 466.254 291.534 475.154Z" fill="#635D7B"/>
<path d="M273.571 463.706L291.534 475.154C296.178 465.568 307.685 439.141 308.583 411.071L300.464 409.924C297.072 419.251 286.375 447.025 273.571 463.706ZM293.096 484.854C292.345 484.854 291.603 484.643 290.959 484.231L265.509 468.011C264.528 467.385 263.869 466.362 263.708 465.209C263.544 464.057 263.895 462.889 264.665 462.016C280.157 444.463 293.9 404.637 294.037 404.236C294.657 402.429 296.466 401.315 298.36 401.583L313.175 403.677C315.14 403.954 316.598 405.635 316.598 407.62C316.598 446.064 297.399 481.314 296.581 482.796C296.05 483.759 295.145 484.459 294.08 484.73C293.757 484.814 293.425 484.854 293.096 484.854Z" fill="#371A45"/>
<path d="M371.363 416.511L364.507 428.637L359.333 437.797C329.493 428.845 306.697 402.91 306.697 402.91L316.279 396.977C322.3 399.923 328.18 402.493 333.712 404.702C355.075 413.234 371.363 416.511 371.363 416.511Z" fill="#6E6E89"/>
<path d="M363.722 421.938C357.776 420.476 346.041 417.272 331.89 411.733C331.805 410.635 331.923 409.51 332.259 408.419C346.647 414.172 358.709 417.554 365.273 419.194L363.722 421.938Z" fill="#C5C5D0"/>
<path d="M357.466 433.008C342.063 427.693 328.697 417.809 320.05 410.288C320.712 409.425 321.296 408.499 321.792 407.52C324.69 408.8 327.527 409.99 330.28 411.094C330.82 411.309 331.358 411.523 331.89 411.733C332.094 414.33 333.451 416.771 335.8 418.256C341.371 421.78 349.822 426.044 360.298 427.997L357.466 433.008Z" fill="#635D7B"/>
<path d="M331.89 411.732C331.358 411.523 330.82 411.309 330.28 411.094C327.526 409.989 324.69 408.799 321.792 407.52C321.836 407.433 321.879 407.347 321.921 407.26V407.262C322.029 407.037 322.135 406.811 322.233 406.581C322.526 405.909 322.777 405.216 322.985 404.505C326.159 405.918 329.259 407.219 332.259 408.419C331.924 409.51 331.805 410.635 331.89 411.732Z" fill="#A9A3B4"/>
<path d="M306.692 402.911H306.702H306.692ZM312.969 403.71C319.847 410.562 336.827 425.887 357.466 433.008L365.273 419.194C356.423 416.983 337.58 411.607 316.513 401.519L312.969 403.71ZM359.332 441.776C358.954 441.776 358.568 441.723 358.191 441.607C327.615 432.437 304.666 406.635 303.703 405.542C302.93 404.662 302.583 403.485 302.755 402.325C302.928 401.166 303.603 400.14 304.6 399.523L314.186 393.594C315.349 392.873 316.8 392.805 318.029 393.404C346.449 407.326 371.891 412.561 372.145 412.611C373.396 412.864 374.45 413.701 374.978 414.861C375.509 416.022 375.452 417.366 374.823 418.476L362.796 439.755C362.076 441.028 360.739 441.776 359.332 441.776Z" fill="#371A45"/>
<path d="M288.366 399.539C288.366 389.778 296.273 381.868 306.029 381.868C315.782 381.868 323.69 389.778 323.69 399.539C323.69 409.299 315.782 417.211 306.029 417.211C296.273 417.211 288.366 409.299 288.366 399.539Z" fill="#6E6E89"/>
<path d="M322.624 393.479C322.153 392.191 321.537 390.971 320.795 389.843C320.797 389.841 320.797 389.843 320.799 389.841C321.539 390.97 322.157 392.189 322.626 393.478L322.624 393.479Z" fill="#C5C5D0"/>
<path d="M323.321 395.914C323.319 395.914 323.321 395.914 323.319 395.914C323.197 395.326 323.044 394.748 322.864 394.184C322.862 394.18 322.862 394.178 322.861 394.175C322.859 394.169 322.857 394.162 322.855 394.154C322.783 393.928 322.705 393.703 322.625 393.48L322.627 393.478C322.914 394.266 323.146 395.079 323.321 395.914Z" fill="#C1BECA"/>
<path d="M320.795 389.843C319.866 388.428 318.74 387.155 317.454 386.063L317.456 386.061C318.741 387.155 319.869 388.426 320.799 389.841C320.797 389.843 320.797 389.841 320.795 389.843Z" fill="#AFA3B5"/>
<path d="M296.529 384.634C298.811 383.175 301.451 382.226 304.29 381.947L304.279 381.953C301.451 382.232 298.819 383.176 296.542 384.63L296.529 384.634Z" fill="#EFEDF0"/>
<path d="M317.454 386.063C317.359 385.984 317.264 385.904 317.168 385.826H317.171C317.268 385.904 317.363 385.982 317.455 386.062L317.454 386.063ZM295.553 385.306C295.87 385.072 296.197 384.847 296.529 384.634L296.542 384.63C296.208 384.844 295.88 385.068 295.562 385.302L295.553 385.306ZM304.279 381.953L304.29 381.948C304.681 381.911 305.076 381.885 305.475 381.872L305.466 381.875C305.067 381.888 304.67 381.914 304.279 381.953Z" fill="#AFA3B5"/>
<path d="M317.168 385.825C314.129 383.351 310.251 381.867 306.029 381.867C305.839 381.867 305.654 381.869 305.466 381.875L305.476 381.871C305.659 381.865 305.845 381.863 306.03 381.863C310.253 381.863 314.133 383.349 317.172 385.825H317.168ZM295.526 385.33L295.524 385.328C295.533 385.32 295.542 385.313 295.553 385.305L295.563 385.302C295.55 385.311 295.537 385.32 295.526 385.33Z" fill="#AFA3B5"/>
<path d="M290.744 390.677C291.957 388.583 293.588 386.761 295.523 385.328L295.525 385.33C293.59 386.763 291.959 388.585 290.744 390.677Z" fill="#AFA3B5"/>
<path d="M321.922 407.263V407.261C322.029 407.036 322.135 406.81 322.233 406.582C322.135 406.812 322.029 407.038 321.922 407.263Z" fill="#DDDAE1"/>
<path d="M323.684 400.087C323.684 400.083 323.684 400.081 323.684 400.078C323.684 400.081 323.684 400.083 323.684 400.087ZM323.686 400.029C323.686 400.024 323.686 400.016 323.686 400.011C323.686 400.016 323.686 400.024 323.686 400.029ZM323.686 399.976C323.688 399.966 323.688 399.957 323.688 399.948C323.688 399.957 323.688 399.966 323.686 399.976ZM323.688 399.927C323.688 399.914 323.688 399.899 323.688 399.886C323.688 399.899 323.688 399.914 323.688 399.927ZM323.69 399.868C323.69 399.853 323.69 399.84 323.69 399.825C323.69 399.84 323.69 399.855 323.69 399.868ZM323.69 399.814C323.69 399.799 323.69 399.784 323.69 399.771C323.69 399.784 323.69 399.799 323.69 399.814ZM323.692 399.76C323.692 399.745 323.692 399.729 323.692 399.714C323.692 399.73 323.692 399.745 323.692 399.76ZM323.692 399.703C323.692 399.688 323.692 399.671 323.692 399.654C323.692 399.671 323.692 399.688 323.692 399.703ZM323.692 399.645C323.692 399.628 323.692 399.612 323.692 399.595C323.692 399.612 323.692 399.628 323.692 399.645ZM323.692 399.588C323.692 399.571 323.692 399.552 323.692 399.536C323.692 399.552 323.692 399.571 323.692 399.588ZM323.692 399.484C323.692 399.478 323.692 399.474 323.692 399.469C323.692 399.472 323.692 399.48 323.692 399.484ZM323.692 399.433C323.692 399.426 323.692 399.42 323.692 399.413C323.692 399.42 323.692 399.426 323.692 399.433ZM323.692 399.38C323.692 399.37 323.692 399.361 323.692 399.352C323.692 399.361 323.692 399.37 323.692 399.38ZM323.692 399.316C323.692 399.305 323.69 399.296 323.69 399.285C323.69 399.296 323.692 399.305 323.692 399.316ZM323.69 399.268C323.69 399.257 323.69 399.246 323.69 399.233C323.69 399.244 323.69 399.257 323.69 399.268ZM323.69 399.227C323.669 398.095 323.543 396.987 323.319 395.914C323.32 395.914 323.319 395.914 323.32 395.914C323.543 396.987 323.669 398.095 323.69 399.227Z" fill="#AFA3B5"/>
<path d="M288.369 399.467C288.382 396.264 289.245 393.262 290.744 390.676C291.959 388.584 293.59 386.763 295.525 385.33C295.536 385.321 295.549 385.311 295.562 385.302C295.88 385.068 296.208 384.843 296.542 384.63C298.818 383.176 301.451 382.231 304.279 381.953C304.67 381.914 305.067 381.888 305.466 381.875C305.654 381.869 305.839 381.868 306.028 381.868C310.251 381.868 314.129 383.351 317.168 385.826C317.264 385.903 317.359 385.983 317.454 386.063C318.739 387.155 319.865 388.428 320.795 389.843C321.537 390.972 322.153 392.191 322.624 393.48C322.704 393.702 322.782 393.927 322.854 394.154C322.32 392.488 321.548 390.929 320.578 389.52C320.133 391.883 319.218 394.081 317.934 396.01C314.695 392.048 309.771 389.52 304.26 389.52C298.123 389.52 292.714 392.655 289.549 397.408C289.243 397.035 288.952 396.649 288.677 396.25C288.482 397.293 288.375 398.366 288.369 399.465C288.369 399.467 288.369 399.465 288.369 399.467ZM322.864 394.183C322.862 394.18 322.862 394.178 322.86 394.174C322.862 394.178 322.862 394.18 322.864 394.183Z" fill="#C5C5D0"/>
<path d="M320.049 410.288L320.048 410.286C320.71 409.423 321.294 408.497 321.79 407.52H321.792C321.296 408.498 320.712 409.425 320.049 410.288Z" fill="#5A5070"/>
<path d="M321.792 407.521H321.79C321.834 407.431 321.879 407.344 321.922 407.255V407.261C321.879 407.348 321.836 407.433 321.792 407.521ZM322.233 406.581C322.525 405.909 322.777 405.217 322.985 404.506C322.777 405.217 322.527 405.909 322.233 406.581Z" fill="#92889E"/>
<path d="M316.532 413.747C317.858 412.763 319.044 411.597 320.048 410.287L320.05 410.288C319.044 411.599 317.86 412.763 316.532 413.747ZM322.985 404.506C323.395 403.097 323.636 401.617 323.684 400.087C323.638 401.617 323.397 403.098 322.985 404.506ZM323.684 400.078C323.684 400.061 323.684 400.046 323.686 400.03C323.684 400.046 323.684 400.063 323.684 400.078ZM323.686 400.011C323.686 400 323.686 399.987 323.686 399.976C323.686 399.987 323.686 400 323.686 400.011ZM323.688 399.948C323.688 399.941 323.688 399.935 323.688 399.928C323.688 399.935 323.688 399.941 323.688 399.948ZM323.688 399.887C323.69 399.881 323.69 399.876 323.69 399.868C323.69 399.876 323.69 399.881 323.688 399.887ZM323.69 399.825C323.69 399.822 323.69 399.818 323.69 399.814C323.69 399.818 323.69 399.822 323.69 399.825ZM323.69 399.772C323.69 399.768 323.692 399.764 323.692 399.76C323.692 399.764 323.69 399.768 323.69 399.772ZM323.692 399.714C323.692 399.71 323.692 399.707 323.692 399.703C323.692 399.707 323.692 399.71 323.692 399.714ZM323.692 399.655C323.692 399.651 323.692 399.649 323.692 399.645C323.692 399.649 323.692 399.651 323.692 399.655ZM323.692 399.595C323.692 399.593 323.692 399.592 323.692 399.588C323.692 399.592 323.692 399.593 323.692 399.595ZM323.692 399.536C323.692 399.519 323.692 399.502 323.692 399.484C323.692 399.502 323.692 399.519 323.692 399.536ZM323.692 399.469C323.692 399.456 323.692 399.445 323.692 399.434C323.692 399.445 323.692 399.456 323.692 399.469ZM323.692 399.413C323.692 399.402 323.692 399.391 323.692 399.38C323.692 399.391 323.692 399.402 323.692 399.413ZM323.692 399.352C323.692 399.341 323.692 399.328 323.692 399.317C323.692 399.328 323.692 399.341 323.692 399.352ZM323.69 399.285C323.69 399.28 323.69 399.274 323.69 399.269C323.69 399.274 323.69 399.28 323.69 399.285ZM323.69 399.233C323.69 399.231 323.69 399.23 323.69 399.228C323.69 399.23 323.69 399.231 323.69 399.233Z" fill="#371A45"/>
<path d="M306.03 417.208C296.269 417.208 288.369 409.303 288.369 399.536C288.369 399.514 288.369 399.49 288.369 399.466C288.718 398.753 289.111 398.066 289.549 397.409C292.787 401.371 297.715 403.897 303.225 403.897C309.362 403.897 314.769 400.767 317.934 396.011C320.426 399.057 321.921 402.95 321.921 407.192V407.256C321.879 407.345 321.834 407.432 321.789 407.521C321.294 408.497 320.71 409.424 320.047 410.287C319.044 411.598 317.858 412.764 316.531 413.748C313.596 415.923 309.963 417.208 306.03 417.208Z" fill="#635D7B"/>
<path d="M323.319 395.914L323.317 395.912C323.194 395.326 323.042 394.748 322.864 394.184C323.044 394.748 323.196 395.326 323.319 395.914ZM322.86 394.175C322.858 394.167 322.856 394.162 322.854 394.154C322.856 394.162 322.858 394.169 322.86 394.175Z" fill="#A59DAF"/>
<path d="M321.922 407.261V407.255C322.349 406.377 322.705 405.458 322.984 404.506H322.985C322.777 405.217 322.525 405.909 322.234 406.581C322.135 406.81 322.029 407.036 321.922 407.261Z" fill="#BCB4C2"/>
<path d="M322.985 404.506H322.983C323.443 402.93 323.69 401.263 323.69 399.54C323.69 398.296 323.562 397.084 323.317 395.912L323.319 395.914C323.544 396.987 323.67 398.095 323.69 399.228C323.69 399.23 323.69 399.232 323.69 399.234C323.69 399.246 323.69 399.258 323.69 399.269C323.69 399.274 323.69 399.28 323.69 399.285C323.69 399.297 323.692 399.306 323.692 399.317C323.692 399.328 323.692 399.341 323.692 399.352C323.692 399.362 323.692 399.371 323.692 399.38C323.692 399.391 323.692 399.402 323.692 399.414C323.692 399.421 323.692 399.427 323.692 399.434C323.692 399.445 323.692 399.456 323.692 399.469C323.692 399.475 323.692 399.479 323.692 399.484C323.692 399.503 323.692 399.519 323.692 399.536C323.692 399.553 323.692 399.571 323.692 399.588C323.692 399.592 323.692 399.594 323.692 399.596C323.692 399.612 323.692 399.629 323.692 399.646C323.692 399.649 323.692 399.651 323.692 399.655C323.692 399.672 323.692 399.688 323.692 399.703C323.692 399.707 323.692 399.711 323.692 399.714C323.692 399.729 323.692 399.746 323.692 399.761C323.692 399.764 323.69 399.768 323.69 399.772C323.69 399.785 323.69 399.8 323.69 399.815C323.69 399.818 323.69 399.822 323.69 399.826C323.69 399.841 323.69 399.854 323.69 399.868C323.69 399.876 323.69 399.881 323.688 399.887C323.688 399.9 323.688 399.915 323.688 399.928C323.688 399.935 323.688 399.941 323.688 399.948C323.688 399.958 323.688 399.967 323.687 399.976C323.687 399.987 323.687 400 323.687 400.011C323.687 400.017 323.687 400.024 323.687 400.03C323.685 400.047 323.685 400.061 323.685 400.078C323.685 400.082 323.685 400.084 323.685 400.087C323.636 401.617 323.395 403.097 322.985 404.506Z" fill="#97889F"/>
<path d="M321.921 407.255V407.192C321.921 402.95 320.426 399.057 317.934 396.01C319.218 394.081 320.133 391.883 320.578 389.52C321.548 390.929 322.32 392.489 322.854 394.154C322.856 394.161 322.858 394.167 322.86 394.174C322.862 394.178 322.862 394.18 322.864 394.184C323.042 394.748 323.194 395.325 323.316 395.912C323.561 397.083 323.689 398.296 323.689 399.539C323.689 401.262 323.443 402.929 322.982 404.505C322.704 405.458 322.348 406.377 321.921 407.255ZM288.369 399.465C288.375 398.366 288.482 397.293 288.677 396.25C288.952 396.649 289.243 397.035 289.549 397.408C289.111 398.065 288.718 398.752 288.369 399.465Z" fill="#A9A3B4"/>
<path d="M306.029 385.946C298.537 385.946 292.444 392.044 292.444 399.539C292.444 407.033 298.537 413.132 306.029 413.132C313.519 413.132 319.614 407.033 319.614 399.539C319.614 392.044 313.519 385.946 306.029 385.946ZM306.029 421.289C294.041 421.289 284.29 411.531 284.29 399.539C284.29 387.544 294.041 377.787 306.029 377.787C318.014 377.787 327.766 387.544 327.766 399.539C327.766 411.531 318.014 421.289 306.029 421.289Z" fill="#371A45"/>
<path d="M202.53 311.673C180.846 311.673 160.719 306.813 144.092 298.505C145.611 297.374 147.185 296.251 148.823 295.135C159.97 297.677 171.419 298.976 182.95 298.976C191.218 298.976 199.53 298.308 207.797 296.951C216.326 300.059 225.237 303.738 234.187 308.081C224.209 310.412 213.571 311.673 202.53 311.673Z" fill="#D7D1DA"/>
<path d="M144.092 298.506C142.897 297.908 141.721 297.294 140.561 296.661C141.732 295.766 142.934 294.878 144.166 293.997C145.713 294.401 147.264 294.78 148.823 295.136C147.185 296.252 145.611 297.375 144.092 298.506Z" fill="#371A45"/>
<path d="M245.494 304.887C237.628 300.734 229.724 297.099 222.006 293.924C223.418 293.553 224.826 293.161 226.232 292.747C228.946 291.943 231.674 291.06 234.353 290.115C242.455 293.551 249.936 297.071 256.73 300.517C253.125 302.134 249.372 303.595 245.494 304.887Z" fill="#635D7B"/>
<path d="M256.73 300.518C249.936 297.072 242.455 293.552 234.353 290.116C234.403 290.097 234.453 290.081 234.505 290.062C236.458 289.362 238.399 288.623 240.323 287.847C249.095 291.79 256.24 295.436 261.459 298.262C259.914 299.044 258.335 299.795 256.73 300.518Z" fill="#A9A3B4"/>
<path d="M269.643 293.668C265.268 291.177 258.633 287.592 250.038 283.522C252.212 282.462 254.353 281.354 256.457 280.199C261.253 277.569 265.914 274.676 270.354 271.58C270.461 277.94 270.381 285.249 269.983 293.458C269.869 293.527 269.756 293.599 269.643 293.668Z" fill="#D7D1DA"/>
<path d="M278.177 287.725C278.421 280.113 278.415 272.741 278.163 265.757C281.742 262.909 285.209 259.883 288.538 256.707C288.506 263.433 288.384 271.098 288.087 278.706C285.102 281.895 281.782 284.912 278.177 287.725Z" fill="#635D7B"/>
<path d="M288.087 278.705C288.384 271.097 288.506 263.432 288.538 256.706C289.434 255.85 290.321 254.983 291.195 254.107C291.559 261.308 291.61 268.264 291.436 274.886C290.371 276.184 289.254 277.458 288.087 278.705Z" fill="#A9A3B4"/>
<path d="M299.462 262.746C299.375 257.994 299.163 253.104 298.803 248.106C300.942 247.475 303.052 246.844 305.134 246.212C304.095 251.951 302.171 257.489 299.462 262.746Z" fill="#D7D1DA"/>
<path d="M298.804 248.105C298.756 247.426 298.704 246.747 298.65 246.063C299.279 245.334 299.903 244.599 300.521 243.854C302.25 243.338 303.975 242.818 305.703 242.289C305.56 243.607 305.37 244.914 305.135 246.212C303.053 246.843 300.944 247.474 298.804 248.105Z" fill="#371A45"/>
<path d="M234.187 308.08C225.237 303.738 216.326 300.058 207.797 296.951C212.552 296.171 217.294 295.163 222.005 293.925C229.723 297.099 237.627 300.734 245.494 304.887C241.833 306.107 238.061 307.172 234.187 308.08ZM261.459 298.261C256.24 295.436 249.095 291.79 240.323 287.846C243.618 286.514 246.863 285.069 250.037 283.521C258.633 287.59 265.268 291.175 269.643 293.666C267.023 295.296 264.296 296.828 261.459 298.261ZM269.982 293.457C270.381 285.247 270.461 277.939 270.353 271.578C271.428 270.828 272.491 270.067 273.539 269.293C275.097 268.148 276.639 266.967 278.163 265.756C278.415 272.74 278.42 280.112 278.177 287.724C275.591 289.742 272.856 291.654 269.982 293.457ZM291.436 274.887C291.61 268.264 291.558 261.308 291.194 254.107C291.38 253.921 291.564 253.738 291.747 253.552C293.803 251.449 295.595 249.529 297.224 247.687C297.701 247.151 298.176 246.609 298.649 246.063C298.703 246.746 298.755 247.426 298.803 248.105C299.163 253.103 299.375 257.993 299.462 262.745C297.278 266.987 294.586 271.047 291.436 274.887Z" fill="#371A45"/>
<path d="M330.628 164.047C328.04 188.318 319.303 212.085 304.403 232.942C301.362 237.193 298.082 241.317 294.54 245.299C292.822 247.241 291.024 249.149 289.178 251.037C283.584 256.701 277.643 261.818 271.413 266.394C266.051 270.352 260.467 273.898 254.73 277.044C247.804 280.848 240.629 284.052 233.295 286.676C230.616 287.624 227.922 288.499 225.211 289.301C175.551 303.887 119.742 292.327 80.1909 254.247C21.9159 198.165 21.0131 105.797 78.1487 47.9382C89.1606 36.8031 101.523 27.7324 114.729 20.7985C116.265 19.9742 117.831 19.189 119.41 18.439C123.624 16.4024 127.908 14.5757 132.255 12.9605C142.307 9.22903 152.689 6.61514 163.185 5.11884C173.675 3.61139 184.306 3.2215 194.85 3.95108C198.203 4.17944 201.548 4.51917 204.89 4.97772C209.894 5.66833 214.864 6.59839 219.801 7.80695C244.394 13.7476 267.727 26.0412 287.137 44.7302C320.66 76.99 335.191 121.252 330.628 164.047Z" fill="white"/>
<path d="M184.536 3.95728C177.412 3.95728 170.282 4.46591 163.237 5.47769C152.691 6.98141 142.31 9.61392 132.381 13.3009C128.06 14.9048 123.75 16.7446 119.568 18.7663C117.92 19.5479 116.35 20.3387 114.9 21.1184C101.487 28.16 89.2105 37.2696 78.4055 48.1949C50.7293 76.2201 35.7605 113.145 36.257 152.168C36.7489 190.881 52.4406 227.039 80.4421 253.988C118.466 290.595 173.898 303.993 225.109 288.954C227.809 288.156 230.523 287.274 233.174 286.335C240.57 283.691 247.763 280.457 254.555 276.727C260.361 273.546 265.96 269.97 271.198 266.105C277.458 261.508 283.419 256.355 288.922 250.785C290.929 248.73 292.679 246.857 294.269 245.06C297.735 241.163 301.045 237.016 304.108 232.731C318.589 212.464 327.636 188.7 330.268 164.01L330.628 164.048L330.268 164.01C335.016 119.472 319.205 76.092 286.885 44.9907C268.198 26.9979 244.971 14.2607 219.716 8.15848C214.931 6.98889 209.927 6.04025 204.839 5.33664C201.57 4.88739 198.201 4.54395 194.826 4.31189C191.405 4.07611 187.971 3.95728 184.536 3.95728ZM182.946 295.745C144.928 295.745 107.79 281.32 79.94 254.509C51.7991 227.427 36.0286 191.085 35.5332 152.177C35.0349 112.96 50.0778 75.8507 77.8908 47.6863C88.7485 36.7072 101.085 27.5529 114.56 20.4779C116.018 19.6945 117.599 18.8981 119.256 18.1128C123.456 16.0818 127.787 14.2346 132.128 12.6214C142.106 8.91772 152.539 6.27225 163.133 4.76294C173.625 3.25363 184.303 2.86008 194.876 3.58969C198.268 3.82175 201.652 4.16888 204.938 4.62003C210.049 5.32547 215.079 6.27969 219.888 7.45483C245.264 13.5867 268.606 26.3871 287.387 44.469C319.869 75.7263 335.76 119.325 330.988 164.087C328.341 188.9 319.249 212.783 304.698 233.153C301.618 237.458 298.291 241.625 294.809 245.539C293.211 247.345 291.454 249.228 289.436 251.292C283.907 256.889 277.916 262.069 271.626 266.688C266.363 270.571 260.735 274.164 254.904 277.362C248.078 281.111 240.848 284.359 233.415 287.018C230.753 287.961 228.026 288.846 225.313 289.648C211.359 293.748 197.091 295.745 182.946 295.745Z" fill="#371A45"/>
<path d="M80.1904 254.243C119.74 292.331 175.557 303.889 225.213 289.297C227.926 288.497 230.618 287.624 233.291 286.676C240.629 284.054 247.8 280.845 254.728 277.048C260.463 273.896 266.053 270.352 271.409 266.398C277.647 261.823 283.584 256.705 289.182 251.041C291.02 249.145 292.82 247.243 294.544 245.303C298.084 241.319 301.358 237.188 304.403 232.939C319.303 212.083 328.044 188.32 330.628 164.043C332.053 150.71 331.623 137.227 329.339 124.012C326.335 147.122 317.726 169.663 303.511 189.56C300.477 193.819 297.193 197.94 293.653 201.924C291.939 203.864 290.139 205.767 288.291 207.663C282.692 213.327 276.755 218.443 270.528 223.019C265.161 226.974 259.582 230.518 253.847 233.668C246.919 237.466 239.739 240.676 232.41 243.298C229.727 244.246 227.033 245.119 224.321 245.919C174.666 260.511 118.857 248.952 79.299 210.865C56.2163 188.654 42.1463 160.746 37.1088 131.557C31.3854 175.396 45.7915 221.144 80.1904 254.243Z" fill="#D8D8D8"/>
<path d="M330.629 164.047H330.638H330.629ZM184.535 6.38281C177.525 6.38281 170.512 6.8822 163.581 7.87726C153.204 9.35687 142.992 11.9467 133.223 15.5742C128.976 17.1522 124.735 18.9604 120.622 20.9487C118.997 21.7209 117.462 22.4932 116.047 23.2544C102.835 30.1901 90.7581 39.1513 80.1281 49.8983C52.9129 77.4594 38.1924 113.768 38.6808 152.138C39.1645 190.195 54.5924 225.744 82.1219 252.238C119.522 288.246 174.052 301.421 224.427 286.627C227.082 285.84 229.755 284.973 232.366 284.049C239.633 281.45 246.709 278.269 253.39 274.601C259.101 271.469 264.608 267.953 269.76 264.151C275.92 259.627 281.785 254.559 287.197 249.078C289.167 247.064 290.891 245.219 292.455 243.451C295.867 239.614 299.123 235.535 302.138 231.319C316.376 211.392 325.268 188.027 327.858 163.752C332.527 119.965 316.981 77.3146 285.206 46.7386C266.825 29.041 243.984 16.5173 219.148 10.5153C214.436 9.36246 209.513 8.42865 204.509 7.73804C201.296 7.2962 197.98 6.95834 194.661 6.73184C191.296 6.49792 187.915 6.38281 184.535 6.38281ZM182.948 298.167C144.309 298.167 106.566 283.508 78.2599 256.255C49.6479 228.72 33.614 191.767 33.1101 152.208C32.6038 112.335 47.895 74.6098 76.1673 45.9794C87.2014 34.8239 99.738 25.5211 113.434 18.3292C114.909 17.5383 116.525 16.7233 118.217 15.9214C122.47 13.8644 126.872 11.9875 131.284 10.3483C141.426 6.58334 152.025 3.89517 162.792 2.35986C173.451 0.828278 184.303 0.427277 195.043 1.16986C198.487 1.40561 201.929 1.75839 205.268 2.21695C210.463 2.93353 215.573 3.90262 220.464 5.10004C246.251 11.3303 269.977 24.3404 289.069 42.7213C322.092 74.5002 338.25 118.831 333.397 164.344C330.706 189.571 321.465 213.854 306.669 234.563C303.54 238.938 300.158 243.173 296.622 247.151C295 248.984 293.215 250.894 291.171 252.986C285.542 258.684 279.452 263.949 273.061 268.642C267.714 272.587 261.996 276.238 256.07 279.489C249.132 283.297 241.785 286.599 234.232 289.301C231.521 290.26 228.753 291.159 226.002 291.974C211.823 296.138 197.322 298.167 182.948 298.167Z" fill="#371A45"/>
<path d="M330.628 164.047H330.638H330.628ZM184.535 7.19055C177.564 7.19055 170.588 7.68811 163.695 8.67758C153.374 10.1498 143.218 12.7247 133.505 16.3318C129.281 17.9005 125.063 19.6994 120.974 21.6765C119.354 22.4451 117.831 23.2119 116.427 23.9656C103.283 30.8679 91.2737 39.7789 80.7022 50.4684C53.6403 77.8717 39.003 113.976 39.4877 152.127C39.9697 189.967 55.3089 225.314 82.6816 251.657C119.874 287.463 174.098 300.564 224.198 285.851C226.838 285.07 229.497 284.207 232.096 283.286C239.321 280.703 246.359 277.54 253.001 273.894C258.682 270.779 264.157 267.283 269.279 263.501C275.408 259.001 281.241 253.959 286.623 248.51C288.581 246.507 290.293 244.673 291.85 242.915C295.245 239.098 298.483 235.042 301.481 230.85C315.637 211.036 324.48 187.802 327.055 163.666C331.697 120.13 316.24 77.7232 284.645 47.3217C266.368 29.7243 243.655 17.2693 218.959 11.3008C214.27 10.1554 209.376 9.22705 204.398 8.54016C201.203 8.10019 197.908 7.76416 194.607 7.53769C191.257 7.30563 187.897 7.19055 184.535 7.19055ZM182.95 298.977C144.103 298.977 106.159 284.238 77.6998 256.839C48.931 229.151 32.8084 191.996 32.3028 152.217C31.7926 112.129 47.1664 74.1978 75.5925 45.4114C86.6855 34.1965 99.2907 24.8437 113.059 17.6146C114.538 16.82 116.167 15.9995 117.87 15.1901C122.141 13.1257 126.568 11.2376 131.002 9.59097C141.197 5.80563 151.855 3.10443 162.677 1.55988C173.391 0.0190125 184.303 -0.381958 195.099 0.364349C198.561 0.600098 202.019 0.954681 205.378 1.41693C210.6 2.13724 215.738 3.11188 220.655 4.31302C246.579 10.5786 270.433 23.6592 289.627 42.1385C322.834 74.0919 339.079 118.666 334.2 164.429C331.495 189.796 322.203 214.21 307.327 235.033C304.18 239.432 300.781 243.691 297.225 247.688C295.596 249.53 293.803 251.449 291.748 253.553C286.085 259.283 279.964 264.574 273.539 269.294C268.166 273.259 262.417 276.929 256.457 280.198C249.483 284.026 242.097 287.346 234.505 290.062C231.777 291.027 228.996 291.929 226.232 292.748C211.977 296.934 197.4 298.977 182.95 298.977Z" fill="#371A45"/>
<path d="M321.864 200.47C264.918 288.617 139.595 294.337 94.009 201.644C62.9963 138.579 101.772 59.5498 165.204 33.6651C211.371 14.8276 264.673 16.3275 313.458 78.9052C313.458 78.9052 330.701 109.925 330.824 135.271C330.948 160.618 326.735 185.312 326.735 185.312L321.864 200.47Z" fill="#371A45"/>
<path d="M297.589 161.665C297.589 161.665 297.869 148.421 288.525 123.892C285.451 115.827 281.603 106.816 273.562 95.4394C267.482 86.8366 259.2 79.9584 249.531 75.5957C249.483 75.5734 249.435 75.5511 249.387 75.5289C240.657 71.5987 231.401 69.1222 222.128 67.689C236.438 61.9989 249.658 57.7365 261.161 54.5564C273.003 62.4742 282.302 73.0727 289.056 82.5815C293.063 88.2178 296.171 93.4715 298.379 97.5539C298.398 97.5632 298.407 97.5725 298.398 97.5799C298.631 98.0533 298.856 98.523 299.071 99.0038C300.012 101.085 300.863 103.14 301.615 105.16C309.192 125.668 306.815 143.381 297.589 161.665Z" fill="#9B8DA2"/>
<path d="M94.0139 201.642C139.596 294.335 264.919 288.613 321.867 200.472L322.851 197.4C241.28 249.268 131.772 233.603 83.9115 140.741C81.5135 161.201 84.4459 182.179 94.0139 201.642Z" fill="#220F2D"/>
<path d="M330.628 164.047H330.638H330.628ZM215.985 11.3396C198.613 11.3396 180.271 15.2345 161.393 22.9388C125.121 37.7386 94.8305 69.3152 80.3651 107.404C67.4331 141.459 68.453 176.771 83.2383 206.833C99.4336 239.757 125.442 262.909 158.448 273.788C193.626 285.382 234.087 281.568 269.513 263.33C275.552 258.877 281.308 253.892 286.623 248.51C288.581 246.507 290.293 244.673 291.85 242.915C295.245 239.098 298.483 235.042 301.481 230.85C315.637 211.036 324.482 187.802 327.055 163.666C331.697 120.13 316.24 77.7231 284.645 47.3216C266.458 29.8096 243.876 17.3899 219.317 11.3879C218.211 11.3564 217.098 11.3396 215.985 11.3396ZM200.363 287.57C185.243 287.57 170.323 285.272 156.2 280.618C121.317 269.121 93.8583 244.705 76.7904 210.007C61.1151 178.137 59.9989 140.791 73.6476 104.85C88.808 64.9302 120.594 31.8202 158.679 16.2797C179.842 7.64343 200.435 3.57779 219.918 4.21271L220.287 4.22568L220.645 4.3111C246.579 10.5785 270.434 23.6591 289.627 42.1384C322.834 74.0918 339.079 118.666 334.2 164.429C331.495 189.796 322.203 214.21 307.327 235.032C304.18 239.432 300.781 243.691 297.225 247.688C295.596 249.53 293.803 251.449 291.748 253.552C286.085 259.283 279.964 264.574 273.539 269.293L273.063 269.589C250.04 281.494 224.94 287.57 200.363 287.57Z" fill="#371A45"/>
<path d="M321.864 200.471H321.873H321.864ZM214.682 26.8007C199.279 26.8007 183.23 30.1943 166.562 36.9964C134.392 50.1234 107.525 78.13 94.6951 111.914C83.2272 142.107 84.1289 173.409 97.2332 200.057C116.343 238.915 151.589 262.62 193.93 265.093C242.464 267.929 290.193 242.581 318.589 198.915L323.233 184.463C323.663 181.84 327.344 158.684 327.231 135.289C327.118 112.309 312.004 83.7681 310.446 80.8887C282.295 44.8771 250.22 26.8007 214.682 26.8007ZM201.307 272.498C198.711 272.498 196.116 272.422 193.513 272.27C148.513 269.643 111.07 244.478 90.7859 203.232C76.7914 174.776 75.7939 141.437 87.9769 109.359C101.502 73.7451 129.865 44.2032 163.848 30.3372C222.397 6.44641 273.686 22.0444 316.29 76.695L316.598 77.1591C317.32 78.4586 334.291 109.283 334.417 135.253C334.54 160.622 330.45 184.897 330.276 185.918L330.155 186.414L325.14 202.023L324.882 202.422C296.626 246.16 249.83 272.498 201.307 272.498Z" fill="#371A45"/>
<path d="M61.0111 202.476C61.0111 252.296 39.1807 278.769 27.9968 289.063C25.022 291.801 20.4546 291.484 17.8577 288.545C17.649 288.307 17.4497 288.047 17.2707 287.769L4.7636 268.883C2.81326 265.946 3.31086 262.012 5.9475 259.673C19.9274 247.248 29.1013 234.624 35.1011 222.995C49.1506 195.735 45.7178 173.942 45.5588 172.986L61.0111 202.476Z" fill="white"/>
<path d="M23.2009 287.352C23.0558 287.352 22.9092 287.342 22.7619 287.324C21.9828 287.229 21.2872 286.895 20.7451 286.364C34.2804 275.268 37.9043 259.183 37.8277 244.929C40.9595 248.381 44.4199 251.234 48.0664 253.402C41.2847 269.758 32.1804 280.33 25.5675 286.418C24.905 287.029 24.0795 287.352 23.2009 287.352Z" fill="#D7D1DA"/>
<path d="M99.289 294.52C92.5021 298.084 84.6818 305.153 79.5677 310.19C76.8415 312.878 72.2645 311.764 71.0307 308.129C69.4186 303.371 68.1054 298.383 67.0209 293.255C58.2947 251.541 65.8567 201.221 65.8567 201.221C74.742 217.291 89.2886 254.875 97.428 276.56C99.2185 281.327 100.701 285.321 101.747 288.157C102.642 290.597 101.597 293.315 99.289 294.52Z" fill="white"/>
<path d="M69.7216 288.228C68.2022 279.781 67.3115 271.04 66.8516 262.508C70.1335 263.407 73.4501 263.876 76.7393 263.876C79.8774 263.876 82.992 263.449 86.031 262.556C86.7027 262.36 87.3632 262.142 88.0125 261.907C89.9143 266.83 91.6843 271.486 93.252 275.643C92.1889 275.496 91.0887 275.412 89.9643 275.412C83.3704 275.412 75.8769 278.281 69.7216 288.228Z" fill="#D7D1DA"/>
<path d="M49.3499 187.956C47.8206 205.208 39.996 234.228 8.33026 262.365C7.04729 263.505 6.80182 265.454 7.75843 266.898L20.265 285.78C20.841 286.649 21.7281 287.199 22.7617 287.323C23.8025 287.449 24.7955 287.128 25.5674 286.417C37.3889 275.535 57.1726 250.318 57.4162 203.355L49.3499 187.956ZM23.1892 294.541C22.7598 294.541 22.3277 294.515 21.8956 294.461C18.7846 294.084 16.0071 292.367 14.275 289.753L1.76863 270.871C-1.15409 266.458 -0.383936 260.49 3.55775 256.987C27.2398 235.945 36.4295 214.399 39.9689 200.03C43.8056 184.451 42.0282 173.68 42.01 173.572L38.1381 151.066L64.6048 201.59V202.475C64.6048 252.746 43.195 279.962 30.4321 291.71C28.4418 293.542 25.8573 294.541 23.1892 294.541Z" fill="#371A45"/>
<path d="M68.0469 213.65C66.129 233.922 63.9456 275.971 74.4365 306.976C74.6874 307.717 75.2653 307.956 75.5878 308.032C75.9013 308.106 76.5091 308.153 77.0483 307.624C82.5091 302.251 90.5118 295.067 97.6215 291.335C98.3339 290.962 98.6512 290.147 98.3766 289.399C93.5694 276.333 78.9172 237.052 68.0469 213.65ZM75.9683 315.271C75.2898 315.271 74.6041 315.191 73.9237 315.029C70.9611 314.322 68.6085 312.176 67.6292 309.283C52.8173 265.504 61.9109 203.315 62.3059 200.688L63.8796 190.21L69.0035 199.483C79.9671 219.317 99.4193 271.419 105.121 286.915C106.633 291.027 104.844 295.664 100.961 297.703C94.627 301.026 87.2019 307.72 82.0861 312.751C80.4228 314.389 78.2324 315.271 75.9683 315.271Z" fill="#371A45"/>
<path d="M285.363 45.1218C242.928 53.4536 126.392 86.2295 48.6928 202.984C42.1457 186.427 38.5537 168.387 38.5537 149.5C38.5537 148.982 38.5537 148.454 38.5637 147.936C44.0561 140.201 51.0806 131.041 59.6974 121.164C93.5466 82.3458 151.944 32.457 238.36 14.4568C251.116 19.6048 262.977 26.5034 273.643 34.8872C277.732 38.0821 281.644 41.4961 285.363 45.1218Z" fill="white"/>
<path d="M76.9514 160.376C71.1416 157.504 65.0592 155.943 59.0627 155.943C55.9248 155.943 52.81 156.37 49.7723 157.263C47.2173 158.013 44.8049 159.052 42.5542 160.369C42.283 156.767 42.147 153.143 42.147 149.499C42.147 149.367 42.147 149.234 42.147 149.1C47.2184 142.01 53.3785 133.998 60.6628 125.497C63.4877 133.825 71.375 138.817 79.5085 138.817C84.2591 138.817 89.0941 137.115 93.0534 133.376C164.145 66.2756 235.808 43.339 269.061 35.8704C272.067 38.1297 274.987 40.5134 277.822 43.0215C256.009 47.8316 219.03 58.38 178.546 80.2306C139.565 101.27 105.547 128.124 76.9514 160.376Z" fill="#D7D1DA"/>
<path d="M42.1464 149.101C42.1464 149.234 42.1464 149.368 42.1464 149.5C42.1464 165.191 44.6676 180.521 49.6503 195.176C82.9616 147.081 126.295 108.433 178.545 80.2314C219.029 58.3809 256.008 47.8325 277.821 43.0224C265.984 32.5538 252.631 24.222 238.022 18.2014C133.44 40.362 70.6506 109.252 42.1464 149.101ZM47.8774 210.696L45.3515 204.306C38.4567 186.87 34.9604 168.43 34.9604 149.5C34.9604 148.96 34.9604 148.408 34.9705 147.868L34.9924 146.76L35.6345 145.854C64.5302 105.162 129.195 33.5228 237.629 10.9371L238.694 10.7143L239.703 11.1227C257.695 18.3778 273.899 28.9485 287.87 42.5434L292.787 47.3275L286.057 48.6493C240.976 57.5009 127.898 90.455 51.6832 204.977L47.8774 210.696Z" fill="#371A45"/>
<path d="M30.9528 220.756C40.4062 247.925 64.6105 265.099 85.0195 259.109C105.428 253.118 114.308 226.234 104.855 199.065C104.799 198.894 104.733 198.714 104.666 198.545C95.0921 171.675 71.0535 154.761 50.7883 160.712C35.0216 165.339 26.1367 182.435 27.2646 202.498C27.6 208.403 28.8034 214.576 30.9528 220.756Z" fill="white"/>
<path d="M76.5657 256.713C75.6519 256.713 74.7335 256.668 73.8149 256.579C77.0909 255.291 80.063 253.277 82.639 250.57C83.5833 249.578 84.4461 248.518 85.2327 247.395C89.7653 241.997 92.1328 234.187 91.3443 224.982C91.2849 224.292 91.2088 223.603 91.1161 222.916C90.6541 216.667 88.9694 210.234 86.0899 204.168C89.4091 205.417 92.5502 206.263 94.977 206.263C95.2609 206.263 95.5373 206.252 95.8027 206.228C98.7285 205.959 100.81 204.582 102.291 202.801C106.486 216.641 105.829 230.899 100.43 241.399C96.6914 248.671 91.0121 253.601 84.0064 255.657C81.5764 256.371 79.0851 256.713 76.5657 256.713Z" fill="#D7D1DA"/>
<path d="M34.3418 219.575C43.1601 244.92 65.4415 261.104 84.0061 255.656C91.0119 253.6 96.6911 248.67 100.43 241.398C106.163 230.25 106.547 214.865 101.459 200.244C92.6427 174.899 70.3615 158.709 51.7954 164.163C44.7907 166.219 39.1115 171.149 35.3726 178.421C29.64 189.567 29.2559 204.954 34.3418 219.575ZM76.7385 263.876C56.9627 263.876 36.2361 246.887 27.5546 221.938C21.7475 205.249 22.2685 188.188 28.9823 175.131C33.6442 166.066 40.8327 159.886 49.7716 157.263C71.9515 150.752 98.1884 168.97 108.246 197.881C114.053 214.57 113.534 231.631 106.819 244.688C102.159 253.753 94.9693 259.933 86.0303 262.556C82.9912 263.449 79.8767 263.876 76.7385 263.876Z" fill="#371A45"/>
<path d="M35.3822 241.409C49.0496 259.227 70.0863 263.213 82.3688 250.309C94.6509 237.406 93.5284 212.502 79.8614 194.681C66.1939 176.863 45.1573 172.879 32.8747 185.783C20.5921 198.686 21.7148 223.59 35.3822 241.409Z" fill="white"/>
<path d="M50.5608 178.585C43.8036 178.585 37.8081 181.145 33.1461 186.042C21.0058 198.796 22.1419 223.532 35.6802 241.181C43.2121 251.002 53.2525 256.939 63.2276 257.47C70.582 257.862 77.1037 255.296 82.0965 250.051C94.2368 237.296 93.1013 212.56 79.5625 194.913C72.0305 185.092 61.9901 179.155 52.015 178.624C51.5265 178.598 51.0411 178.585 50.5608 178.585ZM64.6863 258.261C64.1907 258.261 63.6914 258.248 63.1879 258.22C52.9933 257.678 42.75 251.633 35.084 241.64C21.3302 223.708 20.2168 198.536 32.6027 185.524C37.752 180.115 44.4803 177.473 52.0547 177.872C62.2493 178.416 72.4927 184.459 80.1586 194.454C93.9121 212.384 95.0253 237.557 82.639 250.569C77.8331 255.619 71.6511 258.261 64.6863 258.261Z" fill="#371A45"/>
<path d="M85.2332 247.395C89.8585 240.795 91.7937 232.055 91.1165 222.915C91.2092 223.602 91.2853 224.291 91.3447 224.981C92.1332 234.186 89.7658 241.996 85.2332 247.395Z" fill="#B7ACBC"/>
<path d="M67.6533 255.38C65.9096 255.38 64.1012 255.209 62.2421 254.855C44.4597 251.457 28.6628 232.57 26.9558 212.674C26.8569 211.487 26.7996 210.32 26.807 209.187C33.4282 219.446 43.5 227.23 54.3064 229.289C56.1661 229.644 57.9719 229.815 59.7161 229.815C73.6573 229.815 83.5534 218.848 83.5534 202.892C85.5609 206 87.2529 209.332 88.5517 212.8C92.5296 226.746 90.4738 241.25 82.0962 250.052C81.5099 250.666 80.9025 251.246 80.275 251.788C76.6938 254.103 72.4091 255.382 67.6533 255.38Z" fill="#D7D1DA"/>
<path d="M80.2759 251.787C80.9034 251.245 81.5108 250.666 82.0971 250.051C90.4747 241.25 92.5304 226.745 88.5526 212.8C89.7771 216.074 90.6547 219.472 91.1167 222.915C91.7939 232.055 89.8587 240.795 85.2334 247.395C83.7899 249.116 82.1279 250.59 80.2759 251.787Z" fill="#371A45"/>
<path d="M32.5299 223.861C39.6932 244.189 56.6133 257.563 70.243 253.679C74.9367 252.341 78.7822 248.991 81.3641 243.996C85.9079 235.202 86.0322 222.607 81.6957 210.303C74.5326 189.974 57.6125 176.599 43.9828 180.484C39.2891 181.821 35.4434 185.17 32.8615 190.168C28.3192 198.96 28.1951 211.556 32.5299 223.861ZM65.5965 261.506C49.9646 261.506 33.1016 247.107 25.7518 226.252C20.77 212.111 21.0418 197.387 26.4783 186.865C29.9933 180.061 35.3655 175.464 42.0133 173.569C59.235 168.66 80.0706 184.067 88.4738 207.912C93.4554 222.052 93.1845 236.776 87.7465 247.298C84.2325 254.1 78.8602 258.699 72.2125 260.594C70.0536 261.211 67.8368 261.506 65.5965 261.506Z" fill="#371A45"/>
<path d="M129.806 180.386C119.755 180.386 110.933 171.64 109.636 159.929C108.256 147.461 115.928 136.354 126.772 135.121C127.433 135.045 128.09 135.01 128.741 135.01C138.791 135.01 147.614 143.756 148.91 155.465C150.291 167.934 142.619 179.042 131.774 180.274C131.114 180.349 130.457 180.386 129.806 180.386Z" fill="#9B8DA2"/>
<path d="M140.843 203.508C136.054 200.534 131.401 197.265 126.907 193.708C128.308 191.149 130.757 189.421 133.587 189.336C133.657 189.334 133.73 189.334 133.802 189.334C138.208 189.334 141.847 193.375 141.971 198.473C142.017 200.311 141.6 202.037 140.843 203.508Z" fill="#9B8DA2"/>
<path d="M133.834 208.1C129.425 208.1 125.789 204.058 125.663 198.96C125.614 197.031 126.076 195.225 126.908 193.708C131.401 197.265 136.054 200.535 140.843 203.509C139.463 206.186 136.956 208.01 134.049 208.096C133.976 208.1 133.906 208.1 133.834 208.1Z" fill="#918796"/>
<defs>
<linearGradient id="paint0_linear_3901_22431" x1="499" y1="7" x2="499" y2="512" gradientUnits="userSpaceOnUse">
<stop stop-color="#1DA1F2"/>
<stop offset="1" stop-color="#003CC5"/>
</linearGradient>
</defs>
</svg>
