<svg width="438" height="505" viewBox="0 0 438 505" fill="none" xmlns="http://www.w3.org/2000/svg">
<g style="mix-blend-mode:luminosity" opacity="0.2">
<path fill-rule="evenodd" clip-rule="evenodd" d="M438 265.749C438 211.036 421.248 160.517 393.579 117.624C346.899 46.5157 266.527 0 175.238 0C154.721 0 135.71 2.28766 116.888 6.67233C72.2785 16.2042 32.7512 37.7463 0 67.2952V384.517C51.7619 384.517 96.1831 350.202 111.241 302.352C110.112 300.064 108.606 297.967 106.535 296.251L48.7503 245.351C35.7628 233.913 42.7271 212.561 60.0438 211.036L136.651 203.792C143.992 203.029 150.204 198.645 153.027 191.972L183.708 121.436C190.484 105.423 213.071 105.423 220.035 121.436L250.528 191.972C253.539 198.645 259.751 203.029 266.903 203.792L343.699 211.036C361.016 212.561 367.98 233.913 354.993 245.351L297.019 296.251C291.561 301.017 289.302 308.262 290.808 315.315L307.748 390.427C311.513 407.203 293.255 420.547 278.197 411.778L211.942 372.507C205.73 368.884 190.672 367.55 183.143 369.647L169.403 373.841L153.968 378.988L137.781 385.661C89.407 405.296 20.5165 459.056 4.5174 505H292.69C333.535 484.22 368.357 452.765 393.579 414.066C422.001 371.935 438 321.606 438 266.512C438 266.512 438 266.512 438 265.749Z" fill="url(#paint0_linear_3902_25254)"/>
</g>
<defs>
<linearGradient id="paint0_linear_3902_25254" x1="219" y1="0" x2="219" y2="505" gradientUnits="userSpaceOnUse">
<stop stop-color="#1DA1F2"/>
<stop offset="1" stop-color="#003CC5"/>
</linearGradient>
</defs>
</svg>
