<svg width="25" height="17" viewBox="0 0 25 17" fill="none" xmlns="http://www.w3.org/2000/svg">
<g clip-path="url(#clip0_3902_26520)">
<path d="M24.5 0.5H0.5V16.5H24.5V0.5Z" fill="white"/>
<path d="M24.5 0.5H0.5V6.03804H24.5V0.5Z" fill="#1DA1F2"/>
<path d="M24.5 5.67139H0.5V6.03825H24.5V5.67139Z" fill="#B73000"/>
<path d="M24.5 11.3286H0.5V16.4999H24.5V11.3286Z" fill="#00A900"/>
<path d="M24.5 11.3286H0.5V11.6955H24.5V11.3286Z" fill="#B73000"/>
<path fill-rule="evenodd" clip-rule="evenodd" d="M6.81632 2.14611L6.59285 1.94108L6.3716 2.1509L6.44796 1.8025L6.23096 1.5855L6.50154 1.57502L6.58838 1.23096L6.67947 1.57292L6.95027 1.57741L6.73595 1.79921L6.81632 2.14611Z" fill="#FEFFFF"/>
<path fill-rule="evenodd" clip-rule="evenodd" d="M5.76212 4.91125L5.53865 4.70622L5.31741 4.91604L5.39376 4.56764L5.17676 4.35063L5.44734 4.34016L5.53418 3.99609L5.62527 4.33806L5.89607 4.34255L5.68175 4.56434L5.76212 4.91125Z" fill="#FEFFFF"/>
<path fill-rule="evenodd" clip-rule="evenodd" d="M6.82657 4.91125L6.6031 4.70622L6.38186 4.91604L6.45821 4.56764L6.24121 4.35063L6.51179 4.34016L6.59863 3.99609L6.68972 4.33806L6.96052 4.34255L6.7462 4.56434L6.82657 4.91125Z" fill="#FEFFFF"/>
<path fill-rule="evenodd" clip-rule="evenodd" d="M7.80948 4.91125L7.58601 4.70622L7.36477 4.91604L7.44112 4.56764L7.22412 4.35063L7.4947 4.34016L7.58155 3.99609L7.67263 4.33806L7.94343 4.34255L7.72911 4.56434L7.80948 4.91125Z" fill="#FEFFFF"/>
<path fill-rule="evenodd" clip-rule="evenodd" d="M8.72159 4.91125L8.49812 4.70622L8.27688 4.91604L8.35323 4.56764L8.13623 4.35063L8.40681 4.34016L8.49365 3.99609L8.58474 4.33806L8.85554 4.34255L8.64122 4.56434L8.72159 4.91125Z" fill="#FEFFFF"/>
<path fill-rule="evenodd" clip-rule="evenodd" d="M4.64737 4.91125L4.4239 4.70622L4.20266 4.91604L4.27901 4.56764L4.06201 4.35063L4.33259 4.34016L4.41944 3.99609L4.51052 4.33806L4.78133 4.34255L4.567 4.56434L4.64737 4.91125Z" fill="#FEFFFF"/>
<path fill-rule="evenodd" clip-rule="evenodd" d="M5.7421 3.53918L5.51863 3.33415L5.29739 3.54397L5.37374 3.19557L5.15674 2.97856L5.42732 2.96809L5.51416 2.62402L5.60525 2.96599L5.87605 2.97048L5.66173 3.19227L5.7421 3.53918Z" fill="#FEFFFF"/>
<path fill-rule="evenodd" clip-rule="evenodd" d="M6.81632 3.53918L6.59285 3.33415L6.3716 3.54397L6.44796 3.19557L6.23096 2.97856L6.50154 2.96809L6.58838 2.62402L6.67947 2.96599L6.95027 2.97048L6.73595 3.19227L6.81632 3.53918Z" fill="#FEFFFF"/>
<path fill-rule="evenodd" clip-rule="evenodd" d="M7.8295 3.53918L7.60603 3.33415L7.38479 3.54397L7.46114 3.19557L7.24414 2.97856L7.51472 2.96809L7.60156 2.62402L7.69265 2.96599L7.96345 2.97048L7.74913 3.19227L7.8295 3.53918Z" fill="#FEFFFF"/>
<path fill-rule="evenodd" clip-rule="evenodd" d="M8.71134 3.53918L8.48787 3.33415L8.26662 3.54397L8.34298 3.19557L8.12598 2.97856L8.39656 2.96809L8.4834 2.62402L8.57449 2.96599L8.84529 2.97048L8.63097 3.19227L8.71134 3.53918Z" fill="#FEFFFF"/>
<path fill-rule="evenodd" clip-rule="evenodd" d="M8.70109 2.14611L8.47761 1.94108L8.25637 2.1509L8.33272 1.8025L8.11572 1.5855L8.3863 1.57502L8.47315 1.23096L8.56423 1.57292L8.83504 1.57741L8.62072 1.79921L8.70109 2.14611Z" fill="#FEFFFF"/>
<path fill-rule="evenodd" clip-rule="evenodd" d="M7.81925 2.14611L7.59578 1.94108L7.37453 2.1509L7.45089 1.8025L7.23389 1.5855L7.50447 1.57502L7.59131 1.23096L7.6824 1.57292L7.9532 1.57741L7.73888 1.79921L7.81925 2.14611Z" fill="#FEFFFF"/>
<path fill-rule="evenodd" clip-rule="evenodd" d="M3.94569 1.33712C2.74982 0.900048 1.99227 2.02891 2.00369 3.04053C2.01508 4.05225 2.71433 5.12341 3.79353 4.85634C2.09784 5.91589 1.23056 4.24674 1.26516 2.92164C1.32471 1.35541 2.6451 0.0780827 3.94569 1.33712Z" fill="white"/>
</g>
<defs>
<clipPath id="clip0_3902_26520">
<rect width="24" height="16" fill="white" transform="translate(0.5 0.5)"/>
</clipPath>
</defs>
</svg>
