<svg width="32" height="32" viewBox="0 0 32 32" fill="none" xmlns="http://www.w3.org/2000/svg">
<path d="M4.22668 9.91992L16 16.7332L27.6933 9.95988" stroke="white" stroke-width="1.5" stroke-linecap="round" stroke-linejoin="round"/>
<path d="M16 28.8131V16.7197" stroke="white" stroke-width="1.5" stroke-linecap="round" stroke-linejoin="round"/>
<path d="M13.2399 3.30699L6.11995 7.26703C4.50662 8.16037 3.18665 10.4003 3.18665 12.2403V19.7737C3.18665 21.6137 4.50662 23.8537 6.11995 24.747L13.2399 28.7071C14.7599 29.5471 17.2533 29.5471 18.7733 28.7071L25.8933 24.747C27.5066 23.8537 28.8266 21.6137 28.8266 19.7737V12.2403C28.8266 10.4003 27.5066 8.16037 25.8933 7.26703L18.7733 3.30699C17.2399 2.45366 14.7599 2.45366 13.2399 3.30699Z" stroke="white" stroke-width="1.5" stroke-linecap="round" stroke-linejoin="round"/>
<path d="M22.6666 17.6535V12.7735L10.0133 5.4668" stroke="white" stroke-width="1.5" stroke-linecap="round" stroke-linejoin="round"/>
</svg>
