<svg width="32" height="32" viewBox="0 0 32 32" fill="none" xmlns="http://www.w3.org/2000/svg">
<path d="M8.93337 24.0003H5.53339C3.62672 24.0003 2.66669 23.0403 2.66669 21.1336V5.53369C2.66669 3.62702 3.62672 2.66699 5.53339 2.66699H11.2667C13.1734 2.66699 14.1333 3.62702 14.1333 5.53369V8.00033" stroke="white" stroke-width="1.5" stroke-miterlimit="10" stroke-linecap="round" stroke-linejoin="round"/>
<path d="M23.16 11.2266V26.1067C23.16 28.2534 22.0934 29.3333 19.9467 29.3333H12.16C10.0133 29.3333 8.93335 28.2534 8.93335 26.1067V11.2266C8.93335 9.07998 10.0133 8 12.16 8H19.9467C22.0934 8 23.16 9.07998 23.16 11.2266Z" stroke="white" stroke-width="1.5" stroke-miterlimit="10" stroke-linecap="round" stroke-linejoin="round"/>
<path d="M17.8667 8.00033V5.53369C17.8667 3.62702 18.8267 2.66699 20.7333 2.66699H26.4666C28.3733 2.66699 29.3333 3.62702 29.3333 5.53369V21.1336C29.3333 23.0403 28.3733 24.0003 26.4666 24.0003H23.16" stroke="white" stroke-width="1.5" stroke-miterlimit="10" stroke-linecap="round" stroke-linejoin="round"/>
<path d="M13.3333 14.667H18.6666" stroke="white" stroke-width="1.5" stroke-miterlimit="10" stroke-linecap="round" stroke-linejoin="round"/>
<path d="M13.3333 18.667H18.6666" stroke="white" stroke-width="1.5" stroke-miterlimit="10" stroke-linecap="round" stroke-linejoin="round"/>
<path d="M16 29.333V25.333" stroke="white" stroke-width="1.5" stroke-miterlimit="10" stroke-linecap="round" stroke-linejoin="round"/>
</svg>
