<svg width="32" height="32" viewBox="0 0 32 32" fill="none" xmlns="http://www.w3.org/2000/svg">
<path d="M22.6666 24.5736H17.3333L11.3999 28.5203C10.5199 29.1069 9.33329 28.4803 9.33329 27.4137V24.5736C5.33329 24.5736 2.66663 21.907 2.66663 17.907V9.9069C2.66663 5.9069 5.33329 3.24023 9.33329 3.24023H22.6666C26.6666 3.24023 29.3333 5.9069 29.3333 9.9069V17.907C29.3333 21.907 26.6666 24.5736 22.6666 24.5736Z" stroke="white" stroke-width="1.5" stroke-miterlimit="10" stroke-linecap="round" stroke-linejoin="round"/>
<path d="M16 15.1465V14.8665C16 13.9599 16.5601 13.4798 17.1201 13.0932C17.6667 12.7198 18.2133 12.2399 18.2133 11.3599C18.2133 10.1332 17.2267 9.14648 16 9.14648C14.7734 9.14648 13.7867 10.1332 13.7867 11.3599" stroke="white" stroke-width="1.5" stroke-linecap="round" stroke-linejoin="round"/>
<path d="M15.994 18.3337H16.006" stroke="white" stroke-width="1.5" stroke-linecap="round" stroke-linejoin="round"/>
</svg>
