<svg width="32" height="32" viewBox="0 0 32 32" fill="none" xmlns="http://www.w3.org/2000/svg">
<path d="M16.0267 3.87988C11.6133 3.87988 8.02666 7.46655 8.02666 11.8799V15.7332C8.02666 16.5466 7.67999 17.7865 7.26666 18.4799L5.73333 21.0266C4.78666 22.5999 5.44 24.3466 7.17333 24.9332C12.92 26.8532 19.12 26.8532 24.8667 24.9332C26.48 24.3999 27.1867 22.4932 26.3067 21.0266L24.7733 18.4799C24.3733 17.7865 24.0267 16.5466 24.0267 15.7332V11.8799C24.0267 7.47988 20.4267 3.87988 16.0267 3.87988Z" stroke="white" stroke-width="1.5" stroke-miterlimit="10" stroke-linecap="round"/>
<path d="M18.4933 4.26691C18.08 4.14691 17.6533 4.05358 17.2133 4.00025C15.9333 3.84025 14.7067 3.93358 13.56 4.26691C13.9467 3.28025 14.9067 2.58691 16.0267 2.58691C17.1467 2.58691 18.1067 3.28025 18.4933 4.26691Z" stroke="white" stroke-width="1.5" stroke-miterlimit="10" stroke-linecap="round" stroke-linejoin="round"/>
<path d="M20.0267 25.4131C20.0267 27.6131 18.2267 29.4131 16.0267 29.4131C14.9333 29.4131 13.92 28.9598 13.2 28.2398C12.48 27.5198 12.0267 26.5064 12.0267 25.4131" stroke="white" stroke-width="1.5" stroke-miterlimit="10"/>
</svg>
