<svg width="32" height="32" viewBox="0 0 32 32" fill="none" xmlns="http://www.w3.org/2000/svg">
<path d="M12.2133 14.4937C12.08 14.4803 11.92 14.4803 11.7734 14.4937C8.60002 14.387 6.08002 11.787 6.08002 8.58699C6.08002 5.32033 8.72002 2.66699 12 2.66699C15.2667 2.66699 17.92 5.32033 17.92 8.58699C17.9067 11.787 15.3867 14.387 12.2133 14.4937Z" stroke="white" stroke-width="1.5" stroke-linecap="round" stroke-linejoin="round"/>
<path d="M21.88 5.33301C24.4667 5.33301 26.5467 7.42634 26.5467 9.99967C26.5467 12.5197 24.5467 14.573 22.0533 14.6663C21.9467 14.653 21.8267 14.653 21.7067 14.6663" stroke="white" stroke-width="1.5" stroke-linecap="round" stroke-linejoin="round"/>
<path d="M5.54665 19.413C2.31998 21.573 2.31998 25.093 5.54665 27.2397C9.21331 29.693 15.2266 29.693 18.8933 27.2397C22.12 25.0797 22.12 21.5597 18.8933 19.413C15.24 16.973 9.22665 16.973 5.54665 19.413Z" stroke="white" stroke-width="1.5" stroke-linecap="round" stroke-linejoin="round"/>
<path d="M24.4533 26.667C25.4133 26.467 26.32 26.0803 27.0666 25.507C29.1466 23.947 29.1466 21.3737 27.0666 19.8137C26.3333 19.2537 25.44 18.8803 24.4933 18.667" stroke="white" stroke-width="1.5" stroke-linecap="round" stroke-linejoin="round"/>
</svg>
